<?xml version="1.0" encoding="UTF-8" standalone="no"?>
<!DOCTYPE svg PUBLIC "-//W3C//DTD SVG 1.1//EN" "http://www.w3.org/Graphics/SVG/1.1/DTD/svg11.dtd">
<svg width="100%" height="100%" viewBox="0 0 1200 700" version="1.1" xmlns="http://www.w3.org/2000/svg" xmlns:xlink="http://www.w3.org/1999/xlink" xml:space="preserve" xmlns:serif="http://www.serif.com/" style="fill-rule:evenodd;clip-rule:evenodd;stroke-linejoin:round;stroke-miterlimit:2;">
    <rect id="Монтажная-область1" serif:id="Монтажная область1" x="0" y="0" width="1200" height="700" style="fill:none;"/>
    <g id="Монтажная-область11" serif:id="Монтажная область1">
        <g transform="matrix(1.06916,0,0,1.15305,-82.9937,-107.135)">
            <rect x="77.625" y="92.914" width="1122.38" height="607.086"/>
        </g>
        <g transform="matrix(0.918888,0,0,0.615665,13.0028,105.915)">
            <rect x="77.625" y="92.914" width="1122.38" height="607.086" style="fill:rgb(41,41,41);"/>
        </g>
        <g transform="matrix(2.38558,0,0,2.38558,-608.656,-2506.34)">
            <g transform="matrix(3.66834,0,0,3.82063,-226.068,-450.159)">
                <path d="M174.137,440.752L175.549,440.752C175.948,440.752 176.147,440.937 176.147,441.306L176.147,443.11C176.147,443.479 175.948,443.663 175.549,443.663L174.137,443.663C173.739,443.663 173.54,443.479 173.54,443.11L173.54,441.306C173.54,440.937 173.739,440.752 174.137,440.752ZM171.327,440.752L172.726,440.752C173.124,440.752 173.323,440.937 173.323,441.306L173.323,443.11C173.323,443.479 173.124,443.663 172.726,443.663L171.327,443.663C170.928,443.663 170.729,443.479 170.729,443.11L170.729,441.306C170.729,440.937 170.928,440.752 171.327,440.752ZM168.516,418.756L169.915,418.756C170.313,418.756 170.513,418.941 170.513,419.31L170.513,421.099C170.513,421.469 170.313,421.653 169.915,421.653L168.516,421.653C168.117,421.653 167.918,421.469 167.918,421.099L167.918,419.31C167.918,418.941 168.117,418.756 168.516,418.756ZM168.516,421.895L169.915,421.895C170.313,421.895 170.513,422.079 170.513,422.448L170.513,424.252C170.513,424.621 170.313,424.806 169.915,424.806L168.516,424.806C168.117,424.806 167.918,424.621 167.918,424.252L167.918,422.448C167.918,422.079 168.117,421.895 168.516,421.895ZM168.516,425.033L169.915,425.033C170.313,425.033 170.513,425.217 170.513,425.587L170.513,427.39C170.513,427.759 170.313,427.944 169.915,427.944L168.516,427.944C168.117,427.944 167.918,427.759 167.918,427.39L167.918,425.587C167.918,425.217 168.117,425.033 168.516,425.033ZM168.516,428.185L169.915,428.185C170.313,428.185 170.513,428.37 170.513,428.739L170.513,430.543C170.513,430.912 170.313,431.096 169.915,431.096L168.516,431.096C168.117,431.096 167.918,430.912 167.918,430.543L167.918,428.739C167.918,428.37 168.117,428.185 168.516,428.185ZM168.516,431.324L169.915,431.324C170.313,431.324 170.513,431.508 170.513,431.877L170.513,433.681C170.513,434.05 170.313,434.235 169.915,434.235L168.516,434.235C168.117,434.235 167.918,434.05 167.918,433.681L167.918,431.877C167.918,431.508 168.117,431.324 168.516,431.324ZM168.516,434.476L169.915,434.476C170.313,434.476 170.513,434.661 170.513,435.03L170.513,436.819C170.513,437.188 170.313,437.373 169.915,437.373L168.516,437.373C168.117,437.373 167.918,437.188 167.918,436.819L167.918,435.03C167.918,434.661 168.117,434.476 168.516,434.476ZM168.516,437.614L169.915,437.614C170.313,437.614 170.513,437.799 170.513,438.168L170.513,439.971C170.513,440.341 170.313,440.525 169.915,440.525L168.516,440.525C168.117,440.525 167.918,440.341 167.918,439.971L167.918,438.168C167.918,437.799 168.117,437.614 168.516,437.614ZM168.516,440.752L169.915,440.752C170.313,440.752 170.513,440.937 170.513,441.306L170.513,443.11C170.513,443.479 170.313,443.663 169.915,443.663L168.516,443.663C168.117,443.663 167.918,443.479 167.918,443.11L167.918,441.306C167.918,440.937 168.117,440.752 168.516,440.752ZM165.692,421.895L167.104,421.895C167.502,421.895 167.702,422.079 167.702,422.448L167.702,424.252C167.702,424.621 167.502,424.806 167.104,424.806L165.692,424.806C165.293,424.806 165.094,424.621 165.094,424.252L165.094,422.448C165.094,422.079 165.293,421.895 165.692,421.895ZM165.692,440.752L167.104,440.752C167.502,440.752 167.702,440.937 167.702,441.306L167.702,443.11C167.702,443.479 167.502,443.663 167.104,443.663L165.692,443.663C165.293,443.663 165.094,443.479 165.094,443.11L165.094,441.306C165.094,440.937 165.293,440.752 165.692,440.752ZM162.881,425.033L164.28,425.033C164.679,425.033 164.878,425.217 164.878,425.587L164.878,427.39C164.878,427.759 164.679,427.944 164.28,427.944L162.881,427.944C162.483,427.944 162.283,427.759 162.283,427.39L162.283,425.587C162.283,425.217 162.483,425.033 162.881,425.033ZM162.881,440.752L164.28,440.752C164.679,440.752 164.878,440.937 164.878,441.306L164.878,443.11C164.878,443.479 164.679,443.663 164.28,443.663L162.881,443.663C162.483,443.663 162.283,443.479 162.283,443.11L162.283,441.306C162.283,440.937 162.483,440.752 162.881,440.752Z" style="fill:rgb(197,249,70);fill-rule:nonzero;"/>
            </g>
            <g transform="matrix(3.66834,0,0,3.82063,-226.068,-450.159)">
                <path d="M194.488,421.895L195.9,421.895C196.298,421.895 196.498,422.079 196.498,422.448L196.498,424.252C196.498,424.621 196.298,424.806 195.9,424.806L194.488,424.806C194.089,424.806 193.89,424.621 193.89,424.252L193.89,422.448C193.89,422.079 194.089,421.895 194.488,421.895ZM194.488,425.033L195.9,425.033C196.298,425.033 196.498,425.217 196.498,425.587L196.498,427.39C196.498,427.759 196.298,427.944 195.9,427.944L194.488,427.944C194.089,427.944 193.89,427.759 193.89,427.39L193.89,425.587C193.89,425.217 194.089,425.033 194.488,425.033ZM194.488,428.185L195.9,428.185C196.298,428.185 196.498,428.37 196.498,428.739L196.498,430.543C196.498,430.912 196.298,431.096 195.9,431.096L194.488,431.096C194.089,431.096 193.89,430.912 193.89,430.543L193.89,428.739C193.89,428.37 194.089,428.185 194.488,428.185ZM194.488,431.324L195.9,431.324C196.298,431.324 196.498,431.508 196.498,431.877L196.498,433.681C196.498,434.05 196.298,434.235 195.9,434.235L194.488,434.235C194.089,434.235 193.89,434.05 193.89,433.681L193.89,431.877C193.89,431.508 194.089,431.324 194.488,431.324ZM194.488,434.476L195.9,434.476C196.298,434.476 196.498,434.661 196.498,435.03L196.498,436.819C196.498,437.188 196.298,437.373 195.9,437.373L194.488,437.373C194.089,437.373 193.89,437.188 193.89,436.819L193.89,435.03C193.89,434.661 194.089,434.476 194.488,434.476ZM194.488,437.614L195.9,437.614C196.298,437.614 196.498,437.799 196.498,438.168L196.498,439.971C196.498,440.341 196.298,440.525 195.9,440.525L194.488,440.525C194.089,440.525 193.89,440.341 193.89,439.971L193.89,438.168C193.89,437.799 194.089,437.614 194.488,437.614ZM191.677,418.756L193.076,418.756C193.475,418.756 193.674,418.941 193.674,419.31L193.674,421.099C193.674,421.469 193.475,421.653 193.076,421.653L191.677,421.653C191.279,421.653 191.079,421.469 191.079,421.099L191.079,419.31C191.079,418.941 191.279,418.756 191.677,418.756ZM191.677,425.033L193.076,425.033C193.475,425.033 193.674,425.217 193.674,425.587L193.674,427.39C193.674,427.759 193.475,427.944 193.076,427.944L191.677,427.944C191.279,427.944 191.079,427.759 191.079,427.39L191.079,425.587C191.079,425.217 191.279,425.033 191.677,425.033ZM191.677,440.752L193.076,440.752C193.475,440.752 193.674,440.937 193.674,441.306L193.674,443.11C193.674,443.479 193.475,443.663 193.076,443.663L191.677,443.663C191.279,443.663 191.079,443.479 191.079,443.11L191.079,441.306C191.079,440.937 191.279,440.752 191.677,440.752ZM188.866,418.756L190.265,418.756C190.664,418.756 190.863,418.941 190.863,419.31L190.863,421.099C190.863,421.469 190.664,421.653 190.265,421.653L188.866,421.653C188.468,421.653 188.268,421.469 188.268,421.099L188.268,419.31C188.268,418.941 188.468,418.756 188.866,418.756ZM188.866,428.185L190.265,428.185C190.664,428.185 190.863,428.37 190.863,428.739L190.863,430.543C190.863,430.912 190.664,431.096 190.265,431.096L188.866,431.096C188.468,431.096 188.268,430.912 188.268,430.543L188.268,428.739C188.268,428.37 188.468,428.185 188.866,428.185ZM188.866,440.752L190.265,440.752C190.664,440.752 190.863,440.937 190.863,441.306L190.863,443.11C190.863,443.479 190.664,443.663 190.265,443.663L188.866,443.663C188.468,443.663 188.268,443.479 188.268,443.11L188.268,441.306C188.268,440.937 188.468,440.752 188.866,440.752ZM186.043,418.756L187.454,418.756C187.853,418.756 188.052,418.941 188.052,419.31L188.052,421.099C188.052,421.469 187.853,421.653 187.454,421.653L186.043,421.653C185.644,421.653 185.445,421.469 185.445,421.099L185.445,419.31C185.445,418.941 185.644,418.756 186.043,418.756ZM186.043,431.324L187.454,431.324C187.853,431.324 188.052,431.508 188.052,431.877L188.052,433.681C188.052,434.05 187.853,434.235 187.454,434.235L186.043,434.235C185.644,434.235 185.445,434.05 185.445,433.681L185.445,431.877C185.445,431.508 185.644,431.324 186.043,431.324ZM186.043,440.752L187.454,440.752C187.853,440.752 188.052,440.937 188.052,441.306L188.052,443.11C188.052,443.479 187.853,443.663 187.454,443.663L186.043,443.663C185.644,443.663 185.445,443.479 185.445,443.11L185.445,441.306C185.445,440.937 185.644,440.752 186.043,440.752ZM183.232,421.895L184.631,421.895C185.029,421.895 185.229,422.079 185.229,422.448L185.229,424.252C185.229,424.621 185.029,424.806 184.631,424.806L183.232,424.806C182.833,424.806 182.634,424.621 182.634,424.252L182.634,422.448C182.634,422.079 182.833,421.895 183.232,421.895ZM183.232,425.033L184.631,425.033C185.029,425.033 185.229,425.217 185.229,425.587L185.229,427.39C185.229,427.759 185.029,427.944 184.631,427.944L183.232,427.944C182.833,427.944 182.634,427.759 182.634,427.39L182.634,425.587C182.634,425.217 182.833,425.033 183.232,425.033ZM183.232,428.185L184.631,428.185C185.029,428.185 185.229,428.37 185.229,428.739L185.229,430.543C185.229,430.912 185.029,431.096 184.631,431.096L183.232,431.096C182.833,431.096 182.634,430.912 182.634,430.543L182.634,428.739C182.634,428.37 182.833,428.185 183.232,428.185ZM183.232,431.324L184.631,431.324C185.029,431.324 185.229,431.508 185.229,431.877L185.229,433.681C185.229,434.05 185.029,434.235 184.631,434.235L183.232,434.235C182.833,434.235 182.634,434.05 182.634,433.681L182.634,431.877C182.634,431.508 182.833,431.324 183.232,431.324ZM183.232,434.476L184.631,434.476C185.029,434.476 185.229,434.661 185.229,435.03L185.229,436.819C185.229,437.188 185.029,437.373 184.631,437.373L183.232,437.373C182.833,437.373 182.634,437.188 182.634,436.819L182.634,435.03C182.634,434.661 182.833,434.476 183.232,434.476ZM183.232,437.614L184.631,437.614C185.029,437.614 185.229,437.799 185.229,438.168L185.229,439.971C185.229,440.341 185.029,440.525 184.631,440.525L183.232,440.525C182.833,440.525 182.634,440.341 182.634,439.971L182.634,438.168C182.634,437.799 182.833,437.614 183.232,437.614Z" style="fill:rgb(197,249,70);fill-rule:nonzero;"/>
            </g>
            <g transform="matrix(3.66834,0,0,3.82063,-226.068,-450.159)">
                <path d="M214.839,421.895L216.25,421.895C216.649,421.895 216.848,422.079 216.848,422.448L216.848,424.252C216.848,424.621 216.649,424.806 216.25,424.806L214.839,424.806C214.44,424.806 214.241,424.621 214.241,424.252L214.241,422.448C214.241,422.079 214.44,421.895 214.839,421.895ZM214.839,425.033L216.25,425.033C216.649,425.033 216.848,425.217 216.848,425.587L216.848,427.39C216.848,427.759 216.649,427.944 216.25,427.944L214.839,427.944C214.44,427.944 214.241,427.759 214.241,427.39L214.241,425.587C214.241,425.217 214.44,425.033 214.839,425.033ZM214.839,428.185L216.25,428.185C216.649,428.185 216.848,428.37 216.848,428.739L216.848,430.543C216.848,430.912 216.649,431.096 216.25,431.096L214.839,431.096C214.44,431.096 214.241,430.912 214.241,430.543L214.241,428.739C214.241,428.37 214.44,428.185 214.839,428.185ZM214.839,431.324L216.25,431.324C216.649,431.324 216.848,431.508 216.848,431.877L216.848,433.681C216.848,434.05 216.649,434.235 216.25,434.235L214.839,434.235C214.44,434.235 214.241,434.05 214.241,433.681L214.241,431.877C214.241,431.508 214.44,431.324 214.839,431.324ZM214.839,434.476L216.25,434.476C216.649,434.476 216.848,434.661 216.848,435.03L216.848,436.819C216.848,437.188 216.649,437.373 216.25,437.373L214.839,437.373C214.44,437.373 214.241,437.188 214.241,436.819L214.241,435.03C214.241,434.661 214.44,434.476 214.839,434.476ZM214.839,437.614L216.25,437.614C216.649,437.614 216.848,437.799 216.848,438.168L216.848,439.971C216.848,440.341 216.649,440.525 216.25,440.525L214.839,440.525C214.44,440.525 214.241,440.341 214.241,439.971L214.241,438.168C214.241,437.799 214.44,437.614 214.839,437.614ZM212.028,418.756L213.427,418.756C213.825,418.756 214.025,418.941 214.025,419.31L214.025,421.099C214.025,421.469 213.825,421.653 213.427,421.653L212.028,421.653C211.629,421.653 211.43,421.469 211.43,421.099L211.43,419.31C211.43,418.941 211.629,418.756 212.028,418.756ZM212.028,425.033L213.427,425.033C213.825,425.033 214.025,425.217 214.025,425.587L214.025,427.39C214.025,427.759 213.825,427.944 213.427,427.944L212.028,427.944C211.629,427.944 211.43,427.759 211.43,427.39L211.43,425.587C211.43,425.217 211.629,425.033 212.028,425.033ZM212.028,440.752L213.427,440.752C213.825,440.752 214.025,440.937 214.025,441.306L214.025,443.11C214.025,443.479 213.825,443.663 213.427,443.663L212.028,443.663C211.629,443.663 211.43,443.479 211.43,443.11L211.43,441.306C211.43,440.937 211.629,440.752 212.028,440.752ZM209.217,418.756L210.616,418.756C211.014,418.756 211.214,418.941 211.214,419.31L211.214,421.099C211.214,421.469 211.014,421.653 210.616,421.653L209.217,421.653C208.818,421.653 208.619,421.469 208.619,421.099L208.619,419.31C208.619,418.941 208.818,418.756 209.217,418.756ZM209.217,428.185L210.616,428.185C211.014,428.185 211.214,428.37 211.214,428.739L211.214,430.543C211.214,430.912 211.014,431.096 210.616,431.096L209.217,431.096C208.818,431.096 208.619,430.912 208.619,430.543L208.619,428.739C208.619,428.37 208.818,428.185 209.217,428.185ZM209.217,440.752L210.616,440.752C211.014,440.752 211.214,440.937 211.214,441.306L211.214,443.11C211.214,443.479 211.014,443.663 210.616,443.663L209.217,443.663C208.818,443.663 208.619,443.479 208.619,443.11L208.619,441.306C208.619,440.937 208.818,440.752 209.217,440.752ZM206.393,418.756L207.805,418.756C208.203,418.756 208.403,418.941 208.403,419.31L208.403,421.099C208.403,421.469 208.203,421.653 207.805,421.653L206.393,421.653C205.995,421.653 205.795,421.469 205.795,421.099L205.795,419.31C205.795,418.941 205.995,418.756 206.393,418.756ZM206.393,431.324L207.805,431.324C208.203,431.324 208.403,431.508 208.403,431.877L208.403,433.681C208.403,434.05 208.203,434.235 207.805,434.235L206.393,434.235C205.995,434.235 205.795,434.05 205.795,433.681L205.795,431.877C205.795,431.508 205.995,431.324 206.393,431.324ZM206.393,440.752L207.805,440.752C208.203,440.752 208.403,440.937 208.403,441.306L208.403,443.11C208.403,443.479 208.203,443.663 207.805,443.663L206.393,443.663C205.995,443.663 205.795,443.479 205.795,443.11L205.795,441.306C205.795,440.937 205.995,440.752 206.393,440.752ZM203.582,421.895L204.981,421.895C205.38,421.895 205.579,422.079 205.579,422.448L205.579,424.252C205.579,424.621 205.38,424.806 204.981,424.806L203.582,424.806C203.184,424.806 202.984,424.621 202.984,424.252L202.984,422.448C202.984,422.079 203.184,421.895 203.582,421.895ZM203.582,425.033L204.981,425.033C205.38,425.033 205.579,425.217 205.579,425.587L205.579,427.39C205.579,427.759 205.38,427.944 204.981,427.944L203.582,427.944C203.184,427.944 202.984,427.759 202.984,427.39L202.984,425.587C202.984,425.217 203.184,425.033 203.582,425.033ZM203.582,428.185L204.981,428.185C205.38,428.185 205.579,428.37 205.579,428.739L205.579,430.543C205.579,430.912 205.38,431.096 204.981,431.096L203.582,431.096C203.184,431.096 202.984,430.912 202.984,430.543L202.984,428.739C202.984,428.37 203.184,428.185 203.582,428.185ZM203.582,431.324L204.981,431.324C205.38,431.324 205.579,431.508 205.579,431.877L205.579,433.681C205.579,434.05 205.38,434.235 204.981,434.235L203.582,434.235C203.184,434.235 202.984,434.05 202.984,433.681L202.984,431.877C202.984,431.508 203.184,431.324 203.582,431.324ZM203.582,434.476L204.981,434.476C205.38,434.476 205.579,434.661 205.579,435.03L205.579,436.819C205.579,437.188 205.38,437.373 204.981,437.373L203.582,437.373C203.184,437.373 202.984,437.188 202.984,436.819L202.984,435.03C202.984,434.661 203.184,434.476 203.582,434.476ZM203.582,437.614L204.981,437.614C205.38,437.614 205.579,437.799 205.579,438.168L205.579,439.971C205.579,440.341 205.38,440.525 204.981,440.525L203.582,440.525C203.184,440.525 202.984,440.341 202.984,439.971L202.984,438.168C202.984,437.799 203.184,437.614 203.582,437.614Z" style="fill:rgb(197,249,70);fill-rule:nonzero;"/>
            </g>
            <g transform="matrix(3.66834,0,0,3.82063,-226.068,-450.159)">
                <path d="M235.189,418.756L236.601,418.756C236.999,418.756 237.199,418.941 237.199,419.31L237.199,421.099C237.199,421.469 236.999,421.653 236.601,421.653L235.189,421.653C234.791,421.653 234.591,421.469 234.591,421.099L234.591,419.31C234.591,418.941 234.791,418.756 235.189,418.756ZM235.189,421.895L236.601,421.895C236.999,421.895 237.199,422.079 237.199,422.448L237.199,424.252C237.199,424.621 236.999,424.806 236.601,424.806L235.189,424.806C234.791,424.806 234.591,424.621 234.591,424.252L234.591,422.448C234.591,422.079 234.791,421.895 235.189,421.895ZM235.189,437.614L236.601,437.614C236.999,437.614 237.199,437.799 237.199,438.168L237.199,439.971C237.199,440.341 236.999,440.525 236.601,440.525L235.189,440.525C234.791,440.525 234.591,440.341 234.591,439.971L234.591,438.168C234.591,437.799 234.791,437.614 235.189,437.614ZM235.189,440.752L236.601,440.752C236.999,440.752 237.199,440.937 237.199,441.306L237.199,443.11C237.199,443.479 236.999,443.663 236.601,443.663L235.189,443.663C234.791,443.663 234.591,443.479 234.591,443.11L234.591,441.306C234.591,440.937 234.791,440.752 235.189,440.752ZM232.378,425.033L233.777,425.033C234.176,425.033 234.375,425.217 234.375,425.587L234.375,427.39C234.375,427.759 234.176,427.944 233.777,427.944L232.378,427.944C231.98,427.944 231.78,427.759 231.78,427.39L231.78,425.587C231.78,425.217 231.98,425.033 232.378,425.033ZM232.378,437.614L233.777,437.614C234.176,437.614 234.375,437.799 234.375,438.168L234.375,439.971C234.375,440.341 234.176,440.525 233.777,440.525L232.378,440.525C231.98,440.525 231.78,440.341 231.78,439.971L231.78,438.168C231.78,437.799 231.98,437.614 232.378,437.614ZM232.378,440.752L233.777,440.752C234.176,440.752 234.375,440.937 234.375,441.306L234.375,443.11C234.375,443.479 234.176,443.663 233.777,443.663L232.378,443.663C231.98,443.663 231.78,443.479 231.78,443.11L231.78,441.306C231.78,440.937 231.98,440.752 232.378,440.752ZM229.567,428.185L230.966,428.185C231.365,428.185 231.564,428.37 231.564,428.739L231.564,430.543C231.564,430.912 231.365,431.096 230.966,431.096L229.567,431.096C229.169,431.096 228.969,430.912 228.969,430.543L228.969,428.739C228.969,428.37 229.169,428.185 229.567,428.185ZM226.744,418.756L228.155,418.756C228.554,418.756 228.753,418.941 228.753,419.31L228.753,421.099C228.753,421.469 228.554,421.653 228.155,421.653L226.744,421.653C226.345,421.653 226.146,421.469 226.146,421.099L226.146,419.31C226.146,418.941 226.345,418.756 226.744,418.756ZM226.744,421.895L228.155,421.895C228.554,421.895 228.753,422.079 228.753,422.448L228.753,424.252C228.753,424.621 228.554,424.806 228.155,424.806L226.744,424.806C226.345,424.806 226.146,424.621 226.146,424.252L226.146,422.448C226.146,422.079 226.345,421.895 226.744,421.895ZM226.744,431.324L228.155,431.324C228.554,431.324 228.753,431.508 228.753,431.877L228.753,433.681C228.753,434.05 228.554,434.235 228.155,434.235L226.744,434.235C226.345,434.235 226.146,434.05 226.146,433.681L226.146,431.877C226.146,431.508 226.345,431.324 226.744,431.324ZM223.933,418.756L225.332,418.756C225.73,418.756 225.93,418.941 225.93,419.31L225.93,421.099C225.93,421.469 225.73,421.653 225.332,421.653L223.933,421.653C223.534,421.653 223.335,421.469 223.335,421.099L223.335,419.31C223.335,418.941 223.534,418.756 223.933,418.756ZM223.933,421.895L225.332,421.895C225.73,421.895 225.93,422.079 225.93,422.448L225.93,424.252C225.93,424.621 225.73,424.806 225.332,424.806L223.933,424.806C223.534,424.806 223.335,424.621 223.335,424.252L223.335,422.448C223.335,422.079 223.534,421.895 223.933,421.895ZM223.933,434.476L225.332,434.476C225.73,434.476 225.93,434.661 225.93,435.03L225.93,436.819C225.93,437.188 225.73,437.373 225.332,437.373L223.933,437.373C223.534,437.373 223.335,437.188 223.335,436.819L223.335,435.03C223.335,434.661 223.534,434.476 223.933,434.476ZM223.933,437.614L225.332,437.614C225.73,437.614 225.93,437.799 225.93,438.168L225.93,439.971C225.93,440.341 225.73,440.525 225.332,440.525L223.933,440.525C223.534,440.525 223.335,440.341 223.335,439.971L223.335,438.168C223.335,437.799 223.534,437.614 223.933,437.614ZM223.933,440.752L225.332,440.752C225.73,440.752 225.93,440.937 225.93,441.306L225.93,443.11C225.93,443.479 225.73,443.663 225.332,443.663L223.933,443.663C223.534,443.663 223.335,443.479 223.335,443.11L223.335,441.306C223.335,440.937 223.534,440.752 223.933,440.752Z" style="fill:rgb(197,249,70);fill-rule:nonzero;"/>
            </g>
        </g>
    </g>
</svg>
