<?xml version="1.0" encoding="UTF-8" standalone="no"?>
<!DOCTYPE svg PUBLIC "-//W3C//DTD SVG 1.1//EN" "http://www.w3.org/Graphics/SVG/1.1/DTD/svg11.dtd">
<svg width="100%" height="100%" viewBox="0 0 1200 700" version="1.1" xmlns="http://www.w3.org/2000/svg" xmlns:xlink="http://www.w3.org/1999/xlink" xml:space="preserve" xmlns:serif="http://www.serif.com/" style="fill-rule:evenodd;clip-rule:evenodd;stroke-linejoin:round;stroke-miterlimit:2;">
    <g transform="matrix(1,0,0,1,-1299.76,0)">
        <g id="Монтажная-область1" serif:id="Монтажная область1" transform="matrix(1,0,0,1,1299.76,0)">
            <rect x="0" y="0" width="1200" height="700" style="fill:none;"/>
            <g transform="matrix(1.06916,0,0,1.15305,-82.9937,-107.135)">
                <rect x="77.625" y="92.914" width="1122.38" height="607.086"/>
            </g>
            <g transform="matrix(0.918888,0,0,0.615665,13.0028,105.915)">
                <rect x="77.625" y="92.914" width="1122.38" height="607.086" style="fill:rgb(41,41,41);"/>
            </g>
            <g>
                <g transform="matrix(8.75113,0,0,9.11442,-1999.23,-3594.53)">
                    <path d="M278.777,440.752L280.177,440.752C280.575,440.752 280.774,440.937 280.774,441.306L280.774,443.11C280.774,443.479 280.575,443.663 280.177,443.663L278.777,443.663C278.379,443.663 278.18,443.479 278.18,443.11L278.18,441.306C278.18,440.937 278.379,440.752 278.777,440.752ZM275.967,437.614L277.366,437.614C277.764,437.614 277.963,437.799 277.963,438.168L277.963,439.971C277.963,440.341 277.764,440.525 277.366,440.525L275.967,440.525C275.568,440.525 275.369,440.341 275.369,439.971L275.369,438.168C275.369,437.799 275.568,437.614 275.967,437.614ZM275.967,434.476L277.366,434.476C277.764,434.476 277.963,434.661 277.963,435.03L277.963,436.819C277.963,437.188 277.764,437.373 277.366,437.373L275.967,437.373C275.568,437.373 275.369,437.188 275.369,436.819L275.369,435.03C275.369,434.661 275.568,434.476 275.967,434.476ZM275.967,431.324L277.366,431.324C277.764,431.324 277.963,431.508 277.963,431.877L277.963,433.681C277.963,434.05 277.764,434.235 277.366,434.235L275.967,434.235C275.568,434.235 275.369,434.05 275.369,433.681L275.369,431.877C275.369,431.508 275.568,431.324 275.967,431.324ZM275.967,428.185L277.366,428.185C277.764,428.185 277.963,428.37 277.963,428.739L277.963,430.543C277.963,430.912 277.764,431.096 277.366,431.096L275.967,431.096C275.568,431.096 275.369,430.912 275.369,430.543L275.369,428.739C275.369,428.37 275.568,428.185 275.967,428.185ZM275.967,425.033L277.366,425.033C277.764,425.033 277.963,425.217 277.963,425.587L277.963,427.39C277.963,427.759 277.764,427.944 277.366,427.944L275.967,427.944C275.568,427.944 275.369,427.759 275.369,427.39L275.369,425.587C275.369,425.217 275.568,425.033 275.967,425.033ZM278.777,421.895L280.177,421.895C280.575,421.895 280.774,422.079 280.774,422.448L280.774,424.252C280.774,424.621 280.575,424.806 280.177,424.806L278.777,424.806C278.379,424.806 278.18,424.621 278.18,424.252L278.18,422.448C278.18,422.079 278.379,421.895 278.777,421.895Z" style="fill:rgb(197,249,70);fill-rule:nonzero;"/>
                </g>
                <g transform="matrix(8.75113,0,0,9.11442,-1999.23,-3580.23)">
                    <path d="M301.939,421.895L303.351,421.895C303.749,421.895 303.949,422.079 303.949,422.448L303.949,424.252C303.949,424.621 303.749,424.806 303.351,424.806L301.939,424.806C301.54,424.806 301.341,424.621 301.341,424.252L301.341,422.448C301.341,422.079 301.54,421.895 301.939,421.895ZM301.939,425.033L303.351,425.033C303.749,425.033 303.949,425.217 303.949,425.587L303.949,427.39C303.949,427.759 303.749,427.944 303.351,427.944L301.939,427.944C301.54,427.944 301.341,427.759 301.341,427.39L301.341,425.587C301.341,425.217 301.54,425.033 301.939,425.033ZM301.939,428.185L303.351,428.185C303.749,428.185 303.949,428.37 303.949,428.739L303.949,430.543C303.949,430.912 303.749,431.096 303.351,431.096L301.939,431.096C301.54,431.096 301.341,430.912 301.341,430.543L301.341,428.739C301.341,428.37 301.54,428.185 301.939,428.185ZM301.939,431.324L303.351,431.324C303.749,431.324 303.949,431.508 303.949,431.877L303.949,433.681C303.949,434.05 303.749,434.235 303.351,434.235L301.939,434.235C301.54,434.235 301.341,434.05 301.341,433.681L301.341,431.877C301.341,431.508 301.54,431.324 301.939,431.324ZM301.939,434.476L303.351,434.476C303.749,434.476 303.949,434.661 303.949,435.03L303.949,436.819C303.949,437.188 303.749,437.373 303.351,437.373L301.939,437.373C301.54,437.373 301.341,437.188 301.341,436.819L301.341,435.03C301.341,434.661 301.54,434.476 301.939,434.476ZM301.939,437.614L303.351,437.614C303.749,437.614 303.949,437.799 303.949,438.168L303.949,439.971C303.949,440.341 303.749,440.525 303.351,440.525L301.939,440.525C301.54,440.525 301.341,440.341 301.341,439.971L301.341,438.168C301.341,437.799 301.54,437.614 301.939,437.614ZM299.128,418.756L300.527,418.756C300.926,418.756 301.125,418.941 301.125,419.31L301.125,421.099C301.125,421.469 300.926,421.653 300.527,421.653L299.128,421.653C298.729,421.653 298.53,421.469 298.53,421.099L298.53,419.31C298.53,418.941 298.729,418.756 299.128,418.756ZM299.128,440.752L300.527,440.752C300.926,440.752 301.125,440.937 301.125,441.306L301.125,443.11C301.125,443.479 300.926,443.663 300.527,443.663L299.128,443.663C298.729,443.663 298.53,443.479 298.53,443.11L298.53,441.306C298.53,440.937 298.729,440.752 299.128,440.752ZM296.317,418.756L297.716,418.756C298.115,418.756 298.314,418.941 298.314,419.31L298.314,421.099C298.314,421.469 298.115,421.653 297.716,421.653L296.317,421.653C295.919,421.653 295.719,421.469 295.719,421.099L295.719,419.31C295.719,418.941 295.919,418.756 296.317,418.756ZM296.317,440.752L297.716,440.752C298.115,440.752 298.314,440.937 298.314,441.306L298.314,443.11C298.314,443.479 298.115,443.663 297.716,443.663L296.317,443.663C295.919,443.663 295.719,443.479 295.719,443.11L295.719,441.306C295.719,440.937 295.919,440.752 296.317,440.752ZM293.493,418.756L294.905,418.756C295.304,418.756 295.503,418.941 295.503,419.31L295.503,421.099C295.503,421.469 295.304,421.653 294.905,421.653L293.493,421.653C293.095,421.653 292.896,421.469 292.896,421.099L292.896,419.31C292.896,418.941 293.095,418.756 293.493,418.756ZM293.493,440.752L294.905,440.752C295.304,440.752 295.503,440.937 295.503,441.306L295.503,443.11C295.503,443.479 295.304,443.663 294.905,443.663L293.493,443.663C293.095,443.663 292.896,443.479 292.896,443.11L292.896,441.306C292.896,440.937 293.095,440.752 293.493,440.752ZM290.683,421.895L292.082,421.895C292.48,421.895 292.679,422.079 292.679,422.448L292.679,424.252C292.679,424.621 292.48,424.806 292.082,424.806L290.683,424.806C290.284,424.806 290.085,424.621 290.085,424.252L290.085,422.448C290.085,422.079 290.284,421.895 290.683,421.895ZM290.683,425.033L292.082,425.033C292.48,425.033 292.679,425.217 292.679,425.587L292.679,427.39C292.679,427.759 292.48,427.944 292.082,427.944L290.683,427.944C290.284,427.944 290.085,427.759 290.085,427.39L290.085,425.587C290.085,425.217 290.284,425.033 290.683,425.033ZM290.683,428.185L292.082,428.185C292.48,428.185 292.679,428.37 292.679,428.739L292.679,430.543C292.679,430.912 292.48,431.096 292.082,431.096L290.683,431.096C290.284,431.096 290.085,430.912 290.085,430.543L290.085,428.739C290.085,428.37 290.284,428.185 290.683,428.185ZM290.683,431.324L292.082,431.324C292.48,431.324 292.679,431.508 292.679,431.877L292.679,433.681C292.679,434.05 292.48,434.235 292.082,434.235L290.683,434.235C290.284,434.235 290.085,434.05 290.085,433.681L290.085,431.877C290.085,431.508 290.284,431.324 290.683,431.324ZM290.683,434.476L292.082,434.476C292.48,434.476 292.679,434.661 292.679,435.03L292.679,436.819C292.679,437.188 292.48,437.373 292.082,437.373L290.683,437.373C290.284,437.373 290.085,437.188 290.085,436.819L290.085,435.03C290.085,434.661 290.284,434.476 290.683,434.476ZM290.683,437.614L292.082,437.614C292.48,437.614 292.679,437.799 292.679,438.168L292.679,439.971C292.679,440.341 292.48,440.525 292.082,440.525L290.683,440.525C290.284,440.525 290.085,440.341 290.085,439.971L290.085,438.168C290.085,437.799 290.284,437.614 290.683,437.614Z" style="fill:rgb(197,249,70);fill-rule:nonzero;"/>
                </g>
                <g transform="matrix(8.75113,0,0,9.11442,-1999.23,-3594.53)">
                    <path d="M313.844,421.895L315.256,421.895C315.654,421.895 315.854,422.079 315.854,422.448L315.854,424.252C315.854,424.621 315.654,424.806 315.256,424.806L313.844,424.806C313.445,424.806 313.246,424.621 313.246,424.252L313.246,422.448C313.246,422.079 313.445,421.895 313.844,421.895ZM316.668,425.033L318.067,425.033C318.465,425.033 318.665,425.217 318.665,425.587L318.665,427.39C318.665,427.759 318.465,427.944 318.067,427.944L316.668,427.944C316.269,427.944 316.07,427.759 316.07,427.39L316.07,425.587C316.07,425.217 316.269,425.033 316.668,425.033ZM316.668,428.185L318.067,428.185C318.465,428.185 318.665,428.37 318.665,428.739L318.665,430.543C318.665,430.912 318.465,431.096 318.067,431.096L316.668,431.096C316.269,431.096 316.07,430.912 316.07,430.543L316.07,428.739C316.07,428.37 316.269,428.185 316.668,428.185ZM316.668,431.324L318.067,431.324C318.465,431.324 318.665,431.508 318.665,431.877L318.665,433.681C318.665,434.05 318.465,434.235 318.067,434.235L316.668,434.235C316.269,434.235 316.07,434.05 316.07,433.681L316.07,431.877C316.07,431.508 316.269,431.324 316.668,431.324ZM316.668,434.476L318.067,434.476C318.465,434.476 318.665,434.661 318.665,435.03L318.665,436.819C318.665,437.188 318.465,437.373 318.067,437.373L316.668,437.373C316.269,437.373 316.07,437.188 316.07,436.819L316.07,435.03C316.07,434.661 316.269,434.476 316.668,434.476ZM316.668,437.614L318.067,437.614C318.465,437.614 318.665,437.799 318.665,438.168L318.665,439.971C318.665,440.341 318.465,440.525 318.067,440.525L316.668,440.525C316.269,440.525 316.07,440.341 316.07,439.971L316.07,438.168C316.07,437.799 316.269,437.614 316.668,437.614ZM313.844,440.752L315.256,440.752C315.654,440.752 315.854,440.937 315.854,441.306L315.854,443.11C315.854,443.479 315.654,443.663 315.256,443.663L313.844,443.663C313.445,443.663 313.246,443.479 313.246,443.11L313.246,441.306C313.246,440.937 313.445,440.752 313.844,440.752Z" style="fill:rgb(197,249,70);fill-rule:nonzero;"/>
                </g>
            </g>
        </g>
    </g>
</svg>
