<?xml version="1.0" encoding="UTF-8" standalone="no"?>
<!DOCTYPE svg PUBLIC "-//W3C//DTD SVG 1.1//EN" "http://www.w3.org/Graphics/SVG/1.1/DTD/svg11.dtd">
<svg width="100%" height="100%" viewBox="0 0 1200 700" version="1.1" xmlns="http://www.w3.org/2000/svg" xmlns:xlink="http://www.w3.org/1999/xlink" xml:space="preserve" xmlns:serif="http://www.serif.com/" style="fill-rule:evenodd;clip-rule:evenodd;stroke-linejoin:round;stroke-miterlimit:2;">
    <rect id="Монтажная-область1" serif:id="Монтажная область1" x="0" y="0" width="1200" height="700" style="fill:none;"/>
    <g id="Монтажная-область11" serif:id="Монтажная область1">
        <g transform="matrix(1.06916,0,0,1.15305,-82.9937,-107.135)">
            <rect x="77.625" y="92.914" width="1122.38" height="607.086"/>
        </g>
        <g transform="matrix(0.918888,0,0,0.615665,13.0028,105.915)">
            <rect x="77.625" y="92.914" width="1122.38" height="607.086" style="fill:rgb(41,41,41);"/>
        </g>
        <g transform="matrix(1,0,0,1,0,5.15906)">
            <g transform="matrix(2.60551,0,0,2.71367,57.2044,-927.046)">
                <path d="M152.785,441.389L157.867,441.389C159.302,441.389 160.019,442.053 160.019,443.382L160.019,449.875C160.019,451.204 159.302,451.868 157.867,451.868L152.785,451.868C151.35,451.868 150.633,451.204 150.633,449.875L150.633,443.382C150.633,442.053 151.35,441.389 152.785,441.389ZM152.785,486.681L157.867,486.681C159.302,486.681 160.019,487.346 160.019,488.675L160.019,495.167C160.019,496.497 159.302,497.161 157.867,497.161L152.785,497.161C151.35,497.161 150.633,496.497 150.633,495.167L150.633,488.675C150.633,487.346 151.35,486.681 152.785,486.681ZM142.665,452.737L147.702,452.737C149.137,452.737 149.854,453.402 149.854,454.731L149.854,461.223C149.854,462.552 149.137,463.217 147.702,463.217L142.665,463.217C141.231,463.217 140.513,462.552 140.513,461.223L140.513,454.731C140.513,453.402 141.231,452.737 142.665,452.737ZM142.665,475.384L147.702,475.384C149.137,475.384 149.854,476.048 149.854,477.377L149.854,483.819C149.854,485.148 149.137,485.812 147.702,485.812L142.665,485.812C141.231,485.812 140.513,485.148 140.513,483.819L140.513,477.377C140.513,476.048 141.231,475.384 142.665,475.384ZM132.546,441.389L137.583,441.389C139.018,441.389 139.735,442.053 139.735,443.382L139.735,449.875C139.735,451.204 139.018,451.868 137.583,451.868L132.546,451.868C131.111,451.868 130.394,451.204 130.394,449.875L130.394,443.382C130.394,442.053 131.111,441.389 132.546,441.389ZM132.546,452.737L137.583,452.737C139.018,452.737 139.735,453.402 139.735,454.731L139.735,461.223C139.735,462.552 139.018,463.217 137.583,463.217L132.546,463.217C131.111,463.217 130.394,462.552 130.394,461.223L130.394,454.731C130.394,453.402 131.111,452.737 132.546,452.737ZM132.546,464.035L137.583,464.035C139.018,464.035 139.735,464.7 139.735,466.029L139.735,472.521C139.735,473.85 139.018,474.515 137.583,474.515L132.546,474.515C131.111,474.515 130.394,473.85 130.394,472.521L130.394,466.029C130.394,464.7 131.111,464.035 132.546,464.035ZM132.546,475.384L137.583,475.384C139.018,475.384 139.735,476.048 139.735,477.377L139.735,483.819C139.735,485.148 139.018,485.812 137.583,485.812L132.546,485.812C131.111,485.812 130.394,485.148 130.394,483.819L130.394,477.377C130.394,476.048 131.111,475.384 132.546,475.384ZM132.546,486.681L137.583,486.681C139.018,486.681 139.735,487.346 139.735,488.675L139.735,495.167C139.735,496.497 139.018,497.161 137.583,497.161L132.546,497.161C131.111,497.161 130.394,496.497 130.394,495.167L130.394,488.675C130.394,487.346 131.111,486.681 132.546,486.681ZM122.381,452.737L127.463,452.737C128.898,452.737 129.616,453.402 129.616,454.731L129.616,461.223C129.616,462.552 128.898,463.217 127.463,463.217L122.381,463.217C120.946,463.217 120.229,462.552 120.229,461.223L120.229,454.731C120.229,453.402 120.946,452.737 122.381,452.737ZM122.381,475.384L127.463,475.384C128.898,475.384 129.616,476.048 129.616,477.377L129.616,483.819C129.616,485.148 128.898,485.812 127.463,485.812L122.381,485.812C120.946,485.812 120.229,485.148 120.229,483.819L120.229,477.377C120.229,476.048 120.946,475.384 122.381,475.384ZM112.262,441.389L117.298,441.389C118.733,441.389 119.45,442.053 119.45,443.382L119.45,449.875C119.45,451.204 118.733,451.868 117.298,451.868L112.262,451.868C110.827,451.868 110.11,451.204 110.11,449.875L110.11,443.382C110.11,442.053 110.827,441.389 112.262,441.389ZM112.262,486.681L117.298,486.681C118.733,486.681 119.45,487.346 119.45,488.675L119.45,495.167C119.45,496.497 118.733,497.161 117.298,497.161L112.262,497.161C110.827,497.161 110.11,496.497 110.11,495.167L110.11,488.675C110.11,487.346 110.827,486.681 112.262,486.681Z" style="fill:rgb(197,249,70);fill-rule:nonzero;"/>
            </g>
            <g transform="matrix(2.60551,0,0,2.71367,44.0215,-928.156)">
                <path d="M215.927,486.681L220.964,486.681C222.399,486.681 223.116,487.346 223.116,488.675L223.116,495.167C223.116,496.497 222.399,497.161 220.964,497.161L215.927,497.161C214.493,497.161 213.775,496.497 213.775,495.167L213.775,488.675C213.775,487.346 214.493,486.681 215.927,486.681ZM215.927,497.979L220.964,497.979C222.399,497.979 223.116,498.644 223.116,499.973L223.116,506.465C223.116,507.794 222.399,508.459 220.964,508.459L215.927,508.459C214.493,508.459 213.775,507.794 213.775,506.465L213.775,499.973C213.775,498.644 214.493,497.979 215.927,497.979ZM205.808,486.681L210.845,486.681C212.279,486.681 212.997,487.346 212.997,488.675L212.997,495.167C212.997,496.497 212.279,497.161 210.845,497.161L205.808,497.161C204.373,497.161 203.656,496.497 203.656,495.167L203.656,488.675C203.656,487.346 204.373,486.681 205.808,486.681ZM205.808,497.979L210.845,497.979C212.279,497.979 212.997,498.644 212.997,499.973L212.997,506.465C212.997,507.794 212.279,508.459 210.845,508.459L205.808,508.459C204.373,508.459 203.656,507.794 203.656,506.465L203.656,499.973C203.656,498.644 204.373,497.979 205.808,497.979Z" style="fill:rgb(197,249,70);fill-rule:nonzero;"/>
            </g>
            <g transform="matrix(2.60551,0,0,2.71367,57.2044,-927.046)">
                <path d="M299.309,441.389L304.391,441.389C305.826,441.389 306.543,442.053 306.543,443.382L306.543,449.875C306.543,451.204 305.826,451.868 304.391,451.868L299.309,451.868C297.874,451.868 297.157,451.204 297.157,449.875L297.157,443.382C297.157,442.053 297.874,441.389 299.309,441.389ZM299.309,486.681L304.391,486.681C305.826,486.681 306.543,487.346 306.543,488.675L306.543,495.167C306.543,496.497 305.826,497.161 304.391,497.161L299.309,497.161C297.874,497.161 297.157,496.497 297.157,495.167L297.157,488.675C297.157,487.346 297.874,486.681 299.309,486.681ZM289.189,452.737L294.226,452.737C295.661,452.737 296.378,453.402 296.378,454.731L296.378,461.223C296.378,462.552 295.661,463.217 294.226,463.217L289.189,463.217C287.755,463.217 287.037,462.552 287.037,461.223L287.037,454.731C287.037,453.402 287.755,452.737 289.189,452.737ZM289.189,475.384L294.226,475.384C295.661,475.384 296.378,476.048 296.378,477.377L296.378,483.819C296.378,485.148 295.661,485.812 294.226,485.812L289.189,485.812C287.755,485.812 287.037,485.148 287.037,483.819L287.037,477.377C287.037,476.048 287.755,475.384 289.189,475.384ZM279.07,441.389L284.107,441.389C285.541,441.389 286.259,442.053 286.259,443.382L286.259,449.875C286.259,451.204 285.541,451.868 284.107,451.868L279.07,451.868C277.635,451.868 276.918,451.204 276.918,449.875L276.918,443.382C276.918,442.053 277.635,441.389 279.07,441.389ZM279.07,452.737L284.107,452.737C285.541,452.737 286.259,453.402 286.259,454.731L286.259,461.223C286.259,462.552 285.541,463.217 284.107,463.217L279.07,463.217C277.635,463.217 276.918,462.552 276.918,461.223L276.918,454.731C276.918,453.402 277.635,452.737 279.07,452.737ZM279.07,464.035L284.107,464.035C285.541,464.035 286.259,464.7 286.259,466.029L286.259,472.521C286.259,473.85 285.541,474.515 284.107,474.515L279.07,474.515C277.635,474.515 276.918,473.85 276.918,472.521L276.918,466.029C276.918,464.7 277.635,464.035 279.07,464.035ZM279.07,475.384L284.107,475.384C285.541,475.384 286.259,476.048 286.259,477.377L286.259,483.819C286.259,485.148 285.541,485.812 284.107,485.812L279.07,485.812C277.635,485.812 276.918,485.148 276.918,483.819L276.918,477.377C276.918,476.048 277.635,475.384 279.07,475.384ZM279.07,486.681L284.107,486.681C285.541,486.681 286.259,487.346 286.259,488.675L286.259,495.167C286.259,496.497 285.541,497.161 284.107,497.161L279.07,497.161C277.635,497.161 276.918,496.497 276.918,495.167L276.918,488.675C276.918,487.346 277.635,486.681 279.07,486.681ZM268.905,452.737L273.987,452.737C275.422,452.737 276.14,453.402 276.14,454.731L276.14,461.223C276.14,462.552 275.422,463.217 273.987,463.217L268.905,463.217C267.47,463.217 266.753,462.552 266.753,461.223L266.753,454.731C266.753,453.402 267.47,452.737 268.905,452.737ZM268.905,475.384L273.987,475.384C275.422,475.384 276.14,476.048 276.14,477.377L276.14,483.819C276.14,485.148 275.422,485.812 273.987,485.812L268.905,485.812C267.47,485.812 266.753,485.148 266.753,483.819L266.753,477.377C266.753,476.048 267.47,475.384 268.905,475.384ZM258.786,441.389L263.822,441.389C265.257,441.389 265.974,442.053 265.974,443.382L265.974,449.875C265.974,451.204 265.257,451.868 263.822,451.868L258.786,451.868C257.351,451.868 256.634,451.204 256.634,449.875L256.634,443.382C256.634,442.053 257.351,441.389 258.786,441.389ZM258.786,486.681L263.822,486.681C265.257,486.681 265.974,487.346 265.974,488.675L265.974,495.167C265.974,496.497 265.257,497.161 263.822,497.161L258.786,497.161C257.351,497.161 256.634,496.497 256.634,495.167L256.634,488.675C256.634,487.346 257.351,486.681 258.786,486.681Z" style="fill:rgb(197,249,70);fill-rule:nonzero;"/>
            </g>
        </g>
    </g>
</svg>
