<?xml version="1.0" encoding="UTF-8" standalone="no"?>
<!DOCTYPE svg PUBLIC "-//W3C//DTD SVG 1.1//EN" "http://www.w3.org/Graphics/SVG/1.1/DTD/svg11.dtd">
<svg width="100%" height="100%" viewBox="0 0 512 512" version="1.1" xmlns="http://www.w3.org/2000/svg" xmlns:xlink="http://www.w3.org/1999/xlink" xml:space="preserve" xmlns:serif="http://www.serif.com/" style="fill-rule:evenodd;clip-rule:evenodd;stroke-linejoin:round;stroke-miterlimit:2;">
    <g transform="matrix(1,0,0,1,-576.852,-671.555)">
        <g id="dialogs-widgets-cafe-icon" transform="matrix(1,0,0,1,576.852,671.555)">
            <rect x="0" y="0" width="512" height="512" style="fill:none;"/>
            <clipPath id="_clip1">
                <rect x="0" y="0" width="512" height="512"/>
            </clipPath>
            <g clip-path="url(#_clip1)">
                <g transform="matrix(1.17897,0,0,1.17897,-44.4281,-757.795)">
                    <path d="M471.96,751.327C471.96,691.406 423.312,642.758 363.391,642.758L146.253,642.758C86.332,642.758 37.684,691.406 37.684,751.327L37.684,968.465C37.684,1028.39 86.332,1077.03 146.253,1077.03L363.391,1077.03C423.312,1077.03 471.96,1028.39 471.96,968.465L471.96,751.327Z"/>
                </g>
                <g transform="matrix(5.55755,0,0,5.55755,-21.8777,-30.2701)">
                    <path d="M77.45,43.14L77.45,50.98L75.49,50.98L75.49,54.9L69.61,54.9L69.61,50.98L67.65,50.98L67.65,49.02L71.57,49.02L71.57,43.14L77.45,43.14L77.45,39.22L71.57,39.22L71.57,41.18L67.65,41.18L67.65,37.26L26.47,37.26L26.47,41.18L22.55,41.18L22.55,49.02L24.51,49.02L24.51,56.86L28.43,56.86L28.43,60.79L32.35,60.79L32.35,64.71L36.27,64.71L36.27,68.63L59.8,68.63L59.8,64.71L63.73,64.71L63.73,60.79L67.65,60.79L67.65,56.86L69.61,56.86L69.61,58.82L77.45,58.82L77.45,54.9L79.41,54.9L79.41,50.98L81.37,50.98L81.37,43.14L77.45,43.14ZM34.31,58.82L34.31,54.9L32.35,54.9L32.35,50.98L30.39,50.98L30.39,43.14L32.35,43.14L32.35,50.98L34.31,50.98L34.31,54.9L36.27,54.9L36.27,58.82L38.23,58.82L38.23,60.79L36.27,60.79L36.27,58.82L34.31,58.82Z" style="fill:rgb(197,249,70);fill-rule:nonzero;"/>
                    <path d="M79.41,70.59L18.63,70.59L18.63,74.51L20.59,74.51L20.59,76.47L24.51,76.47L24.51,78.43L28.43,78.43L28.43,80.39L34.31,80.39L34.31,82.35L63.73,82.35L63.73,80.39L69.61,80.39L69.61,78.43L73.53,78.43L73.53,76.47L77.45,76.47L77.45,74.51L79.41,74.51L79.41,70.59ZM24.51,72.55L26.47,72.55L26.47,74.51L24.51,74.51L24.51,72.55ZM32.35,78.43L32.35,76.47L28.43,76.47L28.43,74.51L32.35,74.51L32.35,76.47L38.23,76.47L38.23,78.43L32.35,78.43Z" style="fill:rgb(197,249,70);fill-rule:nonzero;"/>
                    <rect x="51.96" y="19.61" width="1.96" height="1.96" style="fill:rgb(197,249,70);"/>
                    <path d="M51.96,25.49L51.96,21.57L50,21.57L50,25.49L51.96,25.49Z" style="fill:rgb(197,249,70);fill-rule:nonzero;"/>
                    <rect x="48.04" y="25.49" width="1.96" height="1.96" style="fill:rgb(197,249,70);"/>
                    <rect x="46.08" y="33.33" width="1.96" height="1.96" style="fill:rgb(197,249,70);"/>
                    <rect x="46.08" y="27.45" width="1.96" height="1.96" style="fill:rgb(197,249,70);"/>
                    <path d="M46.08,29.41L44.12,29.41L44.12,33.33L46.08,33.33L46.08,29.41Z" style="fill:rgb(197,249,70);fill-rule:nonzero;"/>
                    <path d="M46.08,19.61L46.08,17.65L42.16,17.65L42.16,19.61L46.08,19.61Z" style="fill:rgb(197,249,70);fill-rule:nonzero;"/>
                    <rect x="40.2" y="33.33" width="1.96" height="1.96" style="fill:rgb(197,249,70);"/>
                    <path d="M42.16,23.53L42.16,19.61L40.2,19.61L40.2,23.53L42.16,23.53Z" style="fill:rgb(197,249,70);fill-rule:nonzero;"/>
                    <path d="M38.23,33.33L40.2,33.33L40.2,29.41L38.23,29.41L38.23,33.33Z" style="fill:rgb(197,249,70);fill-rule:nonzero;"/>
                    <rect x="38.23" y="23.53" width="1.97" height="1.96" style="fill:rgb(197,249,70);"/>
                    <path d="M38.23,25.49L36.27,25.49L36.27,29.41L38.23,29.41L38.23,25.49Z" style="fill:rgb(197,249,70);fill-rule:nonzero;"/>
                </g>
            </g>
        </g>
    </g>
</svg>
