<?xml version="1.0" encoding="UTF-8" standalone="no"?>
<!DOCTYPE svg PUBLIC "-//W3C//DTD SVG 1.1//EN" "http://www.w3.org/Graphics/SVG/1.1/DTD/svg11.dtd">
<svg width="100%" height="100%" viewBox="0 0 512 512" version="1.1" xmlns="http://www.w3.org/2000/svg" xmlns:xlink="http://www.w3.org/1999/xlink" xml:space="preserve" xmlns:serif="http://www.serif.com/" style="fill-rule:evenodd;clip-rule:evenodd;stroke-linejoin:round;stroke-miterlimit:2;">
    <g transform="matrix(1,0,0,1,0,-671.555)">
        <g id="dialogs-widgets-fitness-icon" transform="matrix(1,0,0,1,0,671.555)">
            <rect x="0" y="0" width="512" height="512" style="fill:none;"/>
            <g transform="matrix(1.17897,0,0,1.17897,-44.4281,-757.795)">
                <path d="M471.96,751.327C471.96,691.406 423.312,642.758 363.391,642.758L146.253,642.758C86.332,642.758 37.684,691.406 37.684,751.327L37.684,968.465C37.684,1028.39 86.332,1077.03 146.253,1077.03L363.391,1077.03C423.312,1077.03 471.96,1028.39 471.96,968.465L471.96,751.327Z"/>
            </g>
            <g transform="matrix(1.17897,0,0,1.17897,-45.8173,-45.8173)">
                <g transform="matrix(-4.35318,0,0,4.27962,473.659,42.0189)">
                    <path d="M83.969,57.277L79.118,57.277L79.118,54.851L76.693,54.851L76.693,57.277L74.267,57.277L74.267,59.702L69.404,59.702L69.404,54.851L71.842,54.851L71.842,50L74.267,50L74.267,47.575L76.693,47.575L76.693,42.723L74.267,42.723L74.267,40.298L71.842,40.298L71.842,45.149L69.404,45.149L69.404,47.575L64.553,47.575L64.553,45.149L66.978,45.149L66.978,37.872L64.553,37.872L64.553,35.447L62.127,35.447L62.127,33.021L59.702,33.021L59.702,37.872L62.127,37.872L62.127,40.298L59.702,40.298L59.702,37.872L57.276,37.872L57.276,33.021L59.702,33.021L59.702,28.158L57.276,28.158L57.276,25.733L54.851,25.733L54.851,23.307L52.425,23.307L52.425,20.882L50,20.882L50,28.158L52.425,28.158L52.425,35.447L50,35.447L50,40.298L47.575,40.298L47.575,42.723L45.149,42.723L45.149,45.149L42.724,45.149L42.724,42.723L40.286,42.723L40.286,37.872L42.724,37.872L42.724,33.021L45.149,33.021L45.149,30.584L40.286,30.584L40.286,33.021L37.86,33.021L37.86,35.447L35.435,35.447L35.435,37.872L33.009,37.872L33.009,45.149L35.435,45.149L35.435,47.575L37.86,47.575L37.86,52.426L35.435,52.426L35.435,57.277L33.009,57.277L33.009,54.851L28.158,54.851L28.158,52.426L30.584,52.426L30.584,50L28.158,50L28.158,47.575L25.733,47.575L25.733,45.149L28.158,45.149L28.158,40.298L25.733,40.298L25.733,42.723L23.307,42.723L23.307,50L20.882,50L20.882,57.277L23.307,57.277L23.307,59.702L28.158,59.702L28.158,62.14L30.584,62.14L30.584,64.565L28.158,64.565L28.158,62.14L20.882,62.14L20.882,59.702L18.456,59.702L18.456,64.565L20.882,64.565L20.882,66.991L23.307,66.991L23.307,71.842L25.733,71.842L25.733,74.267L28.158,74.267L28.158,76.693L30.584,76.693L30.584,79.118L35.435,79.118L35.435,81.544L37.86,81.544L37.86,83.969L64.553,83.969L64.553,81.544L66.978,81.544L66.978,79.118L71.842,79.118L71.842,76.693L74.267,76.693L74.267,71.842L76.693,71.842L76.693,69.416L79.118,69.416L79.118,64.565L81.544,64.565L81.544,59.702L83.969,59.702L83.969,57.277ZM33.009,59.702L35.435,59.702L35.435,62.14L40.286,62.14L40.286,64.565L42.724,64.565L42.724,66.991L45.149,66.991L45.149,62.14L42.724,62.14L42.724,59.702L40.286,59.702L40.286,57.277L42.724,57.277L42.724,54.851L45.149,54.851L45.149,57.277L42.724,57.277L42.724,59.702L47.575,59.702L47.575,57.277L50,57.277L50,54.851L52.425,54.851L52.425,45.149L50,45.149L50,42.723L52.425,42.723L52.425,45.149L54.851,45.149L54.851,47.575L57.276,47.575L57.276,50L59.702,50L59.702,54.851L57.276,54.851L57.276,59.702L54.851,59.702L54.851,62.14L57.276,62.14L57.276,64.565L59.702,64.565L59.702,59.702L62.127,59.702L62.127,57.277L64.553,57.277L64.553,59.702L62.127,59.702L62.127,64.565L59.702,64.565L59.702,66.991L64.553,66.991L64.553,64.565L66.978,64.565L66.978,66.991L64.553,66.991L64.553,71.842L62.127,71.842L62.127,74.267L59.702,74.267L59.702,76.693L42.724,76.693L42.724,74.267L40.286,74.267L40.286,71.842L37.86,71.842L37.86,66.991L35.435,66.991L35.435,62.14L33.009,62.14L33.009,59.702Z" style="fill:rgb(197,249,70);fill-rule:nonzero;"/>
                </g>
                <g transform="matrix(-4.35318,0,0,4.27962,473.659,42.0189)">
                    <rect x="79.118" y="52.426" width="2.425" height="2.425" style="fill:rgb(197,249,70);"/>
                </g>
                <g transform="matrix(-4.35318,0,0,4.27962,473.659,42.0189)">
                    <path d="M71.842,35.447L69.404,35.447L69.404,40.298L71.842,40.298L71.842,35.447Z" style="fill:rgb(197,249,70);fill-rule:nonzero;"/>
                </g>
                <g transform="matrix(-4.35318,0,0,4.27962,473.659,42.0189)">
                    <path d="M50,16.031L47.575,16.031L47.575,20.882L50,20.882L50,16.031Z" style="fill:rgb(197,249,70);fill-rule:nonzero;"/>
                </g>
                <g transform="matrix(-4.35318,0,0,4.27962,473.659,42.0189)">
                    <rect x="37.86" y="25.733" width="2.425" height="2.425" style="fill:rgb(197,249,70);"/>
                </g>
                <g transform="matrix(-4.35318,0,0,4.27962,473.659,42.0189)">
                    <rect x="23.307" y="37.872" width="2.425" height="2.426" style="fill:rgb(197,249,70);"/>
                </g>
                <g transform="matrix(-4.35318,0,0,4.27962,473.659,42.0189)">
                    <rect x="16.031" y="57.277" width="2.426" height="2.425" style="fill:rgb(197,249,70);"/>
                </g>
            </g>
        </g>
    </g>
</svg>
