<?xml version="1.0" encoding="UTF-8" standalone="no"?>
<!DOCTYPE svg PUBLIC "-//W3C//DTD SVG 1.1//EN" "http://www.w3.org/Graphics/SVG/1.1/DTD/svg11.dtd">
<svg width="100%" height="100%" viewBox="0 0 1080 1080" version="1.1" xmlns="http://www.w3.org/2000/svg" xmlns:xlink="http://www.w3.org/1999/xlink" xml:space="preserve" xmlns:serif="http://www.serif.com/" style="fill-rule:evenodd;clip-rule:evenodd;stroke-linejoin:round;stroke-miterlimit:2;">
    <g transform="matrix(1,0,0,1,-6595.58,-2556.86)">
        <g id="Монтажная-область1" serif:id="Монтажная область1" transform="matrix(1,0,0,1,6595.58,2556.86)">
            <rect x="0" y="0" width="1080" height="1080" style="fill:none;"/>
            <clipPath id="_clip1">
                <rect x="0" y="0" width="1080" height="1080"/>
            </clipPath>
            <g clip-path="url(#_clip1)">
                <g transform="matrix(2.39881,0,0,2.39881,-6405.49,-7044.03)">
                    <path d="M2845.46,3234.6C2847.14,3229.07 2846.1,3223.06 2842.66,3218.41C2839.21,3213.76 2833.77,3211.02 2827.98,3211.02C2802.54,3211.02 2766.54,3211.02 2766.54,3211.02C2755.52,3211.02 2746.34,3204.59 2741.75,3195.41C2709.62,3129.32 2692.18,3047.62 2689.43,2965C2688.51,2949.39 2701.36,2936.54 2716.97,2936.54L3068.56,2936.54C3080.49,2935.62 3090.59,2943.88 3094.26,2954.9C3122.72,3038.44 3062.13,3116.47 2983.18,3119.22C2980.43,3119.22 2977.68,3121.06 2976.76,3122.89C2975.18,3126.06 2972.95,3130.66 2970.25,3136.18C2968.32,3140.11 2968.55,3144.76 2970.86,3148.47C2973.18,3152.19 2977.24,3154.45 2981.62,3154.45C2995.2,3154.45 3010.55,3154.45 3010.55,3154.45C3019.29,3154.45 3026.78,3159.48 3030.09,3167.58L3030.12,3167.55C3033.38,3175.53 3031.48,3184.59 3025.32,3190.61L2828.83,3382.53C2826,3385.29 2822.41,3386.69 2818.76,3386.69C2816.19,3386.69 2813.57,3385.99 2811.19,3384.55C2805.46,3381.07 2802.91,3374.4 2804.86,3367.97C2804.86,3367.97 2832.12,3278.42 2845.46,3234.6ZM3053.87,3014.57C3058.46,2997.13 3044.69,2981.52 3027.25,2981.52L3019.9,2981.52C3004.3,2981.52 2992.36,2992.54 2991.45,3006.31C2989.61,3024.67 2986.86,3043.03 2984.1,3061.39C2983.18,3067.81 2988.69,3073.32 2994.2,3072.4C3023.58,3065.98 3046.53,3043.95 3053.87,3014.57Z" style="fill:rgb(197,249,70);fill-rule:nonzero;"/>
                </g>
            </g>
        </g>
    </g>
</svg>
