<?xml version="1.0" encoding="UTF-8" standalone="no"?>
<!DOCTYPE svg PUBLIC "-//W3C//DTD SVG 1.1//EN" "http://www.w3.org/Graphics/SVG/1.1/DTD/svg11.dtd">
<svg width="100%" height="100%" viewBox="0 0 1080 1080" version="1.1" xmlns="http://www.w3.org/2000/svg" xmlns:xlink="http://www.w3.org/1999/xlink" xml:space="preserve" xmlns:serif="http://www.serif.com/" style="fill-rule:evenodd;clip-rule:evenodd;stroke-linejoin:round;stroke-miterlimit:2;">
    <g transform="matrix(1,0,0,1,-6031.49,-9453.8)">
        <g id="Монтажная-область1" serif:id="Монтажная область1" transform="matrix(1,0,0,1,6031.49,9453.8)">
            <rect x="0" y="0" width="1080" height="1080" style="fill:rgb(35,34,37);"/>
            <clipPath id="_clip1">
                <rect x="0" y="0" width="1080" height="1080"/>
            </clipPath>
            <g clip-path="url(#_clip1)">
                <g transform="matrix(1,0,0,1.03049,-6031.49,-9775)">
                    <rect x="6031.49" y="9485.76" width="1080" height="1048.04" style="fill:rgb(35,34,37);"/>
                </g>
                <g transform="matrix(0.740743,0,0,0.770714,136.549,109.791)">
                    <g>
                        <g transform="matrix(1,0,0,0.961115,-6283.96,0)">
                            <path d="M6395.96,37.867L7221.99,37.867C7255.59,37.867 7287.19,53.883 7307.05,80.989C7326.91,108.095 7332.67,143.046 7322.55,175.089C7302.97,237.049 7280.2,309.128 7261.95,366.883C7241.97,430.143 7183.28,473.148 7116.94,473.148L6798.93,473.148L6769.36,568.942L7106.33,568.942C7124.63,571.05 7139.92,582.579 7147.08,600.088L7147.15,600.016C7154.97,619.158 7150.41,638.892 7135.64,653.332L6664.3,1113.71C6657.51,1120.33 6648.89,1123.69 6640.14,1123.69C6633.97,1123.69 6627.69,1122.01 6621.98,1118.56C6608.24,1110.21 6602.12,1094.21 6606.8,1078.79C6606.8,1078.79 6672.19,875.972 6704.19,770.856C6708.22,757.591 6705.72,743.174 6697.47,732.019C6689.19,720.865 6676.15,714.292 6662.26,714.292L6514.87,714.292C6488.44,714.292 6466.42,698.868 6455.41,676.847C6446.01,657.521 6437.14,637.371 6428.79,616.528L6738.78,616.528C6747.78,616.528 6755.76,610.725 6758.54,602.157C6763.08,588.148 6769.31,568.942 6769.31,568.942L6411.04,568.942C6400.28,537.941 6390.58,505.727 6381.93,472.679L6799.69,472.679L6808.97,443.282C6809.03,439.547 6807.89,435.841 6805.64,432.746C6802.36,428.232 6797.12,425.561 6791.54,425.561L6370.45,425.561C6366.83,409.618 6363.46,393.519 6360.31,377.309L7115.14,377.354C7143.23,377.354 7168.08,359.145 7176.54,332.361C7187.9,296.411 7204.02,245.38 7217.08,204.042C7222.27,187.617 7219.32,169.702 7209.14,155.808C7198.96,141.913 7182.76,133.704 7165.54,133.704L6331.05,133.864C6330.59,124.603 6330.21,115.353 6329.9,106.137C6327.69,68.692 6358.52,37.867 6395.96,37.867Z" style="fill:url(#_Linear2);fill-rule:nonzero;"/>
                        </g>
                        <g transform="matrix(1,0,0,0.961115,-6283.96,0)">
                            <path d="M6338.39,229.498L7084.95,229.498C7091.7,229.498 7098.05,232.715 7102.04,238.16C7106.03,243.604 7107.18,250.625 7105.15,257.061C7100.26,272.546 7094.24,291.595 7089.69,306.011C7085.6,318.937 7073.61,327.724 7060.06,327.724L6351.54,327.724C6346.2,295.221 6341.81,262.389 6338.39,229.498Z" style="fill:url(#_Linear3);"/>
                        </g>
                    </g>
                </g>
            </g>
        </g>
    </g>
    <defs>
        <linearGradient id="_Linear2" x1="0" y1="0" x2="1" y2="0" gradientUnits="userSpaceOnUse" gradientTransform="matrix(-913.615,-330.4,330.401,-913.613,7077.92,699.517)"><stop offset="0" style="stop-color:rgb(197,250,69);stop-opacity:1"/><stop offset="1" style="stop-color:rgb(35,34,37);stop-opacity:0.45"/></linearGradient>
        <linearGradient id="_Linear3" x1="0" y1="0" x2="1" y2="0" gradientUnits="userSpaceOnUse" gradientTransform="matrix(-913.615,-330.4,330.401,-913.613,7077.92,699.517)"><stop offset="0" style="stop-color:rgb(197,250,69);stop-opacity:1"/><stop offset="1" style="stop-color:rgb(35,34,37);stop-opacity:0.45"/></linearGradient>
    </defs>
</svg>
