<?xml version="1.0" encoding="UTF-8" standalone="no"?>
<!DOCTYPE svg PUBLIC "-//W3C//DTD SVG 1.1//EN" "http://www.w3.org/Graphics/SVG/1.1/DTD/svg11.dtd">
<svg width="100%" height="100%" viewBox="0 0 1200 700" version="1.1" xmlns="http://www.w3.org/2000/svg" xmlns:xlink="http://www.w3.org/1999/xlink" xml:space="preserve" xmlns:serif="http://www.serif.com/" style="fill-rule:evenodd;clip-rule:evenodd;stroke-linejoin:round;stroke-miterlimit:2;">
    <g transform="matrix(1,0,0,1,-2742.15,0)">
        <g id="Монтажная-область1" serif:id="Монтажная область1" transform="matrix(1,0,0,1,2742.15,0)">
            <rect x="0" y="0" width="1200" height="700" style="fill:none;"/>
            <clipPath id="_clip1">
                <rect x="0" y="0" width="1200" height="700"/>
            </clipPath>
            <g clip-path="url(#_clip1)">
                <g transform="matrix(1.06916,0,0,1.15305,-82.9937,-107.135)">
                    <rect x="77.625" y="92.914" width="1122.38" height="607.086"/>
                </g>
                <g transform="matrix(0.805631,0,0,0.805631,-9002.62,-2336.75)">
                    <path d="M12084.5,3155.66C12084.5,3154.34 12083.9,3153.08 12083,3152.15C12082.1,3151.22 12080.8,3150.69 12079.5,3150.69L12065,3150.69C12063.7,3150.69 12062.4,3151.22 12061.5,3152.15C12060.6,3153.08 12060,3154.34 12060,3155.66L12060,3170.16C12060,3171.48 12060.6,3172.74 12061.5,3173.67C12062.4,3174.61 12063.7,3175.13 12065,3175.13L12079.5,3175.13C12080.8,3175.13 12082.1,3174.61 12083,3173.67C12083.9,3172.74 12084.5,3171.48 12084.5,3170.16L12084.5,3155.66ZM12145.5,3155.66C12145.5,3154.34 12145,3153.08 12144.1,3152.15C12143.1,3151.22 12141.9,3150.69 12140.6,3150.69L12126.1,3150.69C12124.8,3150.69 12123.5,3151.22 12122.6,3152.15C12121.6,3153.08 12121.1,3154.34 12121.1,3155.66L12121.1,3170.16C12121.1,3171.48 12121.6,3172.74 12122.6,3173.67C12123.5,3174.61 12124.8,3175.13 12126.1,3175.13L12140.6,3175.13C12141.9,3175.13 12143.1,3174.61 12144.1,3173.67C12145,3172.74 12145.5,3171.48 12145.5,3170.16L12145.5,3155.66ZM12115,3155.66C12115,3154.34 12114.5,3153.08 12113.5,3152.15C12112.6,3151.22 12111.4,3150.69 12110,3150.69L12095.5,3150.69C12094.2,3150.69 12093,3151.22 12092,3152.15C12091.1,3153.08 12090.6,3154.34 12090.6,3155.66L12090.6,3170.16C12090.6,3171.48 12091.1,3172.74 12092,3173.67C12093,3174.61 12094.2,3175.13 12095.5,3175.13L12110,3175.13C12111.4,3175.13 12112.6,3174.61 12113.5,3173.67C12114.5,3172.74 12115,3171.48 12115,3170.16L12115,3155.66ZM11718.1,3155.66C11718.1,3154.34 11717.5,3153.08 11716.6,3152.15C11715.7,3151.22 11714.4,3150.69 11713.1,3150.69L11698.6,3150.69C11697.3,3150.69 11696,3151.22 11695.1,3152.15C11694.2,3153.08 11693.6,3154.34 11693.6,3155.66L11693.6,3170.16C11693.6,3171.48 11694.2,3172.74 11695.1,3173.67C11696,3174.61 11697.3,3175.13 11698.6,3175.13L11713.1,3175.13C11714.4,3175.13 11715.7,3174.61 11716.6,3173.67C11717.5,3172.74 11718.1,3171.48 11718.1,3170.16L11718.1,3155.66ZM11748.6,3155.66C11748.6,3154.34 11748.1,3153.08 11747.1,3152.15C11746.2,3151.22 11745,3150.69 11743.6,3150.69L11729.1,3150.69C11727.8,3150.69 11726.6,3151.22 11725.6,3152.15C11724.7,3153.08 11724.2,3154.34 11724.2,3155.66L11724.2,3170.16C11724.2,3171.48 11724.7,3172.74 11725.6,3173.67C11726.6,3174.61 11727.8,3175.13 11729.1,3175.13L11743.6,3175.13C11745,3175.13 11746.2,3174.61 11747.1,3173.67C11748.1,3172.74 11748.6,3171.48 11748.6,3170.16L11748.6,3155.66ZM12176.1,3155.66C12176.1,3154.34 12175.5,3153.08 12174.6,3152.15C12173.7,3151.22 12172.4,3150.69 12171.1,3150.69L12156.6,3150.69C12155.3,3150.69 12154,3151.22 12153.1,3152.15C12152.2,3153.08 12151.6,3154.34 12151.6,3155.66L12151.6,3170.16C12151.6,3171.48 12152.2,3172.74 12153.1,3173.67C12154,3174.61 12155.3,3175.13 12156.6,3175.13L12171.1,3175.13C12172.4,3175.13 12173.7,3174.61 12174.6,3173.67C12175.5,3172.74 12176.1,3171.48 12176.1,3170.16L12176.1,3155.66ZM12053.9,3155.66C12053.9,3154.34 12053.4,3153.08 12052.5,3152.15C12051.6,3151.22 12050.3,3150.69 12049,3150.69L12034.5,3150.69C12033.2,3150.69 12031.9,3151.22 12031,3152.15C12030,3153.08 12029.5,3154.34 12029.5,3155.66L12029.5,3170.16C12029.5,3171.48 12030,3172.74 12031,3173.67C12031.9,3174.61 12033.2,3175.13 12034.5,3175.13L12049,3175.13C12050.3,3175.13 12051.6,3174.61 12052.5,3173.67C12053.4,3172.74 12053.9,3171.48 12053.9,3170.16L12053.9,3155.66ZM11687.5,3155.66C11687.5,3154.34 11687,3153.08 11686.1,3152.15C11685.2,3151.22 11683.9,3150.69 11682.6,3150.69L11668.1,3150.69C11666.8,3150.69 11665.5,3151.22 11664.6,3152.15C11663.6,3153.08 11663.1,3154.34 11663.1,3155.66L11663.1,3170.16C11663.1,3171.48 11663.6,3172.74 11664.6,3173.67C11665.5,3174.61 11666.8,3175.13 11668.1,3175.13L11682.6,3175.13C11683.9,3175.13 11685.2,3174.61 11686.1,3173.67C11687,3172.74 11687.5,3171.48 11687.5,3170.16L11687.5,3155.66ZM12206.6,3155.66C12206.6,3154.34 12206.1,3153.08 12205.1,3152.15C12204.2,3151.22 12203,3150.69 12201.6,3150.69L12187.1,3150.69C12185.8,3150.69 12184.6,3151.22 12183.6,3152.15C12182.7,3153.08 12182.2,3154.34 12182.2,3155.66L12182.2,3170.16C12182.2,3171.48 12182.7,3172.74 12183.6,3173.67C12184.6,3174.61 12185.8,3175.13 12187.1,3175.13L12201.6,3175.13C12203,3175.13 12204.2,3174.61 12205.1,3173.67C12206.1,3172.74 12206.6,3171.48 12206.6,3170.16C12206.6,3165.93 12206.6,3159.89 12206.6,3155.66ZM11718.1,3124.94C11718.1,3123.62 11717.6,3122.36 11716.7,3121.43C11715.8,3120.49 11714.5,3119.97 11713.2,3119.97L11698.7,3119.97C11697.4,3119.97 11696.1,3120.49 11695.2,3121.43C11694.2,3122.36 11693.7,3123.62 11693.7,3124.94L11693.7,3139.44C11693.7,3140.76 11694.2,3142.02 11695.2,3142.95C11696.1,3143.88 11697.4,3144.4 11698.7,3144.4L11713.2,3144.4C11714.5,3144.4 11715.8,3143.88 11716.7,3142.95C11717.6,3142.02 11718.1,3140.76 11718.1,3139.44L11718.1,3124.94ZM11748.7,3124.94C11748.7,3123.62 11748.1,3122.36 11747.2,3121.43C11746.3,3120.49 11745,3119.97 11743.7,3119.97L11729.2,3119.97C11727.9,3119.97 11726.6,3120.49 11725.7,3121.43C11724.8,3122.36 11724.2,3123.62 11724.2,3124.94L11724.2,3139.44C11724.2,3140.76 11724.8,3142.02 11725.7,3142.95C11726.6,3143.88 11727.9,3144.4 11729.2,3144.4L11743.7,3144.4C11745,3144.4 11746.3,3143.88 11747.2,3142.95C11748.1,3142.02 11748.7,3140.76 11748.7,3139.44C11748.7,3135.21 11748.7,3129.16 11748.7,3124.94ZM11687.6,3124.94C11687.6,3123.62 11687.1,3122.36 11686.2,3121.43C11685.2,3120.49 11684,3119.97 11682.6,3119.97L11668.1,3119.97C11666.8,3119.97 11665.6,3120.49 11664.6,3121.43C11663.7,3122.36 11663.2,3123.62 11663.2,3124.94L11663.2,3139.44C11663.2,3140.76 11663.7,3142.02 11664.6,3142.95C11665.6,3143.88 11666.8,3144.4 11668.1,3144.4L11682.6,3144.4C11684,3144.4 11685.2,3143.88 11686.2,3142.95C11687.1,3142.02 11687.6,3140.76 11687.6,3139.44C11687.6,3135.21 11687.6,3129.16 11687.6,3124.94Z" style="fill:rgb(197,249,70);"/>
                </g>
                <g transform="matrix(0.805631,0,0,0.805631,-8903.71,-2331.8)">
                    <path d="M11961.5,3524.34C11961.5,3523.03 11961,3521.76 11960.1,3520.83C11959.1,3519.9 11957.9,3519.38 11956.6,3519.38L11942.1,3519.38C11940.7,3519.38 11939.5,3519.9 11938.6,3520.83C11937.6,3521.76 11937.1,3523.03 11937.1,3524.34L11937.1,3538.85C11937.1,3540.16 11937.6,3541.43 11938.6,3542.36C11939.5,3543.29 11940.7,3543.81 11942.1,3543.81L11956.6,3543.81C11957.9,3543.81 11959.1,3543.29 11960.1,3542.36C11961,3541.43 11961.5,3540.16 11961.5,3538.85L11961.5,3524.34ZM11686.7,3524.34C11686.7,3523.03 11686.2,3521.76 11685.3,3520.83C11684.4,3519.9 11683.1,3519.38 11681.8,3519.38L11667.3,3519.38C11666,3519.38 11664.7,3519.9 11663.8,3520.83C11662.8,3521.76 11662.3,3523.03 11662.3,3524.34L11662.3,3538.85C11662.3,3540.16 11662.8,3541.43 11663.8,3542.36C11664.7,3543.29 11666,3543.81 11667.3,3543.81L11681.8,3543.81C11683.1,3543.81 11684.4,3543.29 11685.3,3542.36C11686.2,3541.43 11686.7,3540.16 11686.7,3538.85L11686.7,3524.34ZM12236.3,3524.34C12236.3,3523.03 12235.8,3521.76 12234.9,3520.83C12233.9,3519.9 12232.7,3519.38 12231.4,3519.38L12216.9,3519.38C12215.5,3519.38 12214.3,3519.9 12213.4,3520.83C12212.4,3521.76 12211.9,3523.03 12211.9,3524.34L12211.9,3538.85C12211.9,3540.16 12212.4,3541.43 12213.4,3542.36C12214.3,3543.29 12215.5,3543.81 12216.9,3543.81L12231.4,3543.81C12232.7,3543.81 12233.9,3543.29 12234.9,3542.36C12235.8,3541.43 12236.3,3540.16 12236.3,3538.85L12236.3,3524.34ZM11381.3,3524.34C11381.3,3523.03 11380.7,3521.76 11379.8,3520.83C11378.9,3519.9 11377.6,3519.38 11376.3,3519.38L11361.8,3519.38C11360.5,3519.38 11359.2,3519.9 11358.3,3520.83C11357.4,3521.76 11356.8,3523.03 11356.8,3524.34L11356.8,3538.85C11356.8,3540.16 11357.4,3541.43 11358.3,3542.36C11359.2,3543.29 11360.5,3543.81 11361.8,3543.81L11376.3,3543.81C11377.6,3543.81 11378.9,3543.29 11379.8,3542.36C11380.7,3541.43 11381.3,3540.16 11381.3,3538.85L11381.3,3524.34ZM11411.8,3524.34C11411.8,3523.03 11411.3,3521.76 11410.3,3520.83C11409.4,3519.9 11408.2,3519.38 11406.8,3519.38L11392.3,3519.38C11391,3519.38 11389.8,3519.9 11388.8,3520.83C11387.9,3521.76 11387.4,3523.03 11387.4,3524.34L11387.4,3538.85C11387.4,3540.16 11387.9,3541.43 11388.8,3542.36C11389.8,3543.29 11391,3543.81 11392.3,3543.81L11406.8,3543.81C11408.2,3543.81 11409.4,3543.29 11410.3,3542.36C11411.3,3541.43 11411.8,3540.16 11411.8,3538.85L11411.8,3524.34ZM11931.1,3493.62C11931.1,3492.3 11930.5,3491.04 11929.6,3490.11C11928.7,3489.18 11927.4,3488.65 11926.1,3488.65L11911.6,3488.65C11910.3,3488.65 11909,3489.18 11908.1,3490.11C11907.2,3491.04 11906.6,3492.3 11906.6,3493.62C11906.6,3497.85 11906.6,3503.89 11906.6,3508.12C11906.6,3509.44 11907.2,3510.7 11908.1,3511.63C11909,3512.56 11910.3,3513.09 11911.6,3513.09L11926.1,3513.09C11927.4,3513.09 11928.7,3512.56 11929.6,3511.63C11930.5,3510.7 11931.1,3509.44 11931.1,3508.12L11931.1,3493.62ZM11656.3,3493.62C11656.3,3492.3 11655.7,3491.04 11654.8,3490.11C11653.9,3489.18 11652.6,3488.65 11651.3,3488.65L11636.8,3488.65C11635.5,3488.65 11634.2,3489.18 11633.3,3490.11C11632.4,3491.04 11631.8,3492.3 11631.8,3493.62C11631.8,3497.85 11631.8,3503.89 11631.8,3508.12C11631.8,3509.44 11632.4,3510.7 11633.3,3511.63C11634.2,3512.56 11635.5,3513.09 11636.8,3513.09L11651.3,3513.09C11652.6,3513.09 11653.9,3512.56 11654.8,3511.63C11655.7,3510.7 11656.3,3509.44 11656.3,3508.12L11656.3,3493.62ZM11961.6,3493.62C11961.6,3492.3 11961.1,3491.04 11960.1,3490.11C11959.2,3489.18 11958,3488.65 11956.6,3488.65L11942.1,3488.65C11940.8,3488.65 11939.6,3489.18 11938.6,3490.11C11937.7,3491.04 11937.2,3492.3 11937.2,3493.62L11937.2,3508.12C11937.2,3509.44 11937.7,3510.7 11938.6,3511.63C11939.6,3512.56 11940.8,3513.09 11942.1,3513.09L11956.6,3513.09C11958,3513.09 11959.2,3512.56 11960.1,3511.63C11961.1,3510.7 11961.6,3509.44 11961.6,3508.12L11961.6,3493.62ZM11717.3,3493.62C11717.3,3492.3 11716.8,3491.04 11715.9,3490.11C11715,3489.18 11713.7,3488.65 11712.4,3488.65L11697.9,3488.65C11696.6,3488.65 11695.3,3489.18 11694.4,3490.11C11693.4,3491.04 11692.9,3492.3 11692.9,3493.62L11692.9,3508.12C11692.9,3509.44 11693.4,3510.7 11694.4,3511.63C11695.3,3512.56 11696.6,3513.09 11697.9,3513.09L11712.4,3513.09C11713.7,3513.09 11715,3512.56 11715.9,3511.63C11716.8,3510.7 11717.3,3509.44 11717.3,3508.12L11717.3,3493.62ZM11992.1,3493.62C11992.1,3492.3 11991.6,3491.04 11990.7,3490.11C11989.7,3489.18 11988.5,3488.65 11987.2,3488.65L11972.7,3488.65C11971.3,3488.65 11970.1,3489.18 11969.2,3490.11C11968.2,3491.04 11967.7,3492.3 11967.7,3493.62L11967.7,3508.12C11967.7,3509.44 11968.2,3510.7 11969.2,3511.63C11970.1,3512.56 11971.3,3513.09 11972.7,3513.09L11987.2,3513.09C11988.5,3513.09 11989.7,3512.56 11990.7,3511.63C11991.6,3510.7 11992.1,3509.44 11992.1,3508.12L11992.1,3493.62ZM12236.4,3493.62C12236.4,3492.3 12235.9,3491.04 12234.9,3490.11C12234,3489.18 12232.8,3488.65 12231.4,3488.65L12216.9,3488.65C12215.6,3488.65 12214.4,3489.18 12213.4,3490.11C12212.5,3491.04 12212,3492.3 12212,3493.62L12212,3508.12C12212,3509.44 12212.5,3510.7 12213.4,3511.63C12214.4,3512.56 12215.6,3513.09 12216.9,3513.09L12231.4,3513.09C12232.8,3513.09 12234,3512.56 12234.9,3511.63C12235.9,3510.7 12236.4,3509.44 12236.4,3508.12L12236.4,3493.62ZM12205.9,3493.62C12205.9,3492.3 12205.3,3491.04 12204.4,3490.11C12203.5,3489.18 12202.2,3488.65 12200.9,3488.65L12186.4,3488.65C12185.1,3488.65 12183.8,3489.18 12182.9,3490.11C12182,3491.04 12181.4,3492.3 12181.4,3493.62C12181.4,3497.85 12181.4,3503.89 12181.4,3508.12C12181.4,3509.44 12182,3510.7 12182.9,3511.63C12183.8,3512.56 12185.1,3513.09 12186.4,3513.09L12200.9,3513.09C12202.2,3513.09 12203.5,3512.56 12204.4,3511.63C12205.3,3510.7 12205.9,3509.44 12205.9,3508.12L12205.9,3493.62ZM11686.8,3493.62C11686.8,3492.3 11686.3,3491.04 11685.3,3490.11C11684.4,3489.18 11683.2,3488.65 11681.8,3488.65L11667.3,3488.65C11666,3488.65 11664.8,3489.18 11663.8,3490.11C11662.9,3491.04 11662.4,3492.3 11662.4,3493.62L11662.4,3508.12C11662.4,3509.44 11662.9,3510.7 11663.8,3511.63C11664.8,3512.56 11666,3513.09 11667.3,3513.09L11681.8,3513.09C11683.2,3513.09 11684.4,3512.56 11685.3,3511.63C11686.3,3510.7 11686.8,3509.44 11686.8,3508.12C11686.8,3503.89 11686.8,3497.85 11686.8,3493.62ZM11411.9,3493.62C11411.9,3492.3 11411.3,3491.04 11410.4,3490.11C11409.5,3489.18 11408.2,3488.65 11406.9,3488.65L11392.4,3488.65C11391.1,3488.65 11389.8,3489.18 11388.9,3490.11C11388,3491.04 11387.4,3492.3 11387.4,3493.62L11387.4,3508.12C11387.4,3509.44 11388,3510.7 11388.9,3511.63C11389.8,3512.56 11391.1,3513.09 11392.4,3513.09L11406.9,3513.09C11408.2,3513.09 11409.5,3512.56 11410.4,3511.63C11411.3,3510.7 11411.9,3509.44 11411.9,3508.12L11411.9,3493.62ZM11442.4,3493.62C11442.4,3492.3 11441.9,3491.04 11440.9,3490.11C11440,3489.18 11438.8,3488.65 11437.4,3488.65L11422.9,3488.65C11421.6,3488.65 11420.4,3489.18 11419.4,3490.11C11418.5,3491.04 11418,3492.3 11418,3493.62L11418,3508.12C11418,3509.44 11418.5,3510.7 11419.4,3511.63C11420.4,3512.56 11421.6,3513.09 11422.9,3513.09L11437.4,3513.09C11438.8,3513.09 11440,3512.56 11440.9,3511.63C11441.9,3510.7 11442.4,3509.44 11442.4,3508.12C11442.4,3503.89 11442.4,3497.85 11442.4,3493.62ZM11442.5,3462.89C11442.5,3461.58 11441.9,3460.32 11441,3459.38C11440.1,3458.45 11438.8,3457.93 11437.5,3457.93L11423,3457.93C11421.7,3457.93 11420.4,3458.45 11419.5,3459.38C11418.6,3460.32 11418,3461.58 11418,3462.89L11418,3477.4C11418,3478.72 11418.6,3479.98 11419.5,3480.91C11420.4,3481.84 11421.7,3482.36 11423,3482.36L11437.5,3482.36C11438.8,3482.36 11440.1,3481.84 11441,3480.91C11441.9,3479.98 11442.5,3478.72 11442.5,3477.4L11442.5,3462.89ZM11473,3462.89C11473,3461.58 11472.5,3460.32 11471.5,3459.38C11470.6,3458.45 11469.4,3457.93 11468,3457.93L11453.5,3457.93C11452.2,3457.93 11451,3458.45 11450,3459.38C11449.1,3460.32 11448.6,3461.58 11448.6,3462.89L11448.6,3477.4C11448.6,3478.72 11449.1,3479.98 11450,3480.91C11451,3481.84 11452.2,3482.36 11453.5,3482.36L11468,3482.36C11469.4,3482.36 11470.6,3481.84 11471.5,3480.91C11472.5,3479.98 11473,3478.72 11473,3477.4L11473,3462.89ZM12022.7,3462.89C12022.7,3461.58 12022.2,3460.32 12021.3,3459.38C12020.3,3458.45 12019.1,3457.93 12017.8,3457.93L12003.3,3457.93C12001.9,3457.93 12000.7,3458.45 11999.8,3459.38C11998.8,3460.32 11998.3,3461.58 11998.3,3462.89L11998.3,3477.4C11998.3,3478.72 11998.8,3479.98 11999.8,3480.91C12000.7,3481.84 12001.9,3482.36 12003.3,3482.36L12017.8,3482.36C12019.1,3482.36 12020.3,3481.84 12021.3,3480.91C12022.2,3479.98 12022.7,3478.72 12022.7,3477.4L12022.7,3462.89ZM11717.4,3462.89C11717.4,3461.58 11716.9,3460.32 11715.9,3459.38C11715,3458.45 11713.8,3457.93 11712.4,3457.93L11697.9,3457.93C11696.6,3457.93 11695.4,3458.45 11694.4,3459.38C11693.5,3460.32 11693,3461.58 11693,3462.89L11693,3477.4C11693,3478.72 11693.5,3479.98 11694.4,3480.91C11695.4,3481.84 11696.6,3482.36 11697.9,3482.36L11712.4,3482.36C11713.8,3482.36 11715,3481.84 11715.9,3480.91C11716.9,3479.98 11717.4,3478.72 11717.4,3477.4L11717.4,3462.89ZM12205.9,3462.89C12205.9,3461.58 12205.4,3460.32 12204.5,3459.38C12203.5,3458.45 12202.3,3457.93 12201,3457.93L12186.5,3457.93C12185.1,3457.93 12183.9,3458.45 12183,3459.38C12182,3460.32 12181.5,3461.58 12181.5,3462.89L12181.5,3477.4C12181.5,3478.72 12182,3479.98 12183,3480.91C12183.9,3481.84 12185.1,3482.36 12186.5,3482.36L12201,3482.36C12202.3,3482.36 12203.5,3481.84 12204.5,3480.91C12205.4,3479.98 12205.9,3478.72 12205.9,3477.4L12205.9,3462.89ZM11656.3,3462.89C11656.3,3461.58 11655.8,3460.32 11654.9,3459.38C11654,3458.45 11652.7,3457.93 11651.4,3457.93L11636.9,3457.93C11635.6,3457.93 11634.3,3458.45 11633.4,3459.38C11632.4,3460.32 11631.9,3461.58 11631.9,3462.89L11631.9,3477.4C11631.9,3478.72 11632.4,3479.98 11633.4,3480.91C11634.3,3481.84 11635.6,3482.36 11636.9,3482.36L11651.4,3482.36C11652.7,3482.36 11654,3481.84 11654.9,3480.91C11655.8,3479.98 11656.3,3478.72 11656.3,3477.4L11656.3,3462.89ZM11931.1,3462.89C11931.1,3461.58 11930.6,3460.32 11929.7,3459.38C11928.8,3458.45 11927.5,3457.93 11926.2,3457.93L11911.7,3457.93C11910.4,3457.93 11909.1,3458.45 11908.2,3459.38C11907.2,3460.32 11906.7,3461.58 11906.7,3462.89L11906.7,3477.4C11906.7,3478.72 11907.2,3479.98 11908.2,3480.91C11909.1,3481.84 11910.4,3482.36 11911.7,3482.36L11926.2,3482.36C11927.5,3482.36 11928.8,3481.84 11929.7,3480.91C11930.6,3479.98 11931.1,3478.72 11931.1,3477.4L11931.1,3462.89ZM11747.9,3462.89C11747.9,3461.58 11747.4,3460.32 11746.5,3459.38C11745.6,3458.45 11744.3,3457.93 11743,3457.93L11728.5,3457.93C11727.2,3457.93 11725.9,3458.45 11725,3459.38C11724,3460.32 11723.5,3461.58 11723.5,3462.89L11723.5,3477.4C11723.5,3478.72 11724,3479.98 11725,3480.91C11725.9,3481.84 11727.2,3482.36 11728.5,3482.36L11743,3482.36C11744.3,3482.36 11745.6,3481.84 11746.5,3480.91C11747.4,3479.98 11747.9,3478.72 11747.9,3477.4L11747.9,3462.89ZM11969.4,3457.93C11969.4,3457.93 11969.4,3457.93 11969.3,3457.94C11968.5,3458.01 11967.8,3458.75 11967.8,3459.65C11967.8,3463.18 11967.8,3471.85 11967.8,3477.4C11967.8,3480.14 11970,3482.36 11972.7,3482.36C11977,3482.36 11983,3482.36 11987.2,3482.36C11988.6,3482.36 11989.8,3481.84 11990.7,3480.91C11991.7,3479.98 11992.2,3478.72 11992.2,3477.4L11992.2,3462.89C11992.2,3460.15 11990,3457.93 11987.2,3457.93C11980.5,3457.93 11969.4,3457.93 11969.4,3457.93ZM11625.9,3432.17C11625.9,3430.86 11625.3,3429.59 11624.4,3428.66C11623.5,3427.73 11622.2,3427.21 11620.9,3427.21L11606.4,3427.21C11605.1,3427.21 11603.8,3427.73 11602.9,3428.66C11602,3429.59 11601.4,3430.86 11601.4,3432.17C11601.4,3436.4 11601.4,3442.45 11601.4,3446.68C11601.4,3447.99 11602,3449.26 11602.9,3450.19C11603.8,3451.12 11605.1,3451.64 11606.4,3451.64L11620.9,3451.64C11622.2,3451.64 11623.5,3451.12 11624.4,3450.19C11625.3,3449.26 11625.9,3447.99 11625.9,3446.68L11625.9,3432.17ZM12053.3,3432.17C12053.3,3430.86 12052.8,3429.59 12051.9,3428.66C12050.9,3427.73 12049.7,3427.21 12048.4,3427.21L12033.9,3427.21C12032.5,3427.21 12031.3,3427.73 12030.4,3428.66C12029.4,3429.59 12028.9,3430.86 12028.9,3432.17C12028.9,3436.4 12028.9,3442.45 12028.9,3446.68C12028.9,3447.99 12029.4,3449.26 12030.4,3450.19C12031.3,3451.12 12032.5,3451.64 12033.9,3451.64L12048.4,3451.64C12049.7,3451.64 12050.9,3451.12 12051.9,3450.19C12052.8,3449.26 12053.3,3447.99 12053.3,3446.68C12053.3,3442.45 12053.3,3436.4 12053.3,3432.17ZM12175.5,3432.17C12175.5,3430.86 12174.9,3429.59 12174,3428.66C12173.1,3427.73 12171.8,3427.21 12170.5,3427.21L12156,3427.21C12154.7,3427.21 12153.4,3427.73 12152.5,3428.66C12151.6,3429.59 12151,3430.86 12151,3432.17L12151,3446.68C12151,3447.99 12151.6,3449.26 12152.5,3450.19C12153.4,3451.12 12154.7,3451.64 12156,3451.64L12170.5,3451.64C12171.8,3451.64 12173.1,3451.12 12174,3450.19C12174.9,3449.26 12175.5,3447.99 12175.5,3446.68L12175.5,3432.17ZM11900.7,3432.17C11900.7,3430.86 11900.1,3429.59 11899.2,3428.66C11898.3,3427.73 11897,3427.21 11895.7,3427.21L11881.2,3427.21C11879.9,3427.21 11878.6,3427.73 11877.7,3428.66C11876.8,3429.59 11876.2,3430.86 11876.2,3432.17L11876.2,3446.68C11876.2,3447.99 11876.8,3449.26 11877.7,3450.19C11878.6,3451.12 11879.9,3451.64 11881.2,3451.64L11895.7,3451.64C11897,3451.64 11898.3,3451.12 11899.2,3450.19C11900.1,3449.26 11900.7,3447.99 11900.7,3446.68L11900.7,3432.17ZM11748,3432.17C11748,3430.86 11747.5,3429.59 11746.5,3428.66C11745.6,3427.73 11744.4,3427.21 11743,3427.21L11728.5,3427.21C11727.2,3427.21 11726,3427.73 11725,3428.66C11724.1,3429.59 11723.6,3430.86 11723.6,3432.17L11723.6,3446.68C11723.6,3447.99 11724.1,3449.26 11725,3450.19C11726,3451.12 11727.2,3451.64 11728.5,3451.64L11743,3451.64C11744.4,3451.64 11745.6,3451.12 11746.5,3450.19C11747.5,3449.26 11748,3447.99 11748,3446.68L11748,3432.17ZM11473.1,3432.17C11473.1,3430.86 11472.5,3429.59 11471.6,3428.66C11470.7,3427.73 11469.4,3427.21 11468.1,3427.21L11453.6,3427.21C11452.3,3427.21 11451,3427.73 11450.1,3428.66C11449.2,3429.59 11448.6,3430.86 11448.6,3432.17L11448.6,3446.68C11448.6,3447.99 11449.2,3449.26 11450.1,3450.19C11451,3451.12 11452.3,3451.64 11453.6,3451.64L11468.1,3451.64C11469.4,3451.64 11470.7,3451.12 11471.6,3450.19C11472.5,3449.26 11473.1,3447.99 11473.1,3446.68L11473.1,3432.17ZM11503.6,3432.17C11503.6,3430.86 11503.1,3429.59 11502.1,3428.66C11501.2,3427.73 11500,3427.21 11498.6,3427.21L11484.1,3427.21C11482.8,3427.21 11481.6,3427.73 11480.6,3428.66C11479.7,3429.59 11479.2,3430.86 11479.2,3432.17C11479.2,3436.4 11479.2,3442.45 11479.2,3446.68C11479.2,3447.99 11479.7,3449.26 11480.6,3450.19C11481.6,3451.12 11482.8,3451.64 11484.1,3451.64L11498.6,3451.64C11500,3451.64 11501.2,3451.12 11502.1,3450.19C11503.1,3449.26 11503.6,3447.99 11503.6,3446.68L11503.6,3432.17ZM11778.5,3432.17C11778.5,3430.86 11778,3429.59 11777.1,3428.66C11776.2,3427.73 11774.9,3427.21 11773.6,3427.21L11759.1,3427.21C11757.8,3427.21 11756.5,3427.73 11755.6,3428.66C11754.6,3429.59 11754.1,3430.86 11754.1,3432.17C11754.1,3436.4 11754.1,3442.45 11754.1,3446.68C11754.1,3447.99 11754.6,3449.26 11755.6,3450.19C11756.5,3451.12 11757.8,3451.64 11759.1,3451.64L11773.6,3451.64C11774.9,3451.64 11776.2,3451.12 11777.1,3450.19C11778,3449.26 11778.5,3447.99 11778.5,3446.68L11778.5,3432.17ZM12022.8,3432.17C12022.8,3430.86 12022.3,3429.59 12021.3,3428.66C12020.4,3427.73 12019.2,3427.21 12017.8,3427.21L12003.3,3427.21C12002,3427.21 12000.8,3427.73 11999.8,3428.66C11998.9,3429.59 11998.4,3430.86 11998.4,3432.17L11998.4,3446.68C11998.4,3447.99 11998.9,3449.26 11999.8,3450.19C12000.8,3451.12 12002,3451.64 12003.3,3451.64L12017.8,3451.64C12019.2,3451.64 12020.4,3451.12 12021.3,3450.19C12022.3,3449.26 12022.8,3447.99 12022.8,3446.68C12022.8,3442.45 12022.8,3436.4 12022.8,3432.17ZM11534.2,3401.45C11534.2,3400.13 11533.7,3398.87 11532.7,3397.94C11531.8,3397.01 11530.6,3396.48 11529.2,3396.48L11514.7,3396.48C11513.4,3396.48 11512.2,3397.01 11511.2,3397.94C11510.3,3398.87 11509.8,3400.13 11509.8,3401.45L11509.8,3415.95C11509.8,3417.27 11510.3,3418.53 11511.2,3419.46C11512.2,3420.39 11513.4,3420.92 11514.7,3420.92L11529.2,3420.92C11530.6,3420.92 11531.8,3420.39 11532.7,3419.46C11533.7,3418.53 11534.2,3417.27 11534.2,3415.95L11534.2,3401.45ZM11503.7,3401.45C11503.7,3400.13 11503.1,3398.87 11502.2,3397.94C11501.3,3397.01 11500,3396.48 11498.7,3396.48L11484.2,3396.48C11482.9,3396.48 11481.6,3397.01 11480.7,3397.94C11479.8,3398.87 11479.2,3400.13 11479.2,3401.45L11479.2,3415.95C11479.2,3417.27 11479.8,3418.53 11480.7,3419.46C11481.6,3420.39 11482.9,3420.92 11484.2,3420.92L11498.7,3420.92C11500,3420.92 11501.3,3420.39 11502.2,3419.46C11503.1,3418.53 11503.7,3417.27 11503.7,3415.95L11503.7,3401.45ZM11900.7,3401.45C11900.7,3400.13 11900.2,3398.87 11899.3,3397.94C11898.4,3397.01 11897.1,3396.48 11895.8,3396.48L11881.3,3396.48C11880,3396.48 11878.7,3397.01 11877.8,3397.94C11876.8,3398.87 11876.3,3400.13 11876.3,3401.45L11876.3,3415.95C11876.3,3417.27 11876.8,3418.53 11877.8,3419.46C11878.7,3420.39 11880,3420.92 11881.3,3420.92L11895.8,3420.92C11897.1,3420.92 11898.4,3420.39 11899.3,3419.46C11900.2,3418.53 11900.7,3417.27 11900.7,3415.95C11900.7,3411.72 11900.7,3405.68 11900.7,3401.45ZM11809.1,3401.45C11809.1,3400.13 11808.6,3398.87 11807.7,3397.94C11806.8,3397.01 11805.5,3396.48 11804.2,3396.48L11789.7,3396.48C11788.4,3396.48 11787.1,3397.01 11786.2,3397.94C11785.2,3398.87 11784.7,3400.13 11784.7,3401.45L11784.7,3415.95C11784.7,3417.27 11785.2,3418.53 11786.2,3419.46C11787.1,3420.39 11788.4,3420.92 11789.7,3420.92L11804.2,3420.92C11805.5,3420.92 11806.8,3420.39 11807.7,3419.46C11808.6,3418.53 11809.1,3417.27 11809.1,3415.95L11809.1,3401.45ZM11778.6,3401.45C11778.6,3400.13 11778.1,3398.87 11777.1,3397.94C11776.2,3397.01 11775,3396.48 11773.6,3396.48L11759.1,3396.48C11757.8,3396.48 11756.6,3397.01 11755.6,3397.94C11754.7,3398.87 11754.2,3400.13 11754.2,3401.45L11754.2,3415.95C11754.2,3417.27 11754.7,3418.53 11755.6,3419.46C11756.6,3420.39 11757.8,3420.92 11759.1,3420.92L11773.6,3420.92C11775,3420.92 11776.2,3420.39 11777.1,3419.46C11778.1,3418.53 11778.6,3417.27 11778.6,3415.95L11778.6,3401.45ZM12175.5,3401.45C12175.5,3400.13 12175,3398.87 12174.1,3397.94C12173.1,3397.01 12171.9,3396.48 12170.6,3396.48L12156.1,3396.48C12154.7,3396.48 12153.5,3397.01 12152.6,3397.94C12151.6,3398.87 12151.1,3400.13 12151.1,3401.45L12151.1,3415.95C12151.1,3417.27 12151.6,3418.53 12152.6,3419.46C12153.5,3420.39 12154.7,3420.92 12156.1,3420.92L12170.6,3420.92C12171.9,3420.92 12173.1,3420.39 12174.1,3419.46C12175,3418.53 12175.5,3417.27 12175.5,3415.95L12175.5,3401.45ZM12053.4,3401.45C12053.4,3400.13 12052.9,3398.87 12051.9,3397.94C12051,3397.01 12049.8,3396.48 12048.4,3396.48L12033.9,3396.48C12032.6,3396.48 12031.4,3397.01 12030.4,3397.94C12029.5,3398.87 12029,3400.13 12029,3401.45L12029,3415.95C12029,3417.27 12029.5,3418.53 12030.4,3419.46C12031.4,3420.39 12032.6,3420.92 12033.9,3420.92L12048.4,3420.92C12049.8,3420.92 12051,3420.39 12051.9,3419.46C12052.9,3418.53 12053.4,3417.27 12053.4,3415.95L12053.4,3401.45ZM12083.9,3401.45C12083.9,3400.13 12083.4,3398.87 12082.5,3397.94C12081.5,3397.01 12080.3,3396.48 12079,3396.48L12064.5,3396.48C12063.1,3396.48 12061.9,3397.01 12061,3397.94C12060,3398.87 12059.5,3400.13 12059.5,3401.45L12059.5,3415.95C12059.5,3417.27 12060,3418.53 12061,3419.46C12061.9,3420.39 12063.1,3420.92 12064.5,3420.92L12079,3420.92C12080.3,3420.92 12081.5,3420.39 12082.5,3419.46C12083.4,3418.53 12083.9,3417.27 12083.9,3415.95L12083.9,3401.45ZM11625.9,3401.45C11625.9,3400.13 11625.4,3398.87 11624.5,3397.94C11623.6,3397.01 11622.3,3396.48 11621,3396.48L11606.5,3396.48C11605.2,3396.48 11603.9,3397.01 11603,3397.94C11602,3398.87 11601.5,3400.13 11601.5,3401.45L11601.5,3415.95C11601.5,3417.27 11602,3418.53 11603,3419.46C11603.9,3420.39 11605.2,3420.92 11606.5,3420.92L11621,3420.92C11622.3,3420.92 11623.6,3420.39 11624.5,3419.46C11625.4,3418.53 11625.9,3417.27 11625.9,3415.95L11625.9,3401.45ZM11809.2,3370.72C11809.2,3369.41 11808.7,3368.14 11807.7,3367.21C11806.8,3366.28 11805.6,3365.76 11804.2,3365.76L11789.7,3365.76C11788.4,3365.76 11787.2,3366.28 11786.2,3367.21C11785.3,3368.14 11784.8,3369.41 11784.8,3370.72L11784.8,3385.23C11784.8,3386.55 11785.3,3387.81 11786.2,3388.74C11787.2,3389.67 11788.4,3390.19 11789.7,3390.19L11804.2,3390.19C11805.6,3390.19 11806.8,3389.67 11807.7,3388.74C11808.7,3387.81 11809.2,3386.55 11809.2,3385.23L11809.2,3370.72ZM12114.5,3370.72C12114.5,3369.41 12114,3368.14 12113.1,3367.21C12112.1,3366.28 12110.9,3365.76 12109.6,3365.76L12095.1,3365.76C12093.7,3365.76 12092.5,3366.28 12091.6,3367.21C12090.6,3368.14 12090.1,3369.41 12090.1,3370.72L12090.1,3385.23C12090.1,3386.55 12090.6,3387.81 12091.6,3388.74C12092.5,3389.67 12093.7,3390.19 12095.1,3390.19L12109.6,3390.19C12110.9,3390.19 12112.1,3389.67 12113.1,3388.74C12114,3387.81 12114.5,3386.55 12114.5,3385.23L12114.5,3370.72ZM11564.8,3370.72C11564.8,3369.41 11564.3,3368.14 11563.3,3367.21C11562.4,3366.28 11561.2,3365.76 11559.8,3365.76L11545.3,3365.76C11544,3365.76 11542.8,3366.28 11541.8,3367.21C11540.9,3368.14 11540.4,3369.41 11540.4,3370.72L11540.4,3385.23C11540.4,3386.55 11540.9,3387.81 11541.8,3388.74C11542.8,3389.67 11544,3390.19 11545.3,3390.19L11559.8,3390.19C11561.2,3390.19 11562.4,3389.67 11563.3,3388.74C11564.3,3387.81 11564.8,3386.55 11564.8,3385.23L11564.8,3370.72ZM11595.3,3370.72C11595.3,3369.41 11594.8,3368.14 11593.9,3367.21C11592.9,3366.28 11591.7,3365.76 11590.4,3365.76L11575.9,3365.76C11574.5,3365.76 11573.3,3366.28 11572.4,3367.21C11571.4,3368.14 11570.9,3369.41 11570.9,3370.72L11570.9,3385.23C11570.9,3386.55 11571.4,3387.81 11572.4,3388.74C11573.3,3389.67 11574.5,3390.19 11575.9,3390.19L11590.4,3390.19C11591.7,3390.19 11592.9,3389.67 11593.9,3388.74C11594.8,3387.81 11595.3,3386.55 11595.3,3385.23L11595.3,3370.72ZM11534.3,3370.72C11534.3,3369.41 11533.7,3368.14 11532.8,3367.21C11531.9,3366.28 11530.6,3365.76 11529.3,3365.76L11514.8,3365.76C11513.5,3365.76 11512.2,3366.28 11511.3,3367.21C11510.4,3368.14 11509.8,3369.41 11509.8,3370.72L11509.8,3385.23C11509.8,3386.55 11510.4,3387.81 11511.3,3388.74C11512.2,3389.67 11513.5,3390.19 11514.8,3390.19L11529.3,3390.19C11530.6,3390.19 11531.9,3389.67 11532.8,3388.74C11533.7,3387.81 11534.3,3386.55 11534.3,3385.23L11534.3,3370.72ZM12084,3370.72C12084,3369.41 12083.5,3368.14 12082.5,3367.21C12081.6,3366.28 12080.4,3365.76 12079,3365.76L12064.5,3365.76C12063.2,3365.76 12062,3366.28 12061,3367.21C12060.1,3368.14 12059.6,3369.41 12059.6,3370.72L12059.6,3385.23C12059.6,3386.55 12060.1,3387.81 12061,3388.74C12062,3389.67 12063.2,3390.19 12064.5,3390.19L12079,3390.19C12080.4,3390.19 12081.6,3389.67 12082.5,3388.74C12083.5,3387.81 12084,3386.55 12084,3385.23L12084,3370.72ZM11839.7,3370.72C11839.7,3369.41 11839.2,3368.14 11838.3,3367.21C11837.4,3366.28 11836.1,3365.76 11834.8,3365.76L11820.3,3365.76C11819,3365.76 11817.7,3366.28 11816.8,3367.21C11815.8,3368.14 11815.3,3369.41 11815.3,3370.72L11815.3,3385.23C11815.3,3386.55 11815.8,3387.81 11816.8,3388.74C11817.7,3389.67 11819,3390.19 11820.3,3390.19L11834.8,3390.19C11836.1,3390.19 11837.4,3389.67 11838.3,3388.74C11839.2,3387.81 11839.7,3386.55 11839.7,3385.23L11839.7,3370.72ZM12145.1,3370.72C12145.1,3369.41 12144.5,3368.14 12143.6,3367.21C12142.7,3366.28 12141.4,3365.76 12140.1,3365.76L12125.6,3365.76C12124.3,3365.76 12123,3366.28 12122.1,3367.21C12121.2,3368.14 12120.6,3369.41 12120.6,3370.72L12120.6,3385.23C12120.6,3386.55 12121.2,3387.81 12122.1,3388.74C12123,3389.67 12124.3,3390.19 12125.6,3390.19L12140.1,3390.19C12141.4,3390.19 12142.7,3389.67 12143.6,3388.74C12144.5,3387.81 12145.1,3386.55 12145.1,3385.23L12145.1,3370.72ZM11870.3,3370.72C11870.3,3369.41 11869.7,3368.14 11868.8,3367.21C11867.9,3366.28 11866.6,3365.76 11865.3,3365.76L11850.8,3365.76C11849.5,3365.76 11848.2,3366.28 11847.3,3367.21C11846.4,3368.14 11845.8,3369.41 11845.8,3370.72L11845.8,3385.23C11845.8,3386.55 11846.4,3387.81 11847.3,3388.74C11848.2,3389.67 11849.5,3390.19 11850.8,3390.19L11865.3,3390.19C11866.6,3390.19 11867.9,3389.67 11868.8,3388.74C11869.7,3387.81 11870.3,3386.55 11870.3,3385.23L11870.3,3370.72ZM11870.3,3340C11870.3,3338.68 11869.8,3337.42 11868.9,3336.49C11868,3335.56 11866.7,3335.04 11865.4,3335.04L11850.9,3335.04C11849.6,3335.04 11848.3,3335.56 11847.4,3336.49C11846.4,3337.42 11845.9,3338.68 11845.9,3340L11845.9,3354.5C11845.9,3355.82 11846.4,3357.08 11847.4,3358.01C11848.3,3358.95 11849.6,3359.47 11850.9,3359.47L11865.4,3359.47C11866.7,3359.47 11868,3358.95 11868.9,3358.01C11869.8,3357.08 11870.3,3355.82 11870.3,3354.5L11870.3,3340ZM12114.6,3340C12114.6,3338.68 12114.1,3337.42 12113.1,3336.49C12112.2,3335.56 12111,3335.04 12109.6,3335.04L12095.1,3335.04C12093.8,3335.04 12092.6,3335.56 12091.6,3336.49C12090.7,3337.42 12090.2,3338.68 12090.2,3340L12090.2,3354.5C12090.2,3355.82 12090.7,3357.08 12091.6,3358.01C12092.6,3358.95 12093.8,3359.47 12095.1,3359.47L12109.6,3359.47C12111,3359.47 12112.2,3358.95 12113.1,3358.01C12114.1,3357.08 12114.6,3355.82 12114.6,3354.5L12114.6,3340ZM12145.1,3340C12145.1,3338.68 12144.6,3337.42 12143.7,3336.49C12142.7,3335.56 12141.5,3335.04 12140.2,3335.04L12125.7,3335.04C12124.3,3335.04 12123.1,3335.56 12122.2,3336.49C12121.2,3337.42 12120.7,3338.68 12120.7,3340L12120.7,3354.5C12120.7,3355.82 12121.2,3357.08 12122.2,3358.01C12123.1,3358.95 12124.3,3359.47 12125.7,3359.47L12140.2,3359.47C12141.5,3359.47 12142.7,3358.95 12143.7,3358.01C12144.6,3357.08 12145.1,3355.82 12145.1,3354.5C12145.1,3350.28 12145.1,3344.23 12145.1,3340ZM11839.8,3340C11839.8,3338.68 11839.3,3337.42 11838.3,3336.49C11837.4,3335.56 11836.2,3335.04 11834.8,3335.04L11820.3,3335.04C11819,3335.04 11817.8,3335.56 11816.8,3336.49C11815.9,3337.42 11815.4,3338.68 11815.4,3340L11815.4,3354.5C11815.4,3355.82 11815.9,3357.08 11816.8,3358.01C11817.8,3358.95 11819,3359.47 11820.3,3359.47L11834.8,3359.47C11836.2,3359.47 11837.4,3358.95 11838.3,3358.01C11839.3,3357.08 11839.8,3355.82 11839.8,3354.5L11839.8,3340ZM11595.4,3340C11595.4,3338.68 11594.9,3337.42 11593.9,3336.49C11593,3335.56 11591.8,3335.04 11590.4,3335.04L11575.9,3335.04C11574.6,3335.04 11573.4,3335.56 11572.4,3336.49C11571.5,3337.42 11571,3338.68 11571,3340L11571,3354.5C11571,3355.82 11571.5,3357.08 11572.4,3358.01C11573.4,3358.95 11574.6,3359.47 11575.9,3359.47L11590.4,3359.47C11591.8,3359.47 11593,3358.95 11593.9,3358.01C11594.9,3357.08 11595.4,3355.82 11595.4,3354.5L11595.4,3340ZM11564.9,3340C11564.9,3338.68 11564.3,3337.42 11563.4,3336.49C11562.5,3335.56 11561.2,3335.04 11559.9,3335.04L11545.4,3335.04C11544.1,3335.04 11542.8,3335.56 11541.9,3336.49C11541,3337.42 11540.4,3338.68 11540.4,3340L11540.4,3354.5C11540.4,3355.82 11541,3357.08 11541.9,3358.01C11542.8,3358.95 11544.1,3359.47 11545.4,3359.47L11559.9,3359.47C11561.2,3359.47 11562.5,3358.95 11563.4,3358.01C11564.3,3357.08 11564.9,3355.82 11564.9,3354.5L11564.9,3340Z" style="fill:rgb(197,249,70);"/>
                </g>
            </g>
        </g>
    </g>
</svg>
