<?xml version="1.0" encoding="UTF-8" standalone="no"?>
<!DOCTYPE svg PUBLIC "-//W3C//DTD SVG 1.1//EN" "http://www.w3.org/Graphics/SVG/1.1/DTD/svg11.dtd">
<svg width="100%" height="100%" viewBox="0 0 1200 700" version="1.1" xmlns="http://www.w3.org/2000/svg" xmlns:xlink="http://www.w3.org/1999/xlink" xml:space="preserve" xmlns:serif="http://www.serif.com/" style="fill-rule:evenodd;clip-rule:evenodd;stroke-linejoin:round;stroke-miterlimit:2;">
    <g transform="matrix(1,0,0,1,-1374.88,0)">
        <g id="signal_skrtv_krzh" transform="matrix(1,0,0,1,1374.88,0)">
            <rect x="0" y="0" width="1200" height="700" style="fill:none;"/>
            <g transform="matrix(1.06916,0,0,1.15305,-82.9937,-107.135)">
                <rect x="77.625" y="92.914" width="1122.38" height="607.086"/>
            </g>
            <g transform="matrix(1.59345,0,0,3.82063,-85.0727,-1433.82)">
                <path d="M133.603,421.895L136.853,421.895C137.77,421.895 138.229,422.079 138.229,422.448L138.229,424.252C138.229,424.621 137.77,424.806 136.853,424.806L133.603,424.806C132.685,424.806 132.227,424.621 132.227,424.252L132.227,422.448C132.227,422.079 132.685,421.895 133.603,421.895ZM133.603,431.324L136.853,431.324C137.77,431.324 138.229,431.508 138.229,431.877L138.229,433.681C138.229,434.05 137.77,434.235 136.853,434.235L133.603,434.235C132.685,434.235 132.227,434.05 132.227,433.681L132.227,431.877C132.227,431.508 132.685,431.324 133.603,431.324ZM133.603,434.476L136.853,434.476C137.77,434.476 138.229,434.661 138.229,435.03L138.229,436.819C138.229,437.188 137.77,437.373 136.853,437.373L133.603,437.373C132.685,437.373 132.227,437.188 132.227,436.819L132.227,435.03C132.227,434.661 132.685,434.476 133.603,434.476ZM133.603,437.614L136.853,437.614C137.77,437.614 138.229,437.799 138.229,438.168L138.229,439.971C138.229,440.341 137.77,440.525 136.853,440.525L133.603,440.525C132.685,440.525 132.227,440.341 132.227,439.971L132.227,438.168C132.227,437.799 132.685,437.614 133.603,437.614ZM127.132,418.756L130.353,418.756C131.27,418.756 131.729,418.941 131.729,419.31L131.729,421.099C131.729,421.469 131.27,421.653 130.353,421.653L127.132,421.653C126.214,421.653 125.755,421.469 125.755,421.099L125.755,419.31C125.755,418.941 126.214,418.756 127.132,418.756ZM127.132,428.185L130.353,428.185C131.27,428.185 131.729,428.37 131.729,428.739L131.729,430.543C131.729,430.912 131.27,431.096 130.353,431.096L127.132,431.096C126.214,431.096 125.755,430.912 125.755,430.543L125.755,428.739C125.755,428.37 126.214,428.185 127.132,428.185ZM127.132,440.752L130.353,440.752C131.27,440.752 131.729,440.937 131.729,441.306L131.729,443.11C131.729,443.479 131.27,443.663 130.353,443.663L127.132,443.663C126.214,443.663 125.755,443.479 125.755,443.11L125.755,441.306C125.755,440.937 126.214,440.752 127.132,440.752ZM120.661,418.756L123.881,418.756C124.799,418.756 125.258,418.941 125.258,419.31L125.258,421.099C125.258,421.469 124.799,421.653 123.881,421.653L120.661,421.653C119.743,421.653 119.284,421.469 119.284,421.099L119.284,419.31C119.284,418.941 119.743,418.756 120.661,418.756ZM120.661,428.185L123.881,428.185C124.799,428.185 125.258,428.37 125.258,428.739L125.258,430.543C125.258,430.912 124.799,431.096 123.881,431.096L120.661,431.096C119.743,431.096 119.284,430.912 119.284,430.543L119.284,428.739C119.284,428.37 119.743,428.185 120.661,428.185ZM120.661,440.752L123.881,440.752C124.799,440.752 125.258,440.937 125.258,441.306L125.258,443.11C125.258,443.479 124.799,443.663 123.881,443.663L120.661,443.663C119.743,443.663 119.284,443.479 119.284,443.11L119.284,441.306C119.284,440.937 119.743,440.752 120.661,440.752ZM114.16,418.756L117.41,418.756C118.328,418.756 118.787,418.941 118.787,419.31L118.787,421.099C118.787,421.469 118.328,421.653 117.41,421.653L114.16,421.653C113.243,421.653 112.784,421.469 112.784,421.099L112.784,419.31C112.784,418.941 113.243,418.756 114.16,418.756ZM114.16,428.185L117.41,428.185C118.328,428.185 118.787,428.37 118.787,428.739L118.787,430.543C118.787,430.912 118.328,431.096 117.41,431.096L114.16,431.096C113.243,431.096 112.784,430.912 112.784,430.543L112.784,428.739C112.784,428.37 113.243,428.185 114.16,428.185ZM114.16,440.752L117.41,440.752C118.328,440.752 118.787,440.937 118.787,441.306L118.787,443.11C118.787,443.479 118.328,443.663 117.41,443.663L114.16,443.663C113.243,443.663 112.784,443.479 112.784,443.11L112.784,441.306C112.784,440.937 113.243,440.752 114.16,440.752ZM107.689,421.895L110.91,421.895C111.827,421.895 112.286,422.079 112.286,422.448L112.286,424.252C112.286,424.621 111.827,424.806 110.91,424.806L107.689,424.806C106.772,424.806 106.313,424.621 106.313,424.252L106.313,422.448C106.313,422.079 106.772,421.895 107.689,421.895ZM107.689,425.033L110.91,425.033C111.827,425.033 112.286,425.217 112.286,425.587L112.286,427.39C112.286,427.759 111.827,427.944 110.91,427.944L107.689,427.944C106.772,427.944 106.313,427.759 106.313,427.39L106.313,425.587C106.313,425.217 106.772,425.033 107.689,425.033ZM107.689,437.614L110.91,437.614C111.827,437.614 112.286,437.799 112.286,438.168L112.286,439.971C112.286,440.341 111.827,440.525 110.91,440.525L107.689,440.525C106.772,440.525 106.313,440.341 106.313,439.971L106.313,438.168C106.313,437.799 106.772,437.614 107.689,437.614ZM107.689,434.476L110.91,434.476C111.827,434.476 112.286,434.661 112.286,435.03L112.286,436.819C112.286,437.188 111.827,437.373 110.91,437.373L107.689,437.373C106.772,437.373 106.313,437.188 106.313,436.819L106.313,435.03C106.313,434.661 106.772,434.476 107.689,434.476Z" style="fill:rgb(197,249,70);fill-rule:nonzero;"/>
                <path d="M180.453,418.756L183.703,418.756C184.62,418.756 185.079,418.941 185.079,419.31L185.079,421.099C185.079,421.469 184.62,421.653 183.703,421.653L180.453,421.653C179.535,421.653 179.076,421.469 179.076,421.099L179.076,419.31C179.076,418.941 179.535,418.756 180.453,418.756ZM180.453,440.752L183.703,440.752C184.62,440.752 185.079,440.937 185.079,441.306L185.079,443.11C185.079,443.479 184.62,443.663 183.703,443.663L180.453,443.663C179.535,443.663 179.076,443.479 179.076,443.11L179.076,441.306C179.076,440.937 179.535,440.752 180.453,440.752ZM180.453,437.614L183.703,437.614C184.62,437.614 185.079,437.799 185.079,438.168L185.079,439.971C185.079,440.341 184.62,440.525 183.703,440.525L180.453,440.525C179.535,440.525 179.076,440.341 179.076,439.971L179.076,438.168C179.076,437.799 179.535,437.614 180.453,437.614ZM180.453,434.476L183.703,434.476C184.62,434.476 185.079,434.661 185.079,435.03L185.079,436.819C185.079,437.188 184.62,437.373 183.703,437.373L180.453,437.373C179.535,437.373 179.076,437.188 179.076,436.819L179.076,435.03C179.076,434.661 179.535,434.476 180.453,434.476ZM173.981,421.895L177.202,421.895C178.12,421.895 178.579,422.079 178.579,422.448L178.579,424.252C178.579,424.621 178.12,424.806 177.202,424.806L173.981,424.806C173.064,424.806 172.605,424.621 172.605,424.252L172.605,422.448C172.605,422.079 173.064,421.895 173.981,421.895ZM173.981,431.324L177.202,431.324C178.12,431.324 178.579,431.508 178.579,431.877L178.579,433.681C178.579,434.05 178.12,434.235 177.202,434.235L173.981,434.235C173.064,434.235 172.605,434.05 172.605,433.681L172.605,431.877C172.605,431.508 173.064,431.324 173.981,431.324ZM167.51,425.033L170.731,425.033C171.649,425.033 172.107,425.217 172.107,425.587L172.107,427.39C172.107,427.759 171.649,427.944 170.731,427.944L167.51,427.944C166.593,427.944 166.134,427.759 166.134,427.39L166.134,425.587C166.134,425.217 166.593,425.033 167.51,425.033ZM167.51,431.324L170.731,431.324C171.649,431.324 172.107,431.508 172.107,431.877L172.107,433.681C172.107,434.05 171.649,434.235 170.731,434.235L167.51,434.235C166.593,434.235 166.134,434.05 166.134,433.681L166.134,431.877C166.134,431.508 166.593,431.324 167.51,431.324ZM161.01,428.185L164.26,428.185C165.178,428.185 165.636,428.37 165.636,428.739L165.636,430.543C165.636,430.912 165.178,431.096 164.26,431.096L161.01,431.096C160.092,431.096 159.634,430.912 159.634,430.543L159.634,428.739C159.634,428.37 160.092,428.185 161.01,428.185ZM161.01,431.324L164.26,431.324C165.178,431.324 165.636,431.508 165.636,431.877L165.636,433.681C165.636,434.05 165.178,434.235 164.26,434.235L161.01,434.235C160.092,434.235 159.634,434.05 159.634,433.681L159.634,431.877C159.634,431.508 160.092,431.324 161.01,431.324ZM154.539,418.756L157.76,418.756C158.677,418.756 159.136,418.941 159.136,419.31L159.136,421.099C159.136,421.469 158.677,421.653 157.76,421.653L154.539,421.653C153.621,421.653 153.163,421.469 153.163,421.099L153.163,419.31C153.163,418.941 153.621,418.756 154.539,418.756ZM154.539,421.895L157.76,421.895C158.677,421.895 159.136,422.079 159.136,422.448L159.136,424.252C159.136,424.621 158.677,424.806 157.76,424.806L154.539,424.806C153.621,424.806 153.163,424.621 153.163,424.252L153.163,422.448C153.163,422.079 153.621,421.895 154.539,421.895ZM154.539,425.033L157.76,425.033C158.677,425.033 159.136,425.217 159.136,425.587L159.136,427.39C159.136,427.759 158.677,427.944 157.76,427.944L154.539,427.944C153.621,427.944 153.163,427.759 153.163,427.39L153.163,425.587C153.163,425.217 153.621,425.033 154.539,425.033ZM154.539,428.185L157.76,428.185C158.677,428.185 159.136,428.37 159.136,428.739L159.136,430.543C159.136,430.912 158.677,431.096 157.76,431.096L154.539,431.096C153.621,431.096 153.163,430.912 153.163,430.543L153.163,428.739C153.163,428.37 153.621,428.185 154.539,428.185ZM154.539,431.324L157.76,431.324C158.677,431.324 159.136,431.508 159.136,431.877L159.136,433.681C159.136,434.05 158.677,434.235 157.76,434.235L154.539,434.235C153.621,434.235 153.163,434.05 153.163,433.681L153.163,431.877C153.163,431.508 153.621,431.324 154.539,431.324ZM154.539,434.476L157.76,434.476C158.677,434.476 159.136,434.661 159.136,435.03L159.136,436.819C159.136,437.188 158.677,437.373 157.76,437.373L154.539,437.373C153.621,437.373 153.163,437.188 153.163,436.819L153.163,435.03C153.163,434.661 153.621,434.476 154.539,434.476ZM154.539,437.614L157.76,437.614C158.677,437.614 159.136,437.799 159.136,438.168L159.136,439.971C159.136,440.341 158.677,440.525 157.76,440.525L154.539,440.525C153.621,440.525 153.163,440.341 153.163,439.971L153.163,438.168C153.163,437.799 153.621,437.614 154.539,437.614ZM154.539,440.752L157.76,440.752C158.677,440.752 159.136,440.937 159.136,441.306L159.136,443.11C159.136,443.479 158.677,443.663 157.76,443.663L154.539,443.663C153.621,443.663 153.163,443.479 153.163,443.11L153.163,441.306C153.163,440.937 153.621,440.752 154.539,440.752Z" style="fill:rgb(197,249,70);fill-rule:nonzero;"/>
                <path d="M201.388,434.476L204.609,434.476C205.527,434.476 205.986,434.661 205.986,435.03L205.986,436.819C205.986,437.188 205.527,437.373 204.609,437.373L201.388,437.373C200.471,437.373 200.012,437.188 200.012,436.819L200.012,435.03C200.012,434.661 200.471,434.476 201.388,434.476ZM201.388,431.324L204.609,431.324C205.527,431.324 205.986,431.508 205.986,431.877L205.986,433.681C205.986,434.05 205.527,434.235 204.609,434.235L201.388,434.235C200.471,434.235 200.012,434.05 200.012,433.681L200.012,431.877C200.012,431.508 200.471,431.324 201.388,431.324ZM201.388,428.185L204.609,428.185C205.527,428.185 205.986,428.37 205.986,428.739L205.986,430.543C205.986,430.912 205.527,431.096 204.609,431.096L201.388,431.096C200.471,431.096 200.012,430.912 200.012,430.543L200.012,428.739C200.012,428.37 200.471,428.185 201.388,428.185ZM201.388,425.033L204.609,425.033C205.527,425.033 205.986,425.217 205.986,425.587L205.986,427.39C205.986,427.759 205.527,427.944 204.609,427.944L201.388,427.944C200.471,427.944 200.012,427.759 200.012,427.39L200.012,425.587C200.012,425.217 200.471,425.033 201.388,425.033ZM201.388,421.895L204.609,421.895C205.527,421.895 205.986,422.079 205.986,422.448L205.986,424.252C205.986,424.621 205.527,424.806 204.609,424.806L201.388,424.806C200.471,424.806 200.012,424.621 200.012,424.252L200.012,422.448C200.012,422.079 200.471,421.895 201.388,421.895ZM201.388,418.756L204.609,418.756C205.527,418.756 205.986,418.941 205.986,419.31L205.986,421.099C205.986,421.469 205.527,421.653 204.609,421.653L201.388,421.653C200.471,421.653 200.012,421.469 200.012,421.099L200.012,419.31C200.012,418.941 200.471,418.756 201.388,418.756ZM201.388,437.614L204.609,437.614C205.527,437.614 205.986,437.799 205.986,438.168L205.986,439.971C205.986,440.341 205.527,440.525 204.609,440.525L201.388,440.525C200.471,440.525 200.012,440.341 200.012,439.971L200.012,438.168C200.012,437.799 200.471,437.614 201.388,437.614ZM207.86,440.752L211.11,440.752C212.027,440.752 212.486,440.937 212.486,441.306L212.486,443.11C212.486,443.479 212.027,443.663 211.11,443.663L207.86,443.663C206.942,443.663 206.483,443.479 206.483,443.11L206.483,441.306C206.483,440.937 206.942,440.752 207.86,440.752ZM214.36,440.752L217.581,440.752C218.498,440.752 218.957,440.937 218.957,441.306L218.957,443.11C218.957,443.479 218.498,443.663 217.581,443.663L214.36,443.663C213.443,443.663 212.984,443.479 212.984,443.11L212.984,441.306C212.984,440.937 213.443,440.752 214.36,440.752ZM220.831,440.752L224.052,440.752C224.97,440.752 225.428,440.937 225.428,441.306L225.428,443.11C225.428,443.479 224.97,443.663 224.052,443.663L220.831,443.663C219.914,443.663 219.455,443.479 219.455,443.11L219.455,441.306C219.455,440.937 219.914,440.752 220.831,440.752ZM227.302,437.614L230.552,437.614C231.47,437.614 231.929,437.799 231.929,438.168L231.929,439.971C231.929,440.341 231.47,440.525 230.552,440.525L227.302,440.525C226.385,440.525 225.926,440.341 225.926,439.971L225.926,438.168C225.926,437.799 226.385,437.614 227.302,437.614ZM227.302,434.476L230.552,434.476C231.47,434.476 231.929,434.661 231.929,435.03L231.929,436.819C231.929,437.188 231.47,437.373 230.552,437.373L227.302,437.373C226.385,437.373 225.926,437.188 225.926,436.819L225.926,435.03C225.926,434.661 226.385,434.476 227.302,434.476ZM227.302,431.324L230.552,431.324C231.47,431.324 231.929,431.508 231.929,431.877L231.929,433.681C231.929,434.05 231.47,434.235 230.552,434.235L227.302,434.235C226.385,434.235 225.926,434.05 225.926,433.681L225.926,431.877C225.926,431.508 226.385,431.324 227.302,431.324ZM227.302,428.185L230.552,428.185C231.47,428.185 231.929,428.37 231.929,428.739L231.929,430.543C231.929,430.912 231.47,431.096 230.552,431.096L227.302,431.096C226.385,431.096 225.926,430.912 225.926,430.543L225.926,428.739C225.926,428.37 226.385,428.185 227.302,428.185ZM227.302,425.033L230.552,425.033C231.47,425.033 231.929,425.217 231.929,425.587L231.929,427.39C231.929,427.759 231.47,427.944 230.552,427.944L227.302,427.944C226.385,427.944 225.926,427.759 225.926,427.39L225.926,425.587C225.926,425.217 226.385,425.033 227.302,425.033ZM227.302,421.895L230.552,421.895C231.47,421.895 231.929,422.079 231.929,422.448L231.929,424.252C231.929,424.621 231.47,424.806 230.552,424.806L227.302,424.806C226.385,424.806 225.926,424.621 225.926,424.252L225.926,422.448C225.926,422.079 226.385,421.895 227.302,421.895ZM227.302,418.756L230.552,418.756C231.47,418.756 231.929,418.941 231.929,419.31L231.929,421.099C231.929,421.469 231.47,421.653 230.552,421.653L227.302,421.653C226.385,421.653 225.926,421.469 225.926,421.099L225.926,419.31C225.926,418.941 226.385,418.756 227.302,418.756Z" style="fill:rgb(197,249,70);fill-rule:nonzero;"/>
                <path d="M133.603,457.872L136.853,457.872C137.77,457.872 138.229,458.057 138.229,458.426L138.229,460.229C138.229,460.599 137.77,460.783 136.853,460.783L133.603,460.783C132.685,460.783 132.227,460.599 132.227,460.229L132.227,458.426C132.227,458.057 132.685,457.872 133.603,457.872ZM133.603,461.01L136.853,461.01C137.77,461.01 138.229,461.195 138.229,461.564L138.229,463.368C138.229,463.737 137.77,463.921 136.853,463.921L133.603,463.921C132.685,463.921 132.227,463.737 132.227,463.368L132.227,461.564C132.227,461.195 132.685,461.01 133.603,461.01ZM133.603,464.163L136.853,464.163C137.77,464.163 138.229,464.347 138.229,464.717L138.229,466.52C138.229,466.889 137.77,467.074 136.853,467.074L133.603,467.074C132.685,467.074 132.227,466.889 132.227,466.52L132.227,464.717C132.227,464.347 132.685,464.163 133.603,464.163ZM133.603,470.453L136.853,470.453C137.77,470.453 138.229,470.638 138.229,471.007L138.229,472.796C138.229,473.166 137.77,473.35 136.853,473.35L133.603,473.35C132.685,473.35 132.227,473.166 132.227,472.796L132.227,471.007C132.227,470.638 132.685,470.453 133.603,470.453ZM133.603,473.592L136.853,473.592C137.77,473.592 138.229,473.776 138.229,474.145L138.229,475.949C138.229,476.318 137.77,476.503 136.853,476.503L133.603,476.503C132.685,476.503 132.227,476.318 132.227,475.949L132.227,474.145C132.227,473.776 132.685,473.592 133.603,473.592ZM133.603,476.73L136.853,476.73C137.77,476.73 138.229,476.915 138.229,477.284L138.229,479.087C138.229,479.456 137.77,479.641 136.853,479.641L133.603,479.641C132.685,479.641 132.227,479.456 132.227,479.087L132.227,477.284C132.227,476.915 132.685,476.73 133.603,476.73ZM127.132,454.734L130.353,454.734C131.27,454.734 131.729,454.918 131.729,455.288L131.729,457.077C131.729,457.446 131.27,457.631 130.353,457.631L127.132,457.631C126.214,457.631 125.755,457.446 125.755,457.077L125.755,455.288C125.755,454.918 126.214,454.734 127.132,454.734ZM127.132,467.301L130.353,467.301C131.27,467.301 131.729,467.486 131.729,467.855L131.729,469.658C131.729,470.027 131.27,470.212 130.353,470.212L127.132,470.212C126.214,470.212 125.755,470.027 125.755,469.658L125.755,467.855C125.755,467.486 126.214,467.301 127.132,467.301ZM120.661,454.734L123.881,454.734C124.799,454.734 125.258,454.918 125.258,455.288L125.258,457.077C125.258,457.446 124.799,457.631 123.881,457.631L120.661,457.631C119.743,457.631 119.284,457.446 119.284,457.077L119.284,455.288C119.284,454.918 119.743,454.734 120.661,454.734ZM120.661,467.301L123.881,467.301C124.799,467.301 125.258,467.486 125.258,467.855L125.258,469.658C125.258,470.027 124.799,470.212 123.881,470.212L120.661,470.212C119.743,470.212 119.284,470.027 119.284,469.658L119.284,467.855C119.284,467.486 119.743,467.301 120.661,467.301ZM114.16,454.734L117.41,454.734C118.328,454.734 118.787,454.918 118.787,455.288L118.787,457.077C118.787,457.446 118.328,457.631 117.41,457.631L114.16,457.631C113.243,457.631 112.784,457.446 112.784,457.077L112.784,455.288C112.784,454.918 113.243,454.734 114.16,454.734ZM114.16,467.301L117.41,467.301C118.328,467.301 118.787,467.486 118.787,467.855L118.787,469.658C118.787,470.027 118.328,470.212 117.41,470.212L114.16,470.212C113.243,470.212 112.784,470.027 112.784,469.658L112.784,467.855C112.784,467.486 113.243,467.301 114.16,467.301ZM107.689,454.734L110.91,454.734C111.827,454.734 112.286,454.918 112.286,455.288L112.286,457.077C112.286,457.446 111.827,457.631 110.91,457.631L107.689,457.631C106.772,457.631 106.313,457.446 106.313,457.077L106.313,455.288C106.313,454.918 106.772,454.734 107.689,454.734ZM107.689,457.872L110.91,457.872C111.827,457.872 112.286,458.057 112.286,458.426L112.286,460.229C112.286,460.599 111.827,460.783 110.91,460.783L107.689,460.783C106.772,460.783 106.313,460.599 106.313,460.229L106.313,458.426C106.313,458.057 106.772,457.872 107.689,457.872ZM107.689,461.01L110.91,461.01C111.827,461.01 112.286,461.195 112.286,461.564L112.286,463.368C112.286,463.737 111.827,463.921 110.91,463.921L107.689,463.921C106.772,463.921 106.313,463.737 106.313,463.368L106.313,461.564C106.313,461.195 106.772,461.01 107.689,461.01ZM107.689,464.163L110.91,464.163C111.827,464.163 112.286,464.347 112.286,464.717L112.286,466.52C112.286,466.889 111.827,467.074 110.91,467.074L107.689,467.074C106.772,467.074 106.313,466.889 106.313,466.52L106.313,464.717C106.313,464.347 106.772,464.163 107.689,464.163ZM107.689,467.301L110.91,467.301C111.827,467.301 112.286,467.486 112.286,467.855L112.286,469.658C112.286,470.027 111.827,470.212 110.91,470.212L107.689,470.212C106.772,470.212 106.313,470.027 106.313,469.658L106.313,467.855C106.313,467.486 106.772,467.301 107.689,467.301ZM107.689,470.453L110.91,470.453C111.827,470.453 112.286,470.638 112.286,471.007L112.286,472.796C112.286,473.166 111.827,473.35 110.91,473.35L107.689,473.35C106.772,473.35 106.313,473.166 106.313,472.796L106.313,471.007C106.313,470.638 106.772,470.453 107.689,470.453ZM107.689,473.592L110.91,473.592C111.827,473.592 112.286,473.776 112.286,474.145L112.286,475.949C112.286,476.318 111.827,476.503 110.91,476.503L107.689,476.503C106.772,476.503 106.313,476.318 106.313,475.949L106.313,474.145C106.313,473.776 106.772,473.592 107.689,473.592ZM107.689,476.73L110.91,476.73C111.827,476.73 112.286,476.915 112.286,477.284L112.286,479.087C112.286,479.456 111.827,479.641 110.91,479.641L107.689,479.641C106.772,479.641 106.313,479.456 106.313,479.087L106.313,477.284C106.313,476.915 106.772,476.73 107.689,476.73Z" style="fill:rgb(197,249,70);fill-rule:nonzero;"/>
                <path d="M180.453,457.872L183.703,457.872C184.62,457.872 185.079,458.057 185.079,458.426L185.079,460.229C185.079,460.599 184.62,460.783 183.703,460.783L180.453,460.783C179.535,460.783 179.076,460.599 179.076,460.229L179.076,458.426C179.076,458.057 179.535,457.872 180.453,457.872ZM180.453,461.01L183.703,461.01C184.62,461.01 185.079,461.195 185.079,461.564L185.079,463.368C185.079,463.737 184.62,463.921 183.703,463.921L180.453,463.921C179.535,463.921 179.076,463.737 179.076,463.368L179.076,461.564C179.076,461.195 179.535,461.01 180.453,461.01ZM180.453,464.163L183.703,464.163C184.62,464.163 185.079,464.347 185.079,464.717L185.079,466.52C185.079,466.889 184.62,467.074 183.703,467.074L180.453,467.074C179.535,467.074 179.076,466.889 179.076,466.52L179.076,464.717C179.076,464.347 179.535,464.163 180.453,464.163ZM180.453,467.301L183.703,467.301C184.62,467.301 185.079,467.486 185.079,467.855L185.079,469.658C185.079,470.027 184.62,470.212 183.703,470.212L180.453,470.212C179.535,470.212 179.076,470.027 179.076,469.658L179.076,467.855C179.076,467.486 179.535,467.301 180.453,467.301ZM180.453,470.453L183.703,470.453C184.62,470.453 185.079,470.638 185.079,471.007L185.079,472.796C185.079,473.166 184.62,473.35 183.703,473.35L180.453,473.35C179.535,473.35 179.076,473.166 179.076,472.796L179.076,471.007C179.076,470.638 179.535,470.453 180.453,470.453ZM180.453,473.592L183.703,473.592C184.62,473.592 185.079,473.776 185.079,474.145L185.079,475.949C185.079,476.318 184.62,476.503 183.703,476.503L180.453,476.503C179.535,476.503 179.076,476.318 179.076,475.949L179.076,474.145C179.076,473.776 179.535,473.592 180.453,473.592ZM180.453,476.73L183.703,476.73C184.62,476.73 185.079,476.915 185.079,477.284L185.079,479.087C185.079,479.456 184.62,479.641 183.703,479.641L180.453,479.641C179.535,479.641 179.076,479.456 179.076,479.087L179.076,477.284C179.076,476.915 179.535,476.73 180.453,476.73ZM173.981,454.734L177.202,454.734C178.12,454.734 178.579,454.918 178.579,455.288L178.579,457.077C178.579,457.446 178.12,457.631 177.202,457.631L173.981,457.631C173.064,457.631 172.605,457.446 172.605,457.077L172.605,455.288C172.605,454.918 173.064,454.734 173.981,454.734ZM173.981,470.453L177.202,470.453C178.12,470.453 178.579,470.638 178.579,471.007L178.579,472.796C178.579,473.166 178.12,473.35 177.202,473.35L173.981,473.35C173.064,473.35 172.605,473.166 172.605,472.796L172.605,471.007C172.605,470.638 173.064,470.453 173.981,470.453ZM167.51,454.734L170.731,454.734C171.649,454.734 172.107,454.918 172.107,455.288L172.107,457.077C172.107,457.446 171.649,457.631 170.731,457.631L167.51,457.631C166.593,457.631 166.134,457.446 166.134,457.077L166.134,455.288C166.134,454.918 166.593,454.734 167.51,454.734ZM167.51,470.453L170.731,470.453C171.649,470.453 172.107,470.638 172.107,471.007L172.107,472.796C172.107,473.166 171.649,473.35 170.731,473.35L167.51,473.35C166.593,473.35 166.134,473.166 166.134,472.796L166.134,471.007C166.134,470.638 166.593,470.453 167.51,470.453ZM161.01,454.734L164.26,454.734C165.178,454.734 165.636,454.918 165.636,455.288L165.636,457.077C165.636,457.446 165.178,457.631 164.26,457.631L161.01,457.631C160.092,457.631 159.634,457.446 159.634,457.077L159.634,455.288C159.634,454.918 160.092,454.734 161.01,454.734ZM161.01,470.453L164.26,470.453C165.178,470.453 165.636,470.638 165.636,471.007L165.636,472.796C165.636,473.166 165.178,473.35 164.26,473.35L161.01,473.35C160.092,473.35 159.634,473.166 159.634,472.796L159.634,471.007C159.634,470.638 160.092,470.453 161.01,470.453ZM154.539,457.872L157.76,457.872C158.677,457.872 159.136,458.057 159.136,458.426L159.136,460.229C159.136,460.599 158.677,460.783 157.76,460.783L154.539,460.783C153.621,460.783 153.163,460.599 153.163,460.229L153.163,458.426C153.163,458.057 153.621,457.872 154.539,457.872ZM154.539,461.01L157.76,461.01C158.677,461.01 159.136,461.195 159.136,461.564L159.136,463.368C159.136,463.737 158.677,463.921 157.76,463.921L154.539,463.921C153.621,463.921 153.163,463.737 153.163,463.368L153.163,461.564C153.163,461.195 153.621,461.01 154.539,461.01ZM154.539,464.163L157.76,464.163C158.677,464.163 159.136,464.347 159.136,464.717L159.136,466.52C159.136,466.889 158.677,467.074 157.76,467.074L154.539,467.074C153.621,467.074 153.163,466.889 153.163,466.52L153.163,464.717C153.163,464.347 153.621,464.163 154.539,464.163ZM154.539,467.301L157.76,467.301C158.677,467.301 159.136,467.486 159.136,467.855L159.136,469.658C159.136,470.027 158.677,470.212 157.76,470.212L154.539,470.212C153.621,470.212 153.163,470.027 153.163,469.658L153.163,467.855C153.163,467.486 153.621,467.301 154.539,467.301ZM154.539,470.453L157.76,470.453C158.677,470.453 159.136,470.638 159.136,471.007L159.136,472.796C159.136,473.166 158.677,473.35 157.76,473.35L154.539,473.35C153.621,473.35 153.163,473.166 153.163,472.796L153.163,471.007C153.163,470.638 153.621,470.453 154.539,470.453ZM154.539,473.592L157.76,473.592C158.677,473.592 159.136,473.776 159.136,474.145L159.136,475.949C159.136,476.318 158.677,476.503 157.76,476.503L154.539,476.503C153.621,476.503 153.163,476.318 153.163,475.949L153.163,474.145C153.163,473.776 153.621,473.592 154.539,473.592ZM154.539,476.73L157.76,476.73C158.677,476.73 159.136,476.915 159.136,477.284L159.136,479.087C159.136,479.456 158.677,479.641 157.76,479.641L154.539,479.641C153.621,479.641 153.163,479.456 153.163,479.087L153.163,477.284C153.163,476.915 153.621,476.73 154.539,476.73Z" style="fill:rgb(197,249,70);fill-rule:nonzero;"/>
                <path d="M201.388,454.734L204.609,454.734C205.527,454.734 205.986,454.918 205.986,455.288L205.986,457.077C205.986,457.446 205.527,457.631 204.609,457.631L201.388,457.631C200.471,457.631 200.012,457.446 200.012,457.077L200.012,455.288C200.012,454.918 200.471,454.734 201.388,454.734ZM207.86,454.734L211.11,454.734C212.027,454.734 212.486,454.918 212.486,455.288L212.486,457.077C212.486,457.446 212.027,457.631 211.11,457.631L207.86,457.631C206.942,457.631 206.483,457.446 206.483,457.077L206.483,455.288C206.483,454.918 206.942,454.734 207.86,454.734ZM214.36,476.73L217.581,476.73C218.498,476.73 218.957,476.915 218.957,477.284L218.957,479.087C218.957,479.456 218.498,479.641 217.581,479.641L214.36,479.641C213.443,479.641 212.984,479.456 212.984,479.087L212.984,477.284C212.984,476.915 213.443,476.73 214.36,476.73ZM214.36,473.592L217.581,473.592C218.498,473.592 218.957,473.776 218.957,474.145L218.957,475.949C218.957,476.318 218.498,476.503 217.581,476.503L214.36,476.503C213.443,476.503 212.984,476.318 212.984,475.949L212.984,474.145C212.984,473.776 213.443,473.592 214.36,473.592ZM214.36,470.453L217.581,470.453C218.498,470.453 218.957,470.638 218.957,471.007L218.957,472.796C218.957,473.166 218.498,473.35 217.581,473.35L214.36,473.35C213.443,473.35 212.984,473.166 212.984,472.796L212.984,471.007C212.984,470.638 213.443,470.453 214.36,470.453ZM214.36,467.301L217.581,467.301C218.498,467.301 218.957,467.486 218.957,467.855L218.957,469.658C218.957,470.027 218.498,470.212 217.581,470.212L214.36,470.212C213.443,470.212 212.984,470.027 212.984,469.658L212.984,467.855C212.984,467.486 213.443,467.301 214.36,467.301ZM214.36,464.163L217.581,464.163C218.498,464.163 218.957,464.347 218.957,464.717L218.957,466.52C218.957,466.889 218.498,467.074 217.581,467.074L214.36,467.074C213.443,467.074 212.984,466.889 212.984,466.52L212.984,464.717C212.984,464.347 213.443,464.163 214.36,464.163ZM214.36,461.01L217.581,461.01C218.498,461.01 218.957,461.195 218.957,461.564L218.957,463.368C218.957,463.737 218.498,463.921 217.581,463.921L214.36,463.921C213.443,463.921 212.984,463.737 212.984,463.368L212.984,461.564C212.984,461.195 213.443,461.01 214.36,461.01ZM214.36,457.872L217.581,457.872C218.498,457.872 218.957,458.057 218.957,458.426L218.957,460.229C218.957,460.599 218.498,460.783 217.581,460.783L214.36,460.783C213.443,460.783 212.984,460.599 212.984,460.229L212.984,458.426C212.984,458.057 213.443,457.872 214.36,457.872ZM214.36,454.734L217.581,454.734C218.498,454.734 218.957,454.918 218.957,455.288L218.957,457.077C218.957,457.446 218.498,457.631 217.581,457.631L214.36,457.631C213.443,457.631 212.984,457.446 212.984,457.077L212.984,455.288C212.984,454.918 213.443,454.734 214.36,454.734ZM220.831,454.734L224.052,454.734C224.97,454.734 225.428,454.918 225.428,455.288L225.428,457.077C225.428,457.446 224.97,457.631 224.052,457.631L220.831,457.631C219.914,457.631 219.455,457.446 219.455,457.077L219.455,455.288C219.455,454.918 219.914,454.734 220.831,454.734ZM227.302,454.734L230.552,454.734C231.47,454.734 231.929,454.918 231.929,455.288L231.929,457.077C231.929,457.446 231.47,457.631 230.552,457.631L227.302,457.631C226.385,457.631 225.926,457.446 225.926,457.077L225.926,455.288C225.926,454.918 226.385,454.734 227.302,454.734Z" style="fill:rgb(197,249,70);fill-rule:nonzero;"/>
                <path d="M133.603,493.85L136.853,493.85C137.77,493.85 138.229,494.034 138.229,494.403L138.229,496.207C138.229,496.576 137.77,496.761 136.853,496.761L133.603,496.761C132.685,496.761 132.227,496.576 132.227,496.207L132.227,494.403C132.227,494.034 132.685,493.85 133.603,493.85ZM133.603,496.988L136.853,496.988C137.77,496.988 138.229,497.172 138.229,497.542L138.229,499.345C138.229,499.714 137.77,499.899 136.853,499.899L133.603,499.899C132.685,499.899 132.227,499.714 132.227,499.345L132.227,497.542C132.227,497.172 132.685,496.988 133.603,496.988ZM133.603,500.14L136.853,500.14C137.77,500.14 138.229,500.325 138.229,500.694L138.229,502.497C138.229,502.867 137.77,503.051 136.853,503.051L133.603,503.051C132.685,503.051 132.227,502.867 132.227,502.497L132.227,500.694C132.227,500.325 132.685,500.14 133.603,500.14ZM133.603,503.279L136.853,503.279C137.77,503.279 138.229,503.463 138.229,503.832L138.229,505.636C138.229,506.005 137.77,506.19 136.853,506.19L133.603,506.19C132.685,506.19 132.227,506.005 132.227,505.636L132.227,503.832C132.227,503.463 132.685,503.279 133.603,503.279ZM133.603,506.431L136.853,506.431C137.77,506.431 138.229,506.616 138.229,506.985L138.229,508.774C138.229,509.143 137.77,509.328 136.853,509.328L133.603,509.328C132.685,509.328 132.227,509.143 132.227,508.774L132.227,506.985C132.227,506.616 132.685,506.431 133.603,506.431ZM133.603,509.569L136.853,509.569C137.77,509.569 138.229,509.754 138.229,510.123L138.229,511.926C138.229,512.296 137.77,512.48 136.853,512.48L133.603,512.48C132.685,512.48 132.227,512.296 132.227,511.926L132.227,510.123C132.227,509.754 132.685,509.569 133.603,509.569ZM127.132,490.711L130.353,490.711C131.27,490.711 131.729,490.896 131.729,491.265L131.729,493.054C131.729,493.424 131.27,493.608 130.353,493.608L127.132,493.608C126.214,493.608 125.755,493.424 125.755,493.054L125.755,491.265C125.755,490.896 126.214,490.711 127.132,490.711ZM127.132,512.707L130.353,512.707C131.27,512.707 131.729,512.892 131.729,513.261L131.729,515.065C131.729,515.434 131.27,515.618 130.353,515.618L127.132,515.618C126.214,515.618 125.755,515.434 125.755,515.065L125.755,513.261C125.755,512.892 126.214,512.707 127.132,512.707ZM120.661,490.711L123.881,490.711C124.799,490.711 125.258,490.896 125.258,491.265L125.258,493.054C125.258,493.424 124.799,493.608 123.881,493.608L120.661,493.608C119.743,493.608 119.284,493.424 119.284,493.054L119.284,491.265C119.284,490.896 119.743,490.711 120.661,490.711ZM120.661,512.707L123.881,512.707C124.799,512.707 125.258,512.892 125.258,513.261L125.258,515.065C125.258,515.434 124.799,515.618 123.881,515.618L120.661,515.618C119.743,515.618 119.284,515.434 119.284,515.065L119.284,513.261C119.284,512.892 119.743,512.707 120.661,512.707ZM114.16,490.711L117.41,490.711C118.328,490.711 118.787,490.896 118.787,491.265L118.787,493.054C118.787,493.424 118.328,493.608 117.41,493.608L114.16,493.608C113.243,493.608 112.784,493.424 112.784,493.054L112.784,491.265C112.784,490.896 113.243,490.711 114.16,490.711ZM114.16,512.707L117.41,512.707C118.328,512.707 118.787,512.892 118.787,513.261L118.787,515.065C118.787,515.434 118.328,515.618 117.41,515.618L114.16,515.618C113.243,515.618 112.784,515.434 112.784,515.065L112.784,513.261C112.784,512.892 113.243,512.707 114.16,512.707ZM107.689,493.85L110.91,493.85C111.827,493.85 112.286,494.034 112.286,494.403L112.286,496.207C112.286,496.576 111.827,496.761 110.91,496.761L107.689,496.761C106.772,496.761 106.313,496.576 106.313,496.207L106.313,494.403C106.313,494.034 106.772,493.85 107.689,493.85ZM107.689,496.988L110.91,496.988C111.827,496.988 112.286,497.172 112.286,497.542L112.286,499.345C112.286,499.714 111.827,499.899 110.91,499.899L107.689,499.899C106.772,499.899 106.313,499.714 106.313,499.345L106.313,497.542C106.313,497.172 106.772,496.988 107.689,496.988ZM107.689,500.14L110.91,500.14C111.827,500.14 112.286,500.325 112.286,500.694L112.286,502.497C112.286,502.867 111.827,503.051 110.91,503.051L107.689,503.051C106.772,503.051 106.313,502.867 106.313,502.497L106.313,500.694C106.313,500.325 106.772,500.14 107.689,500.14ZM107.689,503.279L110.91,503.279C111.827,503.279 112.286,503.463 112.286,503.832L112.286,505.636C112.286,506.005 111.827,506.19 110.91,506.19L107.689,506.19C106.772,506.19 106.313,506.005 106.313,505.636L106.313,503.832C106.313,503.463 106.772,503.279 107.689,503.279ZM107.689,506.431L110.91,506.431C111.827,506.431 112.286,506.616 112.286,506.985L112.286,508.774C112.286,509.143 111.827,509.328 110.91,509.328L107.689,509.328C106.772,509.328 106.313,509.143 106.313,508.774L106.313,506.985C106.313,506.616 106.772,506.431 107.689,506.431ZM107.689,509.569L110.91,509.569C111.827,509.569 112.286,509.754 112.286,510.123L112.286,511.926C112.286,512.296 111.827,512.48 110.91,512.48L107.689,512.48C106.772,512.48 106.313,512.296 106.313,511.926L106.313,510.123C106.313,509.754 106.772,509.569 107.689,509.569Z" style="fill:rgb(197,249,70);fill-rule:nonzero;"/>
                <path d="M154.539,506.431L157.76,506.431C158.677,506.431 159.136,506.616 159.136,506.985L159.136,508.774C159.136,509.143 158.677,509.328 157.76,509.328L154.539,509.328C153.621,509.328 153.163,509.143 153.163,508.774L153.163,506.985C153.163,506.616 153.621,506.431 154.539,506.431ZM154.539,503.279L157.76,503.279C158.677,503.279 159.136,503.463 159.136,503.832L159.136,505.636C159.136,506.005 158.677,506.19 157.76,506.19L154.539,506.19C153.621,506.19 153.163,506.005 153.163,505.636L153.163,503.832C153.163,503.463 153.621,503.279 154.539,503.279ZM154.539,500.14L157.76,500.14C158.677,500.14 159.136,500.325 159.136,500.694L159.136,502.497C159.136,502.867 158.677,503.051 157.76,503.051L154.539,503.051C153.621,503.051 153.163,502.867 153.163,502.497L153.163,500.694C153.163,500.325 153.621,500.14 154.539,500.14ZM154.539,496.988L157.76,496.988C158.677,496.988 159.136,497.172 159.136,497.542L159.136,499.345C159.136,499.714 158.677,499.899 157.76,499.899L154.539,499.899C153.621,499.899 153.163,499.714 153.163,499.345L153.163,497.542C153.163,497.172 153.621,496.988 154.539,496.988ZM154.539,493.85L157.76,493.85C158.677,493.85 159.136,494.034 159.136,494.403L159.136,496.207C159.136,496.576 158.677,496.761 157.76,496.761L154.539,496.761C153.621,496.761 153.163,496.576 153.163,496.207L153.163,494.403C153.163,494.034 153.621,493.85 154.539,493.85ZM154.539,490.711L157.76,490.711C158.677,490.711 159.136,490.896 159.136,491.265L159.136,493.054C159.136,493.424 158.677,493.608 157.76,493.608L154.539,493.608C153.621,493.608 153.163,493.424 153.163,493.054L153.163,491.265C153.163,490.896 153.621,490.711 154.539,490.711ZM167.51,512.707L170.731,512.707C171.649,512.707 172.107,512.892 172.107,513.261L172.107,515.065C172.107,515.434 171.649,515.618 170.731,515.618L167.51,515.618C166.593,515.618 166.134,515.434 166.134,515.065L166.134,513.261C166.134,512.892 166.593,512.707 167.51,512.707ZM173.981,512.707L177.202,512.707C178.12,512.707 178.579,512.892 178.579,513.261L178.579,515.065C178.579,515.434 178.12,515.618 177.202,515.618L173.981,515.618C173.064,515.618 172.605,515.434 172.605,515.065L172.605,513.261C172.605,512.892 173.064,512.707 173.981,512.707ZM161.01,509.569L164.26,509.569C165.178,509.569 165.636,509.754 165.636,510.123L165.636,511.926C165.636,512.296 165.178,512.48 164.26,512.48L161.01,512.48C160.092,512.48 159.634,512.296 159.634,511.926L159.634,510.123C159.634,509.754 160.092,509.569 161.01,509.569ZM180.453,509.569L183.703,509.569C184.62,509.569 185.079,509.754 185.079,510.123L185.079,511.926C185.079,512.296 184.62,512.48 183.703,512.48L180.453,512.48C179.535,512.48 179.076,512.296 179.076,511.926L179.076,510.123C179.076,509.754 179.535,509.569 180.453,509.569ZM186.953,506.431L190.174,506.431C191.091,506.431 191.55,506.616 191.55,506.985L191.55,508.774C191.55,509.143 191.091,509.328 190.174,509.328L186.953,509.328C186.035,509.328 185.577,509.143 185.577,508.774L185.577,506.985C185.577,506.616 186.035,506.431 186.953,506.431ZM186.953,503.279L190.174,503.279C191.091,503.279 191.55,503.463 191.55,503.832L191.55,505.636C191.55,506.005 191.091,506.19 190.174,506.19L186.953,506.19C186.035,506.19 185.577,506.005 185.577,505.636L185.577,503.832C185.577,503.463 186.035,503.279 186.953,503.279ZM186.953,500.14L190.174,500.14C191.091,500.14 191.55,500.325 191.55,500.694L191.55,502.497C191.55,502.867 191.091,503.051 190.174,503.051L186.953,503.051C186.035,503.051 185.577,502.867 185.577,502.497L185.577,500.694C185.577,500.325 186.035,500.14 186.953,500.14ZM186.953,496.988L190.174,496.988C191.091,496.988 191.55,497.172 191.55,497.542L191.55,499.345C191.55,499.714 191.091,499.899 190.174,499.899L186.953,499.899C186.035,499.899 185.577,499.714 185.577,499.345L185.577,497.542C185.577,497.172 186.035,496.988 186.953,496.988ZM186.953,493.85L190.174,493.85C191.091,493.85 191.55,494.034 191.55,494.403L191.55,496.207C191.55,496.576 191.091,496.761 190.174,496.761L186.953,496.761C186.035,496.761 185.577,496.576 185.577,496.207L185.577,494.403C185.577,494.034 186.035,493.85 186.953,493.85ZM186.953,490.711L190.174,490.711C191.091,490.711 191.55,490.896 191.55,491.265L191.55,493.054C191.55,493.424 191.091,493.608 190.174,493.608L186.953,493.608C186.035,493.608 185.577,493.424 185.577,493.054L185.577,491.265C185.577,490.896 186.035,490.711 186.953,490.711Z" style="fill:rgb(197,249,70);fill-rule:nonzero;"/>
            </g>
            <g transform="matrix(1.03265,0,0,1.10757,727.292,-22.1217)">
                <path d="M152.082,418.791L157.097,418.791C158.513,418.791 159.221,419.428 159.221,420.702L159.221,426.874C159.221,428.147 158.513,428.784 157.097,428.784L152.082,428.784C150.666,428.784 149.958,428.147 149.958,426.874L149.958,420.702C149.958,419.428 150.666,418.791 152.082,418.791ZM152.082,494.668L157.097,494.668C158.513,494.668 159.221,495.304 159.221,496.578L159.221,502.799C159.221,504.072 158.513,504.709 157.097,504.709L152.082,504.709C150.666,504.709 149.958,504.072 149.958,502.799L149.958,496.578C149.958,495.304 150.666,494.668 152.082,494.668ZM152.082,483.842L157.097,483.842C158.513,483.842 159.221,484.479 159.221,485.752L159.221,491.973C159.221,493.247 158.513,493.884 157.097,493.884L152.082,493.884C150.666,493.884 149.958,493.247 149.958,491.973L149.958,485.752C149.958,484.479 150.666,483.842 152.082,483.842ZM142.096,429.617L147.066,429.617C148.482,429.617 149.19,430.253 149.19,431.527L149.19,437.748C149.19,439.022 148.482,439.658 147.066,439.658L142.096,439.658C140.681,439.658 139.973,439.022 139.973,437.748L139.973,431.527C139.973,430.253 140.681,429.617 142.096,429.617ZM142.096,473.017L147.066,473.017C148.482,473.017 149.19,473.653 149.19,474.927L149.19,481.099C149.19,482.373 148.482,483.009 147.066,483.009L142.096,483.009C140.681,483.009 139.973,482.373 139.973,481.099L139.973,474.927C139.973,473.653 140.681,473.017 142.096,473.017ZM132.111,440.442L137.081,440.442C138.497,440.442 139.205,441.079 139.205,442.353L139.205,448.573C139.205,449.847 138.497,450.484 137.081,450.484L132.111,450.484C130.695,450.484 129.987,449.847 129.987,448.573L129.987,442.353C129.987,441.079 130.695,440.442 132.111,440.442ZM132.111,462.142L137.081,462.142C138.497,462.142 139.205,462.779 139.205,464.052L139.205,470.273C139.205,471.547 138.497,472.184 137.081,472.184L132.111,472.184C130.695,472.184 129.987,471.547 129.987,470.273L129.987,464.052C129.987,462.779 130.695,462.142 132.111,462.142ZM122.08,451.317L127.096,451.317C128.511,451.317 129.219,451.953 129.219,453.227L129.219,459.448C129.219,460.722 128.511,461.358 127.096,461.358L122.08,461.358C120.665,461.358 119.957,460.722 119.957,459.448L119.957,453.227C119.957,451.953 120.665,451.317 122.08,451.317ZM112.095,418.791L117.065,418.791C118.481,418.791 119.189,419.428 119.189,420.702L119.189,426.874C119.189,428.147 118.481,428.784 117.065,428.784L112.095,428.784C110.679,428.784 109.971,428.147 109.971,426.874L109.971,420.702C109.971,419.428 110.679,418.791 112.095,418.791ZM112.095,429.617L117.065,429.617C118.481,429.617 119.189,430.253 119.189,431.527L119.189,437.748C119.189,439.022 118.481,439.658 117.065,439.658L112.095,439.658C110.679,439.658 109.971,439.022 109.971,437.748L109.971,431.527C109.971,430.253 110.679,429.617 112.095,429.617ZM112.095,440.442L117.065,440.442C118.481,440.442 119.189,441.079 119.189,442.353L119.189,448.573C119.189,449.847 118.481,450.484 117.065,450.484L112.095,450.484C110.679,450.484 109.971,449.847 109.971,448.573L109.971,442.353C109.971,441.079 110.679,440.442 112.095,440.442ZM112.095,451.317L117.065,451.317C118.481,451.317 119.189,451.953 119.189,453.227L119.189,459.448C119.189,460.722 118.481,461.358 117.065,461.358L112.095,461.358C110.679,461.358 109.971,460.722 109.971,459.448L109.971,453.227C109.971,451.953 110.679,451.317 112.095,451.317ZM112.095,462.142L117.065,462.142C118.481,462.142 119.189,462.779 119.189,464.052L119.189,470.273C119.189,471.547 118.481,472.184 117.065,472.184L112.095,472.184C110.679,472.184 109.971,471.547 109.971,470.273L109.971,464.052C109.971,462.779 110.679,462.142 112.095,462.142ZM112.095,473.017L117.065,473.017C118.481,473.017 119.189,473.653 119.189,474.927L119.189,481.099C119.189,482.373 118.481,483.009 117.065,483.009L112.095,483.009C110.679,483.009 109.971,482.373 109.971,481.099L109.971,474.927C109.971,473.653 110.679,473.017 112.095,473.017ZM112.095,483.842L117.065,483.842C118.481,483.842 119.189,484.479 119.189,485.752L119.189,491.973C119.189,493.247 118.481,493.884 117.065,493.884L112.095,493.884C110.679,493.884 109.971,493.247 109.971,491.973L109.971,485.752C109.971,484.479 110.679,483.842 112.095,483.842ZM112.095,494.668L117.065,494.668C118.481,494.668 119.189,495.304 119.189,496.578L119.189,502.799C119.189,504.072 118.481,504.709 117.065,504.709L112.095,504.709C110.679,504.709 109.971,504.072 109.971,502.799L109.971,496.578C109.971,495.304 110.679,494.668 112.095,494.668Z" style="fill:rgb(197,249,70);fill-rule:nonzero;"/>
                <path d="M224.374,429.617L229.39,429.617C230.805,429.617 231.513,430.253 231.513,431.527L231.513,437.748C231.513,439.022 230.805,439.658 229.39,439.658L224.374,439.658C222.959,439.658 222.251,439.022 222.251,437.748L222.251,431.527C222.251,430.253 222.959,429.617 224.374,429.617ZM224.374,440.442L229.39,440.442C230.805,440.442 231.513,441.079 231.513,442.353L231.513,448.573C231.513,449.847 230.805,450.484 229.39,450.484L224.374,450.484C222.959,450.484 222.251,449.847 222.251,448.573L222.251,442.353C222.251,441.079 222.959,440.442 224.374,440.442ZM224.374,451.317L229.39,451.317C230.805,451.317 231.513,451.953 231.513,453.227L231.513,459.448C231.513,460.722 230.805,461.358 229.39,461.358L224.374,461.358C222.959,461.358 222.251,460.722 222.251,459.448L222.251,453.227C222.251,451.953 222.959,451.317 224.374,451.317ZM224.374,462.142L229.39,462.142C230.805,462.142 231.513,462.779 231.513,464.052L231.513,470.273C231.513,471.547 230.805,472.184 229.39,472.184L224.374,472.184C222.959,472.184 222.251,471.547 222.251,470.273L222.251,464.052C222.251,462.779 222.959,462.142 224.374,462.142ZM224.374,473.017L229.39,473.017C230.805,473.017 231.513,473.653 231.513,474.927L231.513,481.099C231.513,482.373 230.805,483.009 229.39,483.009L224.374,483.009C222.959,483.009 222.251,482.373 222.251,481.099L222.251,474.927C222.251,473.653 222.959,473.017 224.374,473.017ZM224.374,483.842L229.39,483.842C230.805,483.842 231.513,484.479 231.513,485.752L231.513,491.973C231.513,493.247 230.805,493.884 229.39,493.884L224.374,493.884C222.959,493.884 222.251,493.247 222.251,491.973L222.251,485.752C222.251,484.479 222.959,483.842 224.374,483.842ZM214.389,418.791L219.359,418.791C220.775,418.791 221.483,419.428 221.483,420.702L221.483,426.874C221.483,428.147 220.775,428.784 219.359,428.784L214.389,428.784C212.973,428.784 212.265,428.147 212.265,426.874L212.265,420.702C212.265,419.428 212.973,418.791 214.389,418.791ZM214.389,494.668L219.359,494.668C220.775,494.668 221.483,495.304 221.483,496.578L221.483,502.799C221.483,504.072 220.775,504.709 219.359,504.709L214.389,504.709C212.973,504.709 212.265,504.072 212.265,502.799L212.265,496.578C212.265,495.304 212.973,494.668 214.389,494.668ZM204.404,418.791L209.374,418.791C210.789,418.791 211.497,419.428 211.497,420.702L211.497,426.874C211.497,428.147 210.789,428.784 209.374,428.784L204.404,428.784C202.988,428.784 202.28,428.147 202.28,426.874L202.28,420.702C202.28,419.428 202.988,418.791 204.404,418.791ZM204.404,494.668L209.374,494.668C210.789,494.668 211.497,495.304 211.497,496.578L211.497,502.799C211.497,504.072 210.789,504.709 209.374,504.709L204.404,504.709C202.988,504.709 202.28,504.072 202.28,502.799L202.28,496.578C202.28,495.304 202.988,494.668 204.404,494.668ZM194.373,418.791L199.388,418.791C200.804,418.791 201.512,419.428 201.512,420.702L201.512,426.874C201.512,428.147 200.804,428.784 199.388,428.784L194.373,428.784C192.957,428.784 192.249,428.147 192.249,426.874L192.249,420.702C192.249,419.428 192.957,418.791 194.373,418.791ZM194.373,494.668L199.388,494.668C200.804,494.668 201.512,495.304 201.512,496.578L201.512,502.799C201.512,504.072 200.804,504.709 199.388,504.709L194.373,504.709C192.957,504.709 192.249,504.072 192.249,502.799L192.249,496.578C192.249,495.304 192.957,494.668 194.373,494.668ZM184.388,429.617L189.358,429.617C190.773,429.617 191.481,430.253 191.481,431.527L191.481,437.748C191.481,439.022 190.773,439.658 189.358,439.658L184.388,439.658C182.972,439.658 182.264,439.022 182.264,437.748L182.264,431.527C182.264,430.253 182.972,429.617 184.388,429.617ZM184.388,440.442L189.358,440.442C190.773,440.442 191.481,441.079 191.481,442.353L191.481,448.573C191.481,449.847 190.773,450.484 189.358,450.484L184.388,450.484C182.972,450.484 182.264,449.847 182.264,448.573L182.264,442.353C182.264,441.079 182.972,440.442 184.388,440.442ZM184.388,451.317L189.358,451.317C190.773,451.317 191.481,451.953 191.481,453.227L191.481,459.448C191.481,460.722 190.773,461.358 189.358,461.358L184.388,461.358C182.972,461.358 182.264,460.722 182.264,459.448L182.264,453.227C182.264,451.953 182.972,451.317 184.388,451.317ZM184.388,462.142L189.358,462.142C190.773,462.142 191.481,462.779 191.481,464.052L191.481,470.273C191.481,471.547 190.773,472.184 189.358,472.184L184.388,472.184C182.972,472.184 182.264,471.547 182.264,470.273L182.264,464.052C182.264,462.779 182.972,462.142 184.388,462.142ZM184.388,473.017L189.358,473.017C190.773,473.017 191.481,473.653 191.481,474.927L191.481,481.099C191.481,482.373 190.773,483.009 189.358,483.009L184.388,483.009C182.972,483.009 182.264,482.373 182.264,481.099L182.264,474.927C182.264,473.653 182.972,473.017 184.388,473.017ZM184.388,483.842L189.358,483.842C190.773,483.842 191.481,484.479 191.481,485.752L191.481,491.973C191.481,493.247 190.773,493.884 189.358,493.884L184.388,493.884C182.972,493.884 182.264,493.247 182.264,491.973L182.264,485.752C182.264,484.479 182.972,483.842 184.388,483.842Z" style="fill:rgb(197,249,70);fill-rule:nonzero;"/>
                <path d="M256.68,494.668L261.65,494.668C263.066,494.668 263.774,495.304 263.774,496.578L263.774,502.799C263.774,504.072 263.066,504.709 261.65,504.709L256.68,504.709C255.265,504.709 254.557,504.072 254.557,502.799L254.557,496.578C254.557,495.304 255.265,494.668 256.68,494.668ZM256.68,483.842L261.65,483.842C263.066,483.842 263.774,484.479 263.774,485.752L263.774,491.973C263.774,493.247 263.066,493.884 261.65,493.884L256.68,493.884C255.265,493.884 254.557,493.247 254.557,491.973L254.557,485.752C254.557,484.479 255.265,483.842 256.68,483.842ZM256.68,473.017L261.65,473.017C263.066,473.017 263.774,473.653 263.774,474.927L263.774,481.099C263.774,482.373 263.066,483.009 261.65,483.009L256.68,483.009C255.265,483.009 254.557,482.373 254.557,481.099L254.557,474.927C254.557,473.653 255.265,473.017 256.68,473.017ZM256.68,462.142L261.65,462.142C263.066,462.142 263.774,462.779 263.774,464.052L263.774,470.273C263.774,471.547 263.066,472.184 261.65,472.184L256.68,472.184C255.265,472.184 254.557,471.547 254.557,470.273L254.557,464.052C254.557,462.779 255.265,462.142 256.68,462.142ZM256.68,451.317L261.65,451.317C263.066,451.317 263.774,451.953 263.774,453.227L263.774,459.448C263.774,460.722 263.066,461.358 261.65,461.358L256.68,461.358C255.265,461.358 254.557,460.722 254.557,459.448L254.557,453.227C254.557,451.953 255.265,451.317 256.68,451.317ZM256.68,440.442L261.65,440.442C263.066,440.442 263.774,441.079 263.774,442.353L263.774,448.573C263.774,449.847 263.066,450.484 261.65,450.484L256.68,450.484C255.265,450.484 254.557,449.847 254.557,448.573L254.557,442.353C254.557,441.079 255.265,440.442 256.68,440.442ZM256.68,429.617L261.65,429.617C263.066,429.617 263.774,430.253 263.774,431.527L263.774,437.748C263.774,439.022 263.066,439.658 261.65,439.658L256.68,439.658C255.265,439.658 254.557,439.022 254.557,437.748L254.557,431.527C254.557,430.253 255.265,429.617 256.68,429.617ZM256.68,418.791L261.65,418.791C263.066,418.791 263.774,419.428 263.774,420.702L263.774,426.874C263.774,428.147 263.066,428.784 261.65,428.784L256.68,428.784C255.265,428.784 254.557,428.147 254.557,426.874L254.557,420.702C254.557,419.428 255.265,418.791 256.68,418.791ZM266.666,462.142L271.681,462.142C273.097,462.142 273.805,462.779 273.805,464.052L273.805,470.273C273.805,471.547 273.097,472.184 271.681,472.184L266.666,472.184C265.25,472.184 264.542,471.547 264.542,470.273L264.542,464.052C264.542,462.779 265.25,462.142 266.666,462.142ZM266.666,418.791L271.681,418.791C273.097,418.791 273.805,419.428 273.805,420.702L273.805,426.874C273.805,428.147 273.097,428.784 271.681,428.784L266.666,428.784C265.25,428.784 264.542,428.147 264.542,426.874L264.542,420.702C264.542,419.428 265.25,418.791 266.666,418.791ZM276.696,462.142L281.666,462.142C283.082,462.142 283.79,462.779 283.79,464.052L283.79,470.273C283.79,471.547 283.082,472.184 281.666,472.184L276.696,472.184C275.281,472.184 274.573,471.547 274.573,470.273L274.573,464.052C274.573,462.779 275.281,462.142 276.696,462.142ZM276.696,418.791L281.666,418.791C283.082,418.791 283.79,419.428 283.79,420.702L283.79,426.874C283.79,428.147 283.082,428.784 281.666,428.784L276.696,428.784C275.281,428.784 274.573,428.147 274.573,426.874L274.573,420.702C274.573,419.428 275.281,418.791 276.696,418.791ZM286.682,462.142L291.652,462.142C293.068,462.142 293.775,462.779 293.775,464.052L293.775,470.273C293.775,471.547 293.068,472.184 291.652,472.184L286.682,472.184C285.266,472.184 284.558,471.547 284.558,470.273L284.558,464.052C284.558,462.779 285.266,462.142 286.682,462.142ZM286.682,418.791L291.652,418.791C293.068,418.791 293.775,419.428 293.775,420.702L293.775,426.874C293.775,428.147 293.068,428.784 291.652,428.784L286.682,428.784C285.266,428.784 284.558,428.147 284.558,426.874L284.558,420.702C284.558,419.428 285.266,418.791 286.682,418.791ZM296.667,451.317L301.682,451.317C303.098,451.317 303.806,451.953 303.806,453.227L303.806,459.448C303.806,460.722 303.098,461.358 301.682,461.358L296.667,461.358C295.251,461.358 294.544,460.722 294.544,459.448L294.544,453.227C294.544,451.953 295.251,451.317 296.667,451.317ZM296.667,440.442L301.682,440.442C303.098,440.442 303.806,441.079 303.806,442.353L303.806,448.573C303.806,449.847 303.098,450.484 301.682,450.484L296.667,450.484C295.251,450.484 294.544,449.847 294.544,448.573L294.544,442.353C294.544,441.079 295.251,440.442 296.667,440.442ZM296.667,429.617L301.682,429.617C303.098,429.617 303.806,430.253 303.806,431.527L303.806,437.748C303.806,439.022 303.098,439.658 301.682,439.658L296.667,439.658C295.251,439.658 294.544,439.022 294.544,437.748L294.544,431.527C294.544,430.253 295.251,429.617 296.667,429.617Z" style="fill:rgb(197,249,70);fill-rule:nonzero;"/>
                <path d="M328.973,494.668L333.943,494.668C335.359,494.668 336.067,495.304 336.067,496.578L336.067,502.799C336.067,504.072 335.359,504.709 333.943,504.709L328.973,504.709C327.557,504.709 326.849,504.072 326.849,502.799L326.849,496.578C326.849,495.304 327.557,494.668 328.973,494.668ZM328.973,483.842L333.943,483.842C335.359,483.842 336.067,484.479 336.067,485.752L336.067,491.973C336.067,493.247 335.359,493.884 333.943,493.884L328.973,493.884C327.557,493.884 326.849,493.247 326.849,491.973L326.849,485.752C326.849,484.479 327.557,483.842 328.973,483.842ZM328.973,462.142L333.943,462.142C335.359,462.142 336.067,462.779 336.067,464.052L336.067,470.273C336.067,471.547 335.359,472.184 333.943,472.184L328.973,472.184C327.557,472.184 326.849,471.547 326.849,470.273L326.849,464.052C326.849,462.779 327.557,462.142 328.973,462.142ZM328.973,473.017L333.943,473.017C335.359,473.017 336.067,473.653 336.067,474.927L336.067,481.099C336.067,482.373 335.359,483.009 333.943,483.009L328.973,483.009C327.557,483.009 326.849,482.373 326.849,481.099L326.849,474.927C326.849,473.653 327.557,473.017 328.973,473.017ZM328.973,440.442L333.943,440.442C335.359,440.442 336.067,441.079 336.067,442.353L336.067,448.573C336.067,449.847 335.359,450.484 333.943,450.484L328.973,450.484C327.557,450.484 326.849,449.847 326.849,448.573L326.849,442.353C326.849,441.079 327.557,440.442 328.973,440.442ZM328.973,429.617L333.943,429.617C335.359,429.617 336.067,430.253 336.067,431.527L336.067,437.748C336.067,439.022 335.359,439.658 333.943,439.658L328.973,439.658C327.557,439.658 326.849,439.022 326.849,437.748L326.849,431.527C326.849,430.253 327.557,429.617 328.973,429.617ZM328.973,418.791L333.943,418.791C335.359,418.791 336.067,419.428 336.067,420.702L336.067,426.874C336.067,428.147 335.359,428.784 333.943,428.784L328.973,428.784C327.557,428.784 326.849,428.147 326.849,426.874L326.849,420.702C326.849,419.428 327.557,418.791 328.973,418.791ZM338.958,451.317L343.974,451.317C345.389,451.317 346.097,451.953 346.097,453.227L346.097,459.448C346.097,460.722 345.389,461.358 343.974,461.358L338.958,461.358C337.543,461.358 336.835,460.722 336.835,459.448L336.835,453.227C336.835,451.953 337.543,451.317 338.958,451.317ZM348.989,494.668L353.959,494.668C355.375,494.668 356.083,495.304 356.083,496.578L356.083,502.799C356.083,504.072 355.375,504.709 353.959,504.709L348.989,504.709C347.573,504.709 346.865,504.072 346.865,502.799L346.865,496.578C346.865,495.304 347.573,494.668 348.989,494.668ZM348.989,483.842L353.959,483.842C355.375,483.842 356.083,484.479 356.083,485.752L356.083,491.973C356.083,493.247 355.375,493.884 353.959,493.884L348.989,493.884C347.573,493.884 346.865,493.247 346.865,491.973L346.865,485.752C346.865,484.479 347.573,483.842 348.989,483.842ZM348.989,473.017L353.959,473.017C355.375,473.017 356.083,473.653 356.083,474.927L356.083,481.099C356.083,482.373 355.375,483.009 353.959,483.009L348.989,483.009C347.573,483.009 346.865,482.373 346.865,481.099L346.865,474.927C346.865,473.653 347.573,473.017 348.989,473.017ZM348.989,462.142L353.959,462.142C355.375,462.142 356.083,462.779 356.083,464.052L356.083,470.273C356.083,471.547 355.375,472.184 353.959,472.184L348.989,472.184C347.573,472.184 346.865,471.547 346.865,470.273L346.865,464.052C346.865,462.779 347.573,462.142 348.989,462.142ZM348.989,451.317L353.959,451.317C355.375,451.317 356.083,451.953 356.083,453.227L356.083,459.448C356.083,460.722 355.375,461.358 353.959,461.358L348.989,461.358C347.573,461.358 346.865,460.722 346.865,459.448L346.865,453.227C346.865,451.953 347.573,451.317 348.989,451.317ZM348.989,440.442L353.959,440.442C355.375,440.442 356.083,441.079 356.083,442.353L356.083,448.573C356.083,449.847 355.375,450.484 353.959,450.484L348.989,450.484C347.573,450.484 346.865,449.847 346.865,448.573L346.865,442.353C346.865,441.079 347.573,440.442 348.989,440.442ZM348.989,429.617L353.959,429.617C355.375,429.617 356.083,430.253 356.083,431.527L356.083,437.748C356.083,439.022 355.375,439.658 353.959,439.658L348.989,439.658C347.573,439.658 346.865,439.022 346.865,437.748L346.865,431.527C346.865,430.253 347.573,429.617 348.989,429.617ZM348.989,418.791L353.959,418.791C355.375,418.791 356.083,419.428 356.083,420.702L356.083,426.874C356.083,428.147 355.375,428.784 353.959,428.784L348.989,428.784C347.573,428.784 346.865,428.147 346.865,426.874L346.865,420.702C346.865,419.428 347.573,418.791 348.989,418.791ZM358.974,451.317L363.945,451.317C365.36,451.317 366.068,451.953 366.068,453.227L366.068,459.448C366.068,460.722 365.36,461.358 363.945,461.358L358.974,461.358C357.559,461.358 356.851,460.722 356.851,459.448L356.851,453.227C356.851,451.953 357.559,451.317 358.974,451.317ZM368.96,440.442L373.975,440.442C375.391,440.442 376.099,441.079 376.099,442.353L376.099,448.573C376.099,449.847 375.391,450.484 373.975,450.484L368.96,450.484C367.544,450.484 366.836,449.847 366.836,448.573L366.836,442.353C366.836,441.079 367.544,440.442 368.96,440.442ZM368.96,429.617L373.975,429.617C375.391,429.617 376.099,430.253 376.099,431.527L376.099,437.748C376.099,439.022 375.391,439.658 373.975,439.658L368.96,439.658C367.544,439.658 366.836,439.022 366.836,437.748L366.836,431.527C366.836,430.253 367.544,429.617 368.96,429.617ZM368.96,418.791L373.975,418.791C375.391,418.791 376.099,419.428 376.099,420.702L376.099,426.874C376.099,428.147 375.391,428.784 373.975,428.784L368.96,428.784C367.544,428.784 366.836,428.147 366.836,426.874L366.836,420.702C366.836,419.428 367.544,418.791 368.96,418.791ZM368.96,494.668L373.975,494.668C375.391,494.668 376.099,495.304 376.099,496.578L376.099,502.799C376.099,504.072 375.391,504.709 373.975,504.709L368.96,504.709C367.544,504.709 366.836,504.072 366.836,502.799L366.836,496.578C366.836,495.304 367.544,494.668 368.96,494.668ZM368.96,483.842L373.975,483.842C375.391,483.842 376.099,484.479 376.099,485.752L376.099,491.973C376.099,493.247 375.391,493.884 373.975,493.884L368.96,493.884C367.544,493.884 366.836,493.247 366.836,491.973L366.836,485.752C366.836,484.479 367.544,483.842 368.96,483.842ZM368.96,462.142L373.975,462.142C375.391,462.142 376.099,462.779 376.099,464.052L376.099,470.273C376.099,471.547 375.391,472.184 373.975,472.184L368.96,472.184C367.544,472.184 366.836,471.547 366.836,470.273L366.836,464.052C366.836,462.779 367.544,462.142 368.96,462.142ZM368.96,473.017L373.975,473.017C375.391,473.017 376.099,473.653 376.099,474.927L376.099,481.099C376.099,482.373 375.391,483.009 373.975,483.009L368.96,483.009C367.544,483.009 366.836,482.373 366.836,481.099L366.836,474.927C366.836,473.653 367.544,473.017 368.96,473.017Z" style="fill:rgb(197,249,70);fill-rule:nonzero;"/>
            </g>
            <g transform="matrix(1,0,0,1,0,1.0979)">
                <g transform="matrix(6.96843e-17,1.13803,-0.949223,5.81231e-17,1064.02,144.034)">
                    <path d="M110.896,462.142L115.39,462.142C116.67,462.142 117.31,462.779 117.31,464.053L117.31,470.274C117.31,471.547 116.67,472.184 115.39,472.184L110.896,472.184C109.615,472.184 108.975,471.547 108.975,470.274L108.975,464.053C108.975,462.779 109.615,462.142 110.896,462.142ZM119.925,462.142L124.46,462.142C125.74,462.142 126.381,462.779 126.381,464.053L126.381,470.274C126.381,471.547 125.74,472.184 124.46,472.184L119.925,472.184C118.645,472.184 118.005,471.547 118.005,470.274L118.005,464.053C118.005,462.779 118.645,462.142 119.925,462.142ZM128.995,462.142L133.49,462.142C134.77,462.142 135.41,462.779 135.41,464.053L135.41,470.274C135.41,471.547 134.77,472.184 133.49,472.184L128.995,472.184C127.715,472.184 127.075,471.547 127.075,470.274L127.075,464.053C127.075,462.779 127.715,462.142 128.995,462.142ZM138.025,462.142L142.519,462.142C143.799,462.142 144.439,462.779 144.439,464.053L144.439,470.274C144.439,471.547 143.799,472.184 142.519,472.184L138.025,472.184C136.745,472.184 136.105,471.547 136.105,470.274L136.105,464.053C136.105,462.779 136.745,462.142 138.025,462.142ZM147.054,462.142L151.59,462.142C152.87,462.142 153.51,462.779 153.51,464.053L153.51,470.274C153.51,471.547 152.87,472.184 151.59,472.184L147.054,472.184C145.774,472.184 145.134,471.547 145.134,470.274L145.134,464.053C145.134,462.779 145.774,462.142 147.054,462.142Z" style="fill:white;fill-rule:nonzero;"/>
                </g>
                <g transform="matrix(6.96843e-17,1.13803,-0.949223,5.81231e-17,1064.02,92.514)">
                    <path d="M110.896,462.142L115.39,462.142C116.67,462.142 117.31,462.779 117.31,464.053L117.31,470.274C117.31,471.547 116.67,472.184 115.39,472.184L110.896,472.184C109.615,472.184 108.975,471.547 108.975,470.274L108.975,464.053C108.975,462.779 109.615,462.142 110.896,462.142ZM119.925,462.142L124.46,462.142C125.74,462.142 126.381,462.779 126.381,464.053L126.381,470.274C126.381,471.547 125.74,472.184 124.46,472.184L119.925,472.184C118.645,472.184 118.005,471.547 118.005,470.274L118.005,464.053C118.005,462.779 118.645,462.142 119.925,462.142ZM128.995,462.142L133.49,462.142C134.77,462.142 135.41,462.779 135.41,464.053L135.41,470.274C135.41,471.547 134.77,472.184 133.49,472.184L128.995,472.184C127.715,472.184 127.075,471.547 127.075,470.274L127.075,464.053C127.075,462.779 127.715,462.142 128.995,462.142ZM138.025,462.142L142.519,462.142C143.799,462.142 144.439,462.779 144.439,464.053L144.439,470.274C144.439,471.547 143.799,472.184 142.519,472.184L138.025,472.184C136.745,472.184 136.105,471.547 136.105,470.274L136.105,464.053C136.105,462.779 136.745,462.142 138.025,462.142ZM147.054,462.142L151.59,462.142C152.87,462.142 153.51,462.779 153.51,464.053L153.51,470.274C153.51,471.547 152.87,472.184 151.59,472.184L147.054,472.184C145.774,472.184 145.134,471.547 145.134,470.274L145.134,464.053C145.134,462.779 145.774,462.142 147.054,462.142Z" style="fill:white;fill-rule:nonzero;"/>
                </g>
                <g transform="matrix(6.96843e-17,1.13803,-0.949223,5.81231e-17,1064.02,40.9939)">
                    <path d="M110.896,462.142L115.39,462.142C116.67,462.142 117.31,462.779 117.31,464.053L117.31,470.274C117.31,471.547 116.67,472.184 115.39,472.184L110.896,472.184C109.615,472.184 108.975,471.547 108.975,470.274L108.975,464.053C108.975,462.779 109.615,462.142 110.896,462.142ZM119.925,462.142L124.46,462.142C125.74,462.142 126.381,462.779 126.381,464.053L126.381,470.274C126.381,471.547 125.74,472.184 124.46,472.184L119.925,472.184C118.645,472.184 118.005,471.547 118.005,470.274L118.005,464.053C118.005,462.779 118.645,462.142 119.925,462.142ZM128.995,462.142L133.49,462.142C134.77,462.142 135.41,462.779 135.41,464.053L135.41,470.274C135.41,471.547 134.77,472.184 133.49,472.184L128.995,472.184C127.715,472.184 127.075,471.547 127.075,470.274L127.075,464.053C127.075,462.779 127.715,462.142 128.995,462.142ZM138.025,462.142L142.519,462.142C143.799,462.142 144.439,462.779 144.439,464.053L144.439,470.274C144.439,471.547 143.799,472.184 142.519,472.184L138.025,472.184C136.745,472.184 136.105,471.547 136.105,470.274L136.105,464.053C136.105,462.779 136.745,462.142 138.025,462.142ZM147.054,462.142L151.59,462.142C152.87,462.142 153.51,462.779 153.51,464.053L153.51,470.274C153.51,471.547 152.87,472.184 151.59,472.184L147.054,472.184C145.774,472.184 145.134,471.547 145.134,470.274L145.134,464.053C145.134,462.779 145.774,462.142 147.054,462.142Z" style="fill:white;fill-rule:nonzero;"/>
                </g>
                <g transform="matrix(6.96843e-17,1.13803,-0.949223,5.81231e-17,1022.87,360.217)">
                    <path d="M110.896,462.142L115.39,462.142C116.67,462.142 117.31,462.779 117.31,464.053L117.31,470.274C117.31,471.547 116.67,472.184 115.39,472.184L110.896,472.184C109.615,472.184 108.975,471.547 108.975,470.274L108.975,464.053C108.975,462.779 109.615,462.142 110.896,462.142ZM119.925,462.142L124.46,462.142C125.74,462.142 126.381,462.779 126.381,464.053L126.381,470.274C126.381,471.547 125.74,472.184 124.46,472.184L119.925,472.184C118.645,472.184 118.005,471.547 118.005,470.274L118.005,464.053C118.005,462.779 118.645,462.142 119.925,462.142ZM128.995,462.142L133.49,462.142C134.77,462.142 135.41,462.779 135.41,464.053L135.41,470.274C135.41,471.547 134.77,472.184 133.49,472.184L128.995,472.184C127.715,472.184 127.075,471.547 127.075,470.274L127.075,464.053C127.075,462.779 127.715,462.142 128.995,462.142ZM138.025,462.142L142.519,462.142C143.799,462.142 144.439,462.779 144.439,464.053L144.439,470.274C144.439,471.547 143.799,472.184 142.519,472.184L138.025,472.184C136.745,472.184 136.105,471.547 136.105,470.274L136.105,464.053C136.105,462.779 136.745,462.142 138.025,462.142ZM147.054,462.142L151.59,462.142C152.87,462.142 153.51,462.779 153.51,464.053L153.51,470.274C153.51,471.547 152.87,472.184 151.59,472.184L147.054,472.184C145.774,472.184 145.134,471.547 145.134,470.274L145.134,464.053C145.134,462.779 145.774,462.142 147.054,462.142Z" style="fill:white;fill-rule:nonzero;"/>
                </g>
                <g transform="matrix(6.96843e-17,1.13803,-0.949223,5.81231e-17,1022.87,257.323)">
                    <path d="M110.896,462.142L115.39,462.142C116.67,462.142 117.31,462.779 117.31,464.053L117.31,470.274C117.31,471.547 116.67,472.184 115.39,472.184L110.896,472.184C109.615,472.184 108.975,471.547 108.975,470.274L108.975,464.053C108.975,462.779 109.615,462.142 110.896,462.142ZM119.925,462.142L124.46,462.142C125.74,462.142 126.381,462.779 126.381,464.053L126.381,470.274C126.381,471.547 125.74,472.184 124.46,472.184L119.925,472.184C118.645,472.184 118.005,471.547 118.005,470.274L118.005,464.053C118.005,462.779 118.645,462.142 119.925,462.142ZM128.995,462.142L133.49,462.142C134.77,462.142 135.41,462.779 135.41,464.053L135.41,470.274C135.41,471.547 134.77,472.184 133.49,472.184L128.995,472.184C127.715,472.184 127.075,471.547 127.075,470.274L127.075,464.053C127.075,462.779 127.715,462.142 128.995,462.142ZM138.025,462.142L142.519,462.142C143.799,462.142 144.439,462.779 144.439,464.053L144.439,470.274C144.439,471.547 143.799,472.184 142.519,472.184L138.025,472.184C136.745,472.184 136.105,471.547 136.105,470.274L136.105,464.053C136.105,462.779 136.745,462.142 138.025,462.142ZM147.054,462.142L151.59,462.142C152.87,462.142 153.51,462.779 153.51,464.053L153.51,470.274C153.51,471.547 152.87,472.184 151.59,472.184L147.054,472.184C145.774,472.184 145.134,471.547 145.134,470.274L145.134,464.053C145.134,462.779 145.774,462.142 147.054,462.142Z" style="fill:white;fill-rule:nonzero;"/>
                </g>
                <g transform="matrix(6.96843e-17,1.13803,-0.949223,5.81231e-17,1022.87,308.77)">
                    <path d="M110.896,462.142L115.39,462.142C116.67,462.142 117.31,462.779 117.31,464.053L117.31,470.274C117.31,471.547 116.67,472.184 115.39,472.184L110.896,472.184C109.615,472.184 108.975,471.547 108.975,470.274L108.975,464.053C108.975,462.779 109.615,462.142 110.896,462.142ZM119.925,462.142L124.46,462.142C125.74,462.142 126.381,462.779 126.381,464.053L126.381,470.274C126.381,471.547 125.74,472.184 124.46,472.184L119.925,472.184C118.645,472.184 118.005,471.547 118.005,470.274L118.005,464.053C118.005,462.779 118.645,462.142 119.925,462.142ZM128.995,462.142L133.49,462.142C134.77,462.142 135.41,462.779 135.41,464.053L135.41,470.274C135.41,471.547 134.77,472.184 133.49,472.184L128.995,472.184C127.715,472.184 127.075,471.547 127.075,470.274L127.075,464.053C127.075,462.779 127.715,462.142 128.995,462.142ZM138.025,462.142L142.519,462.142C143.799,462.142 144.439,462.779 144.439,464.053L144.439,470.274C144.439,471.547 143.799,472.184 142.519,472.184L138.025,472.184C136.745,472.184 136.105,471.547 136.105,470.274L136.105,464.053C136.105,462.779 136.745,462.142 138.025,462.142ZM147.054,462.142L151.59,462.142C152.87,462.142 153.51,462.779 153.51,464.053L153.51,470.274C153.51,471.547 152.87,472.184 151.59,472.184L147.054,472.184C145.774,472.184 145.134,471.547 145.134,470.274L145.134,464.053C145.134,462.779 145.774,462.142 147.054,462.142Z" style="fill:white;fill-rule:nonzero;"/>
                </g>
                <g transform="matrix(1.13803,0,0,0.949223,450.642,-88.2306)">
                    <path d="M110.896,483.842L115.39,483.842C116.67,483.842 117.31,484.479 117.31,485.753L117.31,491.974C117.31,493.247 116.67,493.884 115.39,493.884L110.896,493.884C109.615,493.884 108.975,493.247 108.975,491.974L108.975,485.753C108.975,484.479 109.615,483.842 110.896,483.842ZM110.896,473.017L115.39,473.017C116.67,473.017 117.31,473.653 117.31,474.927L117.31,481.099C117.31,482.373 116.67,483.009 115.39,483.009L110.896,483.009C109.615,483.009 108.975,482.373 108.975,481.099L108.975,474.927C108.975,473.653 109.615,473.017 110.896,473.017ZM119.925,462.142L124.46,462.142C125.74,462.142 126.381,462.779 126.381,464.053L126.381,470.274C126.381,471.547 125.74,472.184 124.46,472.184L119.925,472.184C118.645,472.184 118.005,471.547 118.005,470.274L118.005,464.053C118.005,462.779 118.645,462.142 119.925,462.142ZM128.995,451.317L133.49,451.317C134.77,451.317 135.41,451.953 135.41,453.227L135.41,459.448C135.41,460.722 134.77,461.358 133.49,461.358L128.995,461.358C127.715,461.358 127.075,460.722 127.075,459.448L127.075,453.227C127.075,451.953 127.715,451.317 128.995,451.317ZM138.025,440.442L142.519,440.442C143.799,440.442 144.439,441.079 144.439,442.353L144.439,448.574C144.439,449.847 143.799,450.484 142.519,450.484L138.025,450.484C136.745,450.484 136.105,449.847 136.105,448.574L136.105,442.353C136.105,441.079 136.745,440.442 138.025,440.442ZM147.054,429.617L151.59,429.617C152.87,429.617 153.51,430.253 153.51,431.527L153.51,437.748C153.51,439.022 152.87,439.658 151.59,439.658L147.054,439.658C145.774,439.658 145.134,439.022 145.134,437.748L145.134,431.527C145.134,430.253 145.774,429.617 147.054,429.617Z" style="fill:white;fill-rule:nonzero;"/>
                </g>
            </g>
        </g>
    </g>
</svg>
