<?xml version="1.0" encoding="UTF-8" standalone="no"?>
<!DOCTYPE svg PUBLIC "-//W3C//DTD SVG 1.1//EN" "http://www.w3.org/Graphics/SVG/1.1/DTD/svg11.dtd">
<svg width="100%" height="100%" viewBox="0 0 1200 700" version="1.1" xmlns="http://www.w3.org/2000/svg" xmlns:xlink="http://www.w3.org/1999/xlink" xml:space="preserve" xmlns:serif="http://www.serif.com/" style="fill-rule:evenodd;clip-rule:evenodd;stroke-linejoin:round;stroke-miterlimit:2;">
    <g transform="matrix(1,0,0,1,-1374.88,0)">
        <g id="signal_skrtv_krzh" transform="matrix(1,0,0,1,1374.88,0)">
            <rect x="0" y="0" width="1200" height="700" style="fill:none;"/>
            <g transform="matrix(1.06916,0,0,1.15305,-82.9937,-107.135)">
                <rect x="77.625" y="92.914" width="1122.38" height="607.086"/>
            </g>
            <g transform="matrix(1.03265,0,0,1.10757,-29.2299,-295.902)">
                <path d="M152.082,418.791L157.097,418.791C158.513,418.791 159.221,419.428 159.221,420.702L159.221,426.874C159.221,428.147 158.513,428.784 157.097,428.784L152.082,428.784C150.666,428.784 149.958,428.147 149.958,426.874L149.958,420.702C149.958,419.428 150.666,418.791 152.082,418.791ZM152.082,494.668L157.097,494.668C158.513,494.668 159.221,495.304 159.221,496.578L159.221,502.799C159.221,504.072 158.513,504.709 157.097,504.709L152.082,504.709C150.666,504.709 149.958,504.072 149.958,502.799L149.958,496.578C149.958,495.304 150.666,494.668 152.082,494.668ZM152.082,483.842L157.097,483.842C158.513,483.842 159.221,484.479 159.221,485.752L159.221,491.973C159.221,493.247 158.513,493.884 157.097,493.884L152.082,493.884C150.666,493.884 149.958,493.247 149.958,491.973L149.958,485.752C149.958,484.479 150.666,483.842 152.082,483.842ZM142.096,429.617L147.066,429.617C148.482,429.617 149.19,430.253 149.19,431.527L149.19,437.748C149.19,439.022 148.482,439.658 147.066,439.658L142.096,439.658C140.681,439.658 139.973,439.022 139.973,437.748L139.973,431.527C139.973,430.253 140.681,429.617 142.096,429.617ZM142.096,473.017L147.066,473.017C148.482,473.017 149.19,473.653 149.19,474.927L149.19,481.099C149.19,482.373 148.482,483.009 147.066,483.009L142.096,483.009C140.681,483.009 139.973,482.373 139.973,481.099L139.973,474.927C139.973,473.653 140.681,473.017 142.096,473.017ZM132.111,440.442L137.081,440.442C138.497,440.442 139.205,441.079 139.205,442.353L139.205,448.573C139.205,449.847 138.497,450.484 137.081,450.484L132.111,450.484C130.695,450.484 129.987,449.847 129.987,448.573L129.987,442.353C129.987,441.079 130.695,440.442 132.111,440.442ZM132.111,462.142L137.081,462.142C138.497,462.142 139.205,462.779 139.205,464.052L139.205,470.273C139.205,471.547 138.497,472.184 137.081,472.184L132.111,472.184C130.695,472.184 129.987,471.547 129.987,470.273L129.987,464.052C129.987,462.779 130.695,462.142 132.111,462.142ZM122.08,451.317L127.096,451.317C128.511,451.317 129.219,451.953 129.219,453.227L129.219,459.448C129.219,460.722 128.511,461.358 127.096,461.358L122.08,461.358C120.665,461.358 119.957,460.722 119.957,459.448L119.957,453.227C119.957,451.953 120.665,451.317 122.08,451.317ZM112.095,418.791L117.065,418.791C118.481,418.791 119.189,419.428 119.189,420.702L119.189,426.874C119.189,428.147 118.481,428.784 117.065,428.784L112.095,428.784C110.679,428.784 109.971,428.147 109.971,426.874L109.971,420.702C109.971,419.428 110.679,418.791 112.095,418.791ZM112.095,429.617L117.065,429.617C118.481,429.617 119.189,430.253 119.189,431.527L119.189,437.748C119.189,439.022 118.481,439.658 117.065,439.658L112.095,439.658C110.679,439.658 109.971,439.022 109.971,437.748L109.971,431.527C109.971,430.253 110.679,429.617 112.095,429.617ZM112.095,440.442L117.065,440.442C118.481,440.442 119.189,441.079 119.189,442.353L119.189,448.573C119.189,449.847 118.481,450.484 117.065,450.484L112.095,450.484C110.679,450.484 109.971,449.847 109.971,448.573L109.971,442.353C109.971,441.079 110.679,440.442 112.095,440.442ZM112.095,451.317L117.065,451.317C118.481,451.317 119.189,451.953 119.189,453.227L119.189,459.448C119.189,460.722 118.481,461.358 117.065,461.358L112.095,461.358C110.679,461.358 109.971,460.722 109.971,459.448L109.971,453.227C109.971,451.953 110.679,451.317 112.095,451.317ZM112.095,462.142L117.065,462.142C118.481,462.142 119.189,462.779 119.189,464.052L119.189,470.273C119.189,471.547 118.481,472.184 117.065,472.184L112.095,472.184C110.679,472.184 109.971,471.547 109.971,470.273L109.971,464.052C109.971,462.779 110.679,462.142 112.095,462.142ZM112.095,473.017L117.065,473.017C118.481,473.017 119.189,473.653 119.189,474.927L119.189,481.099C119.189,482.373 118.481,483.009 117.065,483.009L112.095,483.009C110.679,483.009 109.971,482.373 109.971,481.099L109.971,474.927C109.971,473.653 110.679,473.017 112.095,473.017ZM112.095,483.842L117.065,483.842C118.481,483.842 119.189,484.479 119.189,485.752L119.189,491.973C119.189,493.247 118.481,493.884 117.065,493.884L112.095,493.884C110.679,493.884 109.971,493.247 109.971,491.973L109.971,485.752C109.971,484.479 110.679,483.842 112.095,483.842ZM112.095,494.668L117.065,494.668C118.481,494.668 119.189,495.304 119.189,496.578L119.189,502.799C119.189,504.072 118.481,504.709 117.065,504.709L112.095,504.709C110.679,504.709 109.971,504.072 109.971,502.799L109.971,496.578C109.971,495.304 110.679,494.668 112.095,494.668Z" style="fill:rgb(197,249,70);fill-rule:nonzero;"/>
                <path d="M224.374,429.617L229.39,429.617C230.805,429.617 231.513,430.253 231.513,431.527L231.513,437.748C231.513,439.022 230.805,439.658 229.39,439.658L224.374,439.658C222.959,439.658 222.251,439.022 222.251,437.748L222.251,431.527C222.251,430.253 222.959,429.617 224.374,429.617ZM224.374,440.442L229.39,440.442C230.805,440.442 231.513,441.079 231.513,442.353L231.513,448.573C231.513,449.847 230.805,450.484 229.39,450.484L224.374,450.484C222.959,450.484 222.251,449.847 222.251,448.573L222.251,442.353C222.251,441.079 222.959,440.442 224.374,440.442ZM224.374,451.317L229.39,451.317C230.805,451.317 231.513,451.953 231.513,453.227L231.513,459.448C231.513,460.722 230.805,461.358 229.39,461.358L224.374,461.358C222.959,461.358 222.251,460.722 222.251,459.448L222.251,453.227C222.251,451.953 222.959,451.317 224.374,451.317ZM224.374,462.142L229.39,462.142C230.805,462.142 231.513,462.779 231.513,464.052L231.513,470.273C231.513,471.547 230.805,472.184 229.39,472.184L224.374,472.184C222.959,472.184 222.251,471.547 222.251,470.273L222.251,464.052C222.251,462.779 222.959,462.142 224.374,462.142ZM224.374,473.017L229.39,473.017C230.805,473.017 231.513,473.653 231.513,474.927L231.513,481.099C231.513,482.373 230.805,483.009 229.39,483.009L224.374,483.009C222.959,483.009 222.251,482.373 222.251,481.099L222.251,474.927C222.251,473.653 222.959,473.017 224.374,473.017ZM224.374,483.842L229.39,483.842C230.805,483.842 231.513,484.479 231.513,485.752L231.513,491.973C231.513,493.247 230.805,493.884 229.39,493.884L224.374,493.884C222.959,493.884 222.251,493.247 222.251,491.973L222.251,485.752C222.251,484.479 222.959,483.842 224.374,483.842ZM214.389,418.791L219.359,418.791C220.775,418.791 221.483,419.428 221.483,420.702L221.483,426.874C221.483,428.147 220.775,428.784 219.359,428.784L214.389,428.784C212.973,428.784 212.265,428.147 212.265,426.874L212.265,420.702C212.265,419.428 212.973,418.791 214.389,418.791ZM214.389,494.668L219.359,494.668C220.775,494.668 221.483,495.304 221.483,496.578L221.483,502.799C221.483,504.072 220.775,504.709 219.359,504.709L214.389,504.709C212.973,504.709 212.265,504.072 212.265,502.799L212.265,496.578C212.265,495.304 212.973,494.668 214.389,494.668ZM204.404,418.791L209.374,418.791C210.789,418.791 211.497,419.428 211.497,420.702L211.497,426.874C211.497,428.147 210.789,428.784 209.374,428.784L204.404,428.784C202.988,428.784 202.28,428.147 202.28,426.874L202.28,420.702C202.28,419.428 202.988,418.791 204.404,418.791ZM204.404,494.668L209.374,494.668C210.789,494.668 211.497,495.304 211.497,496.578L211.497,502.799C211.497,504.072 210.789,504.709 209.374,504.709L204.404,504.709C202.988,504.709 202.28,504.072 202.28,502.799L202.28,496.578C202.28,495.304 202.988,494.668 204.404,494.668ZM194.373,418.791L199.388,418.791C200.804,418.791 201.512,419.428 201.512,420.702L201.512,426.874C201.512,428.147 200.804,428.784 199.388,428.784L194.373,428.784C192.957,428.784 192.249,428.147 192.249,426.874L192.249,420.702C192.249,419.428 192.957,418.791 194.373,418.791ZM194.373,494.668L199.388,494.668C200.804,494.668 201.512,495.304 201.512,496.578L201.512,502.799C201.512,504.072 200.804,504.709 199.388,504.709L194.373,504.709C192.957,504.709 192.249,504.072 192.249,502.799L192.249,496.578C192.249,495.304 192.957,494.668 194.373,494.668ZM184.388,429.617L189.358,429.617C190.773,429.617 191.481,430.253 191.481,431.527L191.481,437.748C191.481,439.022 190.773,439.658 189.358,439.658L184.388,439.658C182.972,439.658 182.264,439.022 182.264,437.748L182.264,431.527C182.264,430.253 182.972,429.617 184.388,429.617ZM184.388,440.442L189.358,440.442C190.773,440.442 191.481,441.079 191.481,442.353L191.481,448.573C191.481,449.847 190.773,450.484 189.358,450.484L184.388,450.484C182.972,450.484 182.264,449.847 182.264,448.573L182.264,442.353C182.264,441.079 182.972,440.442 184.388,440.442ZM184.388,451.317L189.358,451.317C190.773,451.317 191.481,451.953 191.481,453.227L191.481,459.448C191.481,460.722 190.773,461.358 189.358,461.358L184.388,461.358C182.972,461.358 182.264,460.722 182.264,459.448L182.264,453.227C182.264,451.953 182.972,451.317 184.388,451.317ZM184.388,462.142L189.358,462.142C190.773,462.142 191.481,462.779 191.481,464.052L191.481,470.273C191.481,471.547 190.773,472.184 189.358,472.184L184.388,472.184C182.972,472.184 182.264,471.547 182.264,470.273L182.264,464.052C182.264,462.779 182.972,462.142 184.388,462.142ZM184.388,473.017L189.358,473.017C190.773,473.017 191.481,473.653 191.481,474.927L191.481,481.099C191.481,482.373 190.773,483.009 189.358,483.009L184.388,483.009C182.972,483.009 182.264,482.373 182.264,481.099L182.264,474.927C182.264,473.653 182.972,473.017 184.388,473.017ZM184.388,483.842L189.358,483.842C190.773,483.842 191.481,484.479 191.481,485.752L191.481,491.973C191.481,493.247 190.773,493.884 189.358,493.884L184.388,493.884C182.972,493.884 182.264,493.247 182.264,491.973L182.264,485.752C182.264,484.479 182.972,483.842 184.388,483.842Z" style="fill:rgb(197,249,70);fill-rule:nonzero;"/>
                <path d="M256.68,494.668L261.65,494.668C263.066,494.668 263.774,495.304 263.774,496.578L263.774,502.799C263.774,504.072 263.066,504.709 261.65,504.709L256.68,504.709C255.265,504.709 254.557,504.072 254.557,502.799L254.557,496.578C254.557,495.304 255.265,494.668 256.68,494.668ZM256.68,483.842L261.65,483.842C263.066,483.842 263.774,484.479 263.774,485.752L263.774,491.973C263.774,493.247 263.066,493.884 261.65,493.884L256.68,493.884C255.265,493.884 254.557,493.247 254.557,491.973L254.557,485.752C254.557,484.479 255.265,483.842 256.68,483.842ZM256.68,473.017L261.65,473.017C263.066,473.017 263.774,473.653 263.774,474.927L263.774,481.099C263.774,482.373 263.066,483.009 261.65,483.009L256.68,483.009C255.265,483.009 254.557,482.373 254.557,481.099L254.557,474.927C254.557,473.653 255.265,473.017 256.68,473.017ZM256.68,462.142L261.65,462.142C263.066,462.142 263.774,462.779 263.774,464.052L263.774,470.273C263.774,471.547 263.066,472.184 261.65,472.184L256.68,472.184C255.265,472.184 254.557,471.547 254.557,470.273L254.557,464.052C254.557,462.779 255.265,462.142 256.68,462.142ZM256.68,451.317L261.65,451.317C263.066,451.317 263.774,451.953 263.774,453.227L263.774,459.448C263.774,460.722 263.066,461.358 261.65,461.358L256.68,461.358C255.265,461.358 254.557,460.722 254.557,459.448L254.557,453.227C254.557,451.953 255.265,451.317 256.68,451.317ZM256.68,440.442L261.65,440.442C263.066,440.442 263.774,441.079 263.774,442.353L263.774,448.573C263.774,449.847 263.066,450.484 261.65,450.484L256.68,450.484C255.265,450.484 254.557,449.847 254.557,448.573L254.557,442.353C254.557,441.079 255.265,440.442 256.68,440.442ZM256.68,429.617L261.65,429.617C263.066,429.617 263.774,430.253 263.774,431.527L263.774,437.748C263.774,439.022 263.066,439.658 261.65,439.658L256.68,439.658C255.265,439.658 254.557,439.022 254.557,437.748L254.557,431.527C254.557,430.253 255.265,429.617 256.68,429.617ZM256.68,418.791L261.65,418.791C263.066,418.791 263.774,419.428 263.774,420.702L263.774,426.874C263.774,428.147 263.066,428.784 261.65,428.784L256.68,428.784C255.265,428.784 254.557,428.147 254.557,426.874L254.557,420.702C254.557,419.428 255.265,418.791 256.68,418.791ZM266.666,462.142L271.681,462.142C273.097,462.142 273.805,462.779 273.805,464.052L273.805,470.273C273.805,471.547 273.097,472.184 271.681,472.184L266.666,472.184C265.25,472.184 264.542,471.547 264.542,470.273L264.542,464.052C264.542,462.779 265.25,462.142 266.666,462.142ZM266.666,418.791L271.681,418.791C273.097,418.791 273.805,419.428 273.805,420.702L273.805,426.874C273.805,428.147 273.097,428.784 271.681,428.784L266.666,428.784C265.25,428.784 264.542,428.147 264.542,426.874L264.542,420.702C264.542,419.428 265.25,418.791 266.666,418.791ZM276.696,462.142L281.666,462.142C283.082,462.142 283.79,462.779 283.79,464.052L283.79,470.273C283.79,471.547 283.082,472.184 281.666,472.184L276.696,472.184C275.281,472.184 274.573,471.547 274.573,470.273L274.573,464.052C274.573,462.779 275.281,462.142 276.696,462.142ZM276.696,418.791L281.666,418.791C283.082,418.791 283.79,419.428 283.79,420.702L283.79,426.874C283.79,428.147 283.082,428.784 281.666,428.784L276.696,428.784C275.281,428.784 274.573,428.147 274.573,426.874L274.573,420.702C274.573,419.428 275.281,418.791 276.696,418.791ZM286.682,462.142L291.652,462.142C293.068,462.142 293.775,462.779 293.775,464.052L293.775,470.273C293.775,471.547 293.068,472.184 291.652,472.184L286.682,472.184C285.266,472.184 284.558,471.547 284.558,470.273L284.558,464.052C284.558,462.779 285.266,462.142 286.682,462.142ZM286.682,418.791L291.652,418.791C293.068,418.791 293.775,419.428 293.775,420.702L293.775,426.874C293.775,428.147 293.068,428.784 291.652,428.784L286.682,428.784C285.266,428.784 284.558,428.147 284.558,426.874L284.558,420.702C284.558,419.428 285.266,418.791 286.682,418.791ZM296.667,451.317L301.682,451.317C303.098,451.317 303.806,451.953 303.806,453.227L303.806,459.448C303.806,460.722 303.098,461.358 301.682,461.358L296.667,461.358C295.251,461.358 294.544,460.722 294.544,459.448L294.544,453.227C294.544,451.953 295.251,451.317 296.667,451.317ZM296.667,440.442L301.682,440.442C303.098,440.442 303.806,441.079 303.806,442.353L303.806,448.573C303.806,449.847 303.098,450.484 301.682,450.484L296.667,450.484C295.251,450.484 294.544,449.847 294.544,448.573L294.544,442.353C294.544,441.079 295.251,440.442 296.667,440.442ZM296.667,429.617L301.682,429.617C303.098,429.617 303.806,430.253 303.806,431.527L303.806,437.748C303.806,439.022 303.098,439.658 301.682,439.658L296.667,439.658C295.251,439.658 294.544,439.022 294.544,437.748L294.544,431.527C294.544,430.253 295.251,429.617 296.667,429.617Z" style="fill:rgb(197,249,70);fill-rule:nonzero;"/>
                <path d="M328.973,494.668L333.943,494.668C335.359,494.668 336.067,495.304 336.067,496.578L336.067,502.799C336.067,504.072 335.359,504.709 333.943,504.709L328.973,504.709C327.557,504.709 326.849,504.072 326.849,502.799L326.849,496.578C326.849,495.304 327.557,494.668 328.973,494.668ZM328.973,483.842L333.943,483.842C335.359,483.842 336.067,484.479 336.067,485.752L336.067,491.973C336.067,493.247 335.359,493.884 333.943,493.884L328.973,493.884C327.557,493.884 326.849,493.247 326.849,491.973L326.849,485.752C326.849,484.479 327.557,483.842 328.973,483.842ZM328.973,462.142L333.943,462.142C335.359,462.142 336.067,462.779 336.067,464.052L336.067,470.273C336.067,471.547 335.359,472.184 333.943,472.184L328.973,472.184C327.557,472.184 326.849,471.547 326.849,470.273L326.849,464.052C326.849,462.779 327.557,462.142 328.973,462.142ZM328.973,473.017L333.943,473.017C335.359,473.017 336.067,473.653 336.067,474.927L336.067,481.099C336.067,482.373 335.359,483.009 333.943,483.009L328.973,483.009C327.557,483.009 326.849,482.373 326.849,481.099L326.849,474.927C326.849,473.653 327.557,473.017 328.973,473.017ZM328.973,440.442L333.943,440.442C335.359,440.442 336.067,441.079 336.067,442.353L336.067,448.573C336.067,449.847 335.359,450.484 333.943,450.484L328.973,450.484C327.557,450.484 326.849,449.847 326.849,448.573L326.849,442.353C326.849,441.079 327.557,440.442 328.973,440.442ZM328.973,429.617L333.943,429.617C335.359,429.617 336.067,430.253 336.067,431.527L336.067,437.748C336.067,439.022 335.359,439.658 333.943,439.658L328.973,439.658C327.557,439.658 326.849,439.022 326.849,437.748L326.849,431.527C326.849,430.253 327.557,429.617 328.973,429.617ZM328.973,418.791L333.943,418.791C335.359,418.791 336.067,419.428 336.067,420.702L336.067,426.874C336.067,428.147 335.359,428.784 333.943,428.784L328.973,428.784C327.557,428.784 326.849,428.147 326.849,426.874L326.849,420.702C326.849,419.428 327.557,418.791 328.973,418.791ZM338.958,451.317L343.974,451.317C345.389,451.317 346.097,451.953 346.097,453.227L346.097,459.448C346.097,460.722 345.389,461.358 343.974,461.358L338.958,461.358C337.543,461.358 336.835,460.722 336.835,459.448L336.835,453.227C336.835,451.953 337.543,451.317 338.958,451.317ZM348.989,494.668L353.959,494.668C355.375,494.668 356.083,495.304 356.083,496.578L356.083,502.799C356.083,504.072 355.375,504.709 353.959,504.709L348.989,504.709C347.573,504.709 346.865,504.072 346.865,502.799L346.865,496.578C346.865,495.304 347.573,494.668 348.989,494.668ZM348.989,483.842L353.959,483.842C355.375,483.842 356.083,484.479 356.083,485.752L356.083,491.973C356.083,493.247 355.375,493.884 353.959,493.884L348.989,493.884C347.573,493.884 346.865,493.247 346.865,491.973L346.865,485.752C346.865,484.479 347.573,483.842 348.989,483.842ZM348.989,473.017L353.959,473.017C355.375,473.017 356.083,473.653 356.083,474.927L356.083,481.099C356.083,482.373 355.375,483.009 353.959,483.009L348.989,483.009C347.573,483.009 346.865,482.373 346.865,481.099L346.865,474.927C346.865,473.653 347.573,473.017 348.989,473.017ZM348.989,462.142L353.959,462.142C355.375,462.142 356.083,462.779 356.083,464.052L356.083,470.273C356.083,471.547 355.375,472.184 353.959,472.184L348.989,472.184C347.573,472.184 346.865,471.547 346.865,470.273L346.865,464.052C346.865,462.779 347.573,462.142 348.989,462.142ZM348.989,451.317L353.959,451.317C355.375,451.317 356.083,451.953 356.083,453.227L356.083,459.448C356.083,460.722 355.375,461.358 353.959,461.358L348.989,461.358C347.573,461.358 346.865,460.722 346.865,459.448L346.865,453.227C346.865,451.953 347.573,451.317 348.989,451.317ZM348.989,440.442L353.959,440.442C355.375,440.442 356.083,441.079 356.083,442.353L356.083,448.573C356.083,449.847 355.375,450.484 353.959,450.484L348.989,450.484C347.573,450.484 346.865,449.847 346.865,448.573L346.865,442.353C346.865,441.079 347.573,440.442 348.989,440.442ZM348.989,429.617L353.959,429.617C355.375,429.617 356.083,430.253 356.083,431.527L356.083,437.748C356.083,439.022 355.375,439.658 353.959,439.658L348.989,439.658C347.573,439.658 346.865,439.022 346.865,437.748L346.865,431.527C346.865,430.253 347.573,429.617 348.989,429.617ZM348.989,418.791L353.959,418.791C355.375,418.791 356.083,419.428 356.083,420.702L356.083,426.874C356.083,428.147 355.375,428.784 353.959,428.784L348.989,428.784C347.573,428.784 346.865,428.147 346.865,426.874L346.865,420.702C346.865,419.428 347.573,418.791 348.989,418.791ZM358.974,451.317L363.945,451.317C365.36,451.317 366.068,451.953 366.068,453.227L366.068,459.448C366.068,460.722 365.36,461.358 363.945,461.358L358.974,461.358C357.559,461.358 356.851,460.722 356.851,459.448L356.851,453.227C356.851,451.953 357.559,451.317 358.974,451.317ZM368.96,440.442L373.975,440.442C375.391,440.442 376.099,441.079 376.099,442.353L376.099,448.573C376.099,449.847 375.391,450.484 373.975,450.484L368.96,450.484C367.544,450.484 366.836,449.847 366.836,448.573L366.836,442.353C366.836,441.079 367.544,440.442 368.96,440.442ZM368.96,429.617L373.975,429.617C375.391,429.617 376.099,430.253 376.099,431.527L376.099,437.748C376.099,439.022 375.391,439.658 373.975,439.658L368.96,439.658C367.544,439.658 366.836,439.022 366.836,437.748L366.836,431.527C366.836,430.253 367.544,429.617 368.96,429.617ZM368.96,418.791L373.975,418.791C375.391,418.791 376.099,419.428 376.099,420.702L376.099,426.874C376.099,428.147 375.391,428.784 373.975,428.784L368.96,428.784C367.544,428.784 366.836,428.147 366.836,426.874L366.836,420.702C366.836,419.428 367.544,418.791 368.96,418.791ZM368.96,494.668L373.975,494.668C375.391,494.668 376.099,495.304 376.099,496.578L376.099,502.799C376.099,504.072 375.391,504.709 373.975,504.709L368.96,504.709C367.544,504.709 366.836,504.072 366.836,502.799L366.836,496.578C366.836,495.304 367.544,494.668 368.96,494.668ZM368.96,483.842L373.975,483.842C375.391,483.842 376.099,484.479 376.099,485.752L376.099,491.973C376.099,493.247 375.391,493.884 373.975,493.884L368.96,493.884C367.544,493.884 366.836,493.247 366.836,491.973L366.836,485.752C366.836,484.479 367.544,483.842 368.96,483.842ZM368.96,462.142L373.975,462.142C375.391,462.142 376.099,462.779 376.099,464.052L376.099,470.273C376.099,471.547 375.391,472.184 373.975,472.184L368.96,472.184C367.544,472.184 366.836,471.547 366.836,470.273L366.836,464.052C366.836,462.779 367.544,462.142 368.96,462.142ZM368.96,473.017L373.975,473.017C375.391,473.017 376.099,473.653 376.099,474.927L376.099,481.099C376.099,482.373 375.391,483.009 373.975,483.009L368.96,483.009C367.544,483.009 366.836,482.373 366.836,481.099L366.836,474.927C366.836,473.653 367.544,473.017 368.96,473.017Z" style="fill:rgb(197,249,70);fill-rule:nonzero;"/>
            </g>
            <g transform="matrix(-1,0,0,1,1200,1.0979)">
                <g transform="matrix(6.96843e-17,1.13803,-0.949223,5.81231e-17,1064.02,144.034)">
                    <path d="M110.896,462.142L115.39,462.142C116.67,462.142 117.31,462.779 117.31,464.053L117.31,470.274C117.31,471.547 116.67,472.184 115.39,472.184L110.896,472.184C109.615,472.184 108.975,471.547 108.975,470.274L108.975,464.053C108.975,462.779 109.615,462.142 110.896,462.142ZM119.925,462.142L124.46,462.142C125.74,462.142 126.381,462.779 126.381,464.053L126.381,470.274C126.381,471.547 125.74,472.184 124.46,472.184L119.925,472.184C118.645,472.184 118.005,471.547 118.005,470.274L118.005,464.053C118.005,462.779 118.645,462.142 119.925,462.142ZM128.995,462.142L133.49,462.142C134.77,462.142 135.41,462.779 135.41,464.053L135.41,470.274C135.41,471.547 134.77,472.184 133.49,472.184L128.995,472.184C127.715,472.184 127.075,471.547 127.075,470.274L127.075,464.053C127.075,462.779 127.715,462.142 128.995,462.142ZM138.025,462.142L142.519,462.142C143.799,462.142 144.439,462.779 144.439,464.053L144.439,470.274C144.439,471.547 143.799,472.184 142.519,472.184L138.025,472.184C136.745,472.184 136.105,471.547 136.105,470.274L136.105,464.053C136.105,462.779 136.745,462.142 138.025,462.142ZM147.054,462.142L151.59,462.142C152.87,462.142 153.51,462.779 153.51,464.053L153.51,470.274C153.51,471.547 152.87,472.184 151.59,472.184L147.054,472.184C145.774,472.184 145.134,471.547 145.134,470.274L145.134,464.053C145.134,462.779 145.774,462.142 147.054,462.142Z" style="fill:white;fill-rule:nonzero;"/>
                </g>
                <g transform="matrix(6.96843e-17,1.13803,-0.949223,5.81231e-17,1064.02,92.514)">
                    <path d="M110.896,462.142L115.39,462.142C116.67,462.142 117.31,462.779 117.31,464.053L117.31,470.274C117.31,471.547 116.67,472.184 115.39,472.184L110.896,472.184C109.615,472.184 108.975,471.547 108.975,470.274L108.975,464.053C108.975,462.779 109.615,462.142 110.896,462.142ZM119.925,462.142L124.46,462.142C125.74,462.142 126.381,462.779 126.381,464.053L126.381,470.274C126.381,471.547 125.74,472.184 124.46,472.184L119.925,472.184C118.645,472.184 118.005,471.547 118.005,470.274L118.005,464.053C118.005,462.779 118.645,462.142 119.925,462.142ZM128.995,462.142L133.49,462.142C134.77,462.142 135.41,462.779 135.41,464.053L135.41,470.274C135.41,471.547 134.77,472.184 133.49,472.184L128.995,472.184C127.715,472.184 127.075,471.547 127.075,470.274L127.075,464.053C127.075,462.779 127.715,462.142 128.995,462.142ZM138.025,462.142L142.519,462.142C143.799,462.142 144.439,462.779 144.439,464.053L144.439,470.274C144.439,471.547 143.799,472.184 142.519,472.184L138.025,472.184C136.745,472.184 136.105,471.547 136.105,470.274L136.105,464.053C136.105,462.779 136.745,462.142 138.025,462.142ZM147.054,462.142L151.59,462.142C152.87,462.142 153.51,462.779 153.51,464.053L153.51,470.274C153.51,471.547 152.87,472.184 151.59,472.184L147.054,472.184C145.774,472.184 145.134,471.547 145.134,470.274L145.134,464.053C145.134,462.779 145.774,462.142 147.054,462.142Z" style="fill:white;fill-rule:nonzero;"/>
                </g>
                <g transform="matrix(6.96843e-17,1.13803,-0.949223,5.81231e-17,1064.02,40.9939)">
                    <path d="M110.896,462.142L115.39,462.142C116.67,462.142 117.31,462.779 117.31,464.053L117.31,470.274C117.31,471.547 116.67,472.184 115.39,472.184L110.896,472.184C109.615,472.184 108.975,471.547 108.975,470.274L108.975,464.053C108.975,462.779 109.615,462.142 110.896,462.142ZM119.925,462.142L124.46,462.142C125.74,462.142 126.381,462.779 126.381,464.053L126.381,470.274C126.381,471.547 125.74,472.184 124.46,472.184L119.925,472.184C118.645,472.184 118.005,471.547 118.005,470.274L118.005,464.053C118.005,462.779 118.645,462.142 119.925,462.142ZM128.995,462.142L133.49,462.142C134.77,462.142 135.41,462.779 135.41,464.053L135.41,470.274C135.41,471.547 134.77,472.184 133.49,472.184L128.995,472.184C127.715,472.184 127.075,471.547 127.075,470.274L127.075,464.053C127.075,462.779 127.715,462.142 128.995,462.142ZM138.025,462.142L142.519,462.142C143.799,462.142 144.439,462.779 144.439,464.053L144.439,470.274C144.439,471.547 143.799,472.184 142.519,472.184L138.025,472.184C136.745,472.184 136.105,471.547 136.105,470.274L136.105,464.053C136.105,462.779 136.745,462.142 138.025,462.142ZM147.054,462.142L151.59,462.142C152.87,462.142 153.51,462.779 153.51,464.053L153.51,470.274C153.51,471.547 152.87,472.184 151.59,472.184L147.054,472.184C145.774,472.184 145.134,471.547 145.134,470.274L145.134,464.053C145.134,462.779 145.774,462.142 147.054,462.142Z" style="fill:white;fill-rule:nonzero;"/>
                </g>
                <g transform="matrix(6.96843e-17,1.13803,-0.949223,5.81231e-17,1022.87,360.217)">
                    <path d="M110.896,462.142L115.39,462.142C116.67,462.142 117.31,462.779 117.31,464.053L117.31,470.274C117.31,471.547 116.67,472.184 115.39,472.184L110.896,472.184C109.615,472.184 108.975,471.547 108.975,470.274L108.975,464.053C108.975,462.779 109.615,462.142 110.896,462.142ZM119.925,462.142L124.46,462.142C125.74,462.142 126.381,462.779 126.381,464.053L126.381,470.274C126.381,471.547 125.74,472.184 124.46,472.184L119.925,472.184C118.645,472.184 118.005,471.547 118.005,470.274L118.005,464.053C118.005,462.779 118.645,462.142 119.925,462.142ZM128.995,462.142L133.49,462.142C134.77,462.142 135.41,462.779 135.41,464.053L135.41,470.274C135.41,471.547 134.77,472.184 133.49,472.184L128.995,472.184C127.715,472.184 127.075,471.547 127.075,470.274L127.075,464.053C127.075,462.779 127.715,462.142 128.995,462.142ZM138.025,462.142L142.519,462.142C143.799,462.142 144.439,462.779 144.439,464.053L144.439,470.274C144.439,471.547 143.799,472.184 142.519,472.184L138.025,472.184C136.745,472.184 136.105,471.547 136.105,470.274L136.105,464.053C136.105,462.779 136.745,462.142 138.025,462.142ZM147.054,462.142L151.59,462.142C152.87,462.142 153.51,462.779 153.51,464.053L153.51,470.274C153.51,471.547 152.87,472.184 151.59,472.184L147.054,472.184C145.774,472.184 145.134,471.547 145.134,470.274L145.134,464.053C145.134,462.779 145.774,462.142 147.054,462.142Z" style="fill:white;fill-rule:nonzero;"/>
                </g>
                <g transform="matrix(6.96843e-17,1.13803,-0.949223,5.81231e-17,1022.87,257.323)">
                    <path d="M110.896,462.142L115.39,462.142C116.67,462.142 117.31,462.779 117.31,464.053L117.31,470.274C117.31,471.547 116.67,472.184 115.39,472.184L110.896,472.184C109.615,472.184 108.975,471.547 108.975,470.274L108.975,464.053C108.975,462.779 109.615,462.142 110.896,462.142ZM119.925,462.142L124.46,462.142C125.74,462.142 126.381,462.779 126.381,464.053L126.381,470.274C126.381,471.547 125.74,472.184 124.46,472.184L119.925,472.184C118.645,472.184 118.005,471.547 118.005,470.274L118.005,464.053C118.005,462.779 118.645,462.142 119.925,462.142ZM128.995,462.142L133.49,462.142C134.77,462.142 135.41,462.779 135.41,464.053L135.41,470.274C135.41,471.547 134.77,472.184 133.49,472.184L128.995,472.184C127.715,472.184 127.075,471.547 127.075,470.274L127.075,464.053C127.075,462.779 127.715,462.142 128.995,462.142ZM138.025,462.142L142.519,462.142C143.799,462.142 144.439,462.779 144.439,464.053L144.439,470.274C144.439,471.547 143.799,472.184 142.519,472.184L138.025,472.184C136.745,472.184 136.105,471.547 136.105,470.274L136.105,464.053C136.105,462.779 136.745,462.142 138.025,462.142ZM147.054,462.142L151.59,462.142C152.87,462.142 153.51,462.779 153.51,464.053L153.51,470.274C153.51,471.547 152.87,472.184 151.59,472.184L147.054,472.184C145.774,472.184 145.134,471.547 145.134,470.274L145.134,464.053C145.134,462.779 145.774,462.142 147.054,462.142Z" style="fill:white;fill-rule:nonzero;"/>
                </g>
                <g transform="matrix(6.96843e-17,1.13803,-0.949223,5.81231e-17,1022.87,308.77)">
                    <path d="M110.896,462.142L115.39,462.142C116.67,462.142 117.31,462.779 117.31,464.053L117.31,470.274C117.31,471.547 116.67,472.184 115.39,472.184L110.896,472.184C109.615,472.184 108.975,471.547 108.975,470.274L108.975,464.053C108.975,462.779 109.615,462.142 110.896,462.142ZM119.925,462.142L124.46,462.142C125.74,462.142 126.381,462.779 126.381,464.053L126.381,470.274C126.381,471.547 125.74,472.184 124.46,472.184L119.925,472.184C118.645,472.184 118.005,471.547 118.005,470.274L118.005,464.053C118.005,462.779 118.645,462.142 119.925,462.142ZM128.995,462.142L133.49,462.142C134.77,462.142 135.41,462.779 135.41,464.053L135.41,470.274C135.41,471.547 134.77,472.184 133.49,472.184L128.995,472.184C127.715,472.184 127.075,471.547 127.075,470.274L127.075,464.053C127.075,462.779 127.715,462.142 128.995,462.142ZM138.025,462.142L142.519,462.142C143.799,462.142 144.439,462.779 144.439,464.053L144.439,470.274C144.439,471.547 143.799,472.184 142.519,472.184L138.025,472.184C136.745,472.184 136.105,471.547 136.105,470.274L136.105,464.053C136.105,462.779 136.745,462.142 138.025,462.142ZM147.054,462.142L151.59,462.142C152.87,462.142 153.51,462.779 153.51,464.053L153.51,470.274C153.51,471.547 152.87,472.184 151.59,472.184L147.054,472.184C145.774,472.184 145.134,471.547 145.134,470.274L145.134,464.053C145.134,462.779 145.774,462.142 147.054,462.142Z" style="fill:white;fill-rule:nonzero;"/>
                </g>
                <g transform="matrix(1.13803,0,0,0.949223,450.642,-88.2306)">
                    <path d="M110.896,483.842L115.39,483.842C116.67,483.842 117.31,484.479 117.31,485.753L117.31,491.974C117.31,493.247 116.67,493.884 115.39,493.884L110.896,493.884C109.615,493.884 108.975,493.247 108.975,491.974L108.975,485.753C108.975,484.479 109.615,483.842 110.896,483.842ZM110.896,473.017L115.39,473.017C116.67,473.017 117.31,473.653 117.31,474.927L117.31,481.099C117.31,482.373 116.67,483.009 115.39,483.009L110.896,483.009C109.615,483.009 108.975,482.373 108.975,481.099L108.975,474.927C108.975,473.653 109.615,473.017 110.896,473.017ZM119.925,462.142L124.46,462.142C125.74,462.142 126.381,462.779 126.381,464.053L126.381,470.274C126.381,471.547 125.74,472.184 124.46,472.184L119.925,472.184C118.645,472.184 118.005,471.547 118.005,470.274L118.005,464.053C118.005,462.779 118.645,462.142 119.925,462.142ZM128.995,451.317L133.49,451.317C134.77,451.317 135.41,451.953 135.41,453.227L135.41,459.448C135.41,460.722 134.77,461.358 133.49,461.358L128.995,461.358C127.715,461.358 127.075,460.722 127.075,459.448L127.075,453.227C127.075,451.953 127.715,451.317 128.995,451.317ZM138.025,440.442L142.519,440.442C143.799,440.442 144.439,441.079 144.439,442.353L144.439,448.574C144.439,449.847 143.799,450.484 142.519,450.484L138.025,450.484C136.745,450.484 136.105,449.847 136.105,448.574L136.105,442.353C136.105,441.079 136.745,440.442 138.025,440.442ZM147.054,429.617L151.59,429.617C152.87,429.617 153.51,430.253 153.51,431.527L153.51,437.748C153.51,439.022 152.87,439.658 151.59,439.658L147.054,439.658C145.774,439.658 145.134,439.022 145.134,437.748L145.134,431.527C145.134,430.253 145.774,429.617 147.054,429.617Z" style="fill:white;fill-rule:nonzero;"/>
                </g>
            </g>
            <g>
                <g transform="matrix(1,0,0,1,10.3114,0)">
                    <g transform="matrix(1.10949,0,0,3.82063,687.107,-1436.75)">
                        <path d="M235.759,421.895L240.427,421.895C241.745,421.895 242.404,422.079 242.404,422.448L242.404,424.252C242.404,424.621 241.745,424.806 240.427,424.806L235.759,424.806C234.442,424.806 233.783,424.621 233.783,424.252L233.783,422.448C233.783,422.079 234.442,421.895 235.759,421.895ZM235.759,431.324L240.427,431.324C241.745,431.324 242.404,431.508 242.404,431.877L242.404,433.681C242.404,434.05 241.745,434.235 240.427,434.235L235.759,434.235C234.442,434.235 233.783,434.05 233.783,433.681L233.783,431.877C233.783,431.508 234.442,431.324 235.759,431.324ZM235.759,434.476L240.427,434.476C241.745,434.476 242.404,434.661 242.404,435.03L242.404,436.819C242.404,437.188 241.745,437.373 240.427,437.373L235.759,437.373C234.442,437.373 233.783,437.188 233.783,436.819L233.783,435.03C233.783,434.661 234.442,434.476 235.759,434.476ZM235.759,437.614L240.427,437.614C241.745,437.614 242.404,437.799 242.404,438.168L242.404,439.971C242.404,440.341 241.745,440.525 240.427,440.525L235.759,440.525C234.442,440.525 233.783,440.341 233.783,439.971L233.783,438.168C233.783,437.799 234.442,437.614 235.759,437.614ZM226.465,418.756L231.091,418.756C232.409,418.756 233.068,418.941 233.068,419.31L233.068,421.099C233.068,421.469 232.409,421.653 231.091,421.653L226.465,421.653C225.148,421.653 224.489,421.469 224.489,421.099L224.489,419.31C224.489,418.941 225.148,418.756 226.465,418.756ZM226.465,428.185L231.091,428.185C232.409,428.185 233.068,428.37 233.068,428.739L233.068,430.543C233.068,430.912 232.409,431.096 231.091,431.096L226.465,431.096C225.148,431.096 224.489,430.912 224.489,430.543L224.489,428.739C224.489,428.37 225.148,428.185 226.465,428.185ZM226.465,440.752L231.091,440.752C232.409,440.752 233.068,440.937 233.068,441.306L233.068,443.11C233.068,443.479 232.409,443.663 231.091,443.663L226.465,443.663C225.148,443.663 224.489,443.479 224.489,443.11L224.489,441.306C224.489,440.937 225.148,440.752 226.465,440.752ZM217.172,418.756L221.797,418.756C223.115,418.756 223.774,418.941 223.774,419.31L223.774,421.099C223.774,421.469 223.115,421.653 221.797,421.653L217.172,421.653C215.854,421.653 215.195,421.469 215.195,421.099L215.195,419.31C215.195,418.941 215.854,418.756 217.172,418.756ZM217.172,428.185L221.797,428.185C223.115,428.185 223.774,428.37 223.774,428.739L223.774,430.543C223.774,430.912 223.115,431.096 221.797,431.096L217.172,431.096C215.854,431.096 215.195,430.912 215.195,430.543L215.195,428.739C215.195,428.37 215.854,428.185 217.172,428.185ZM217.172,440.752L221.797,440.752C223.115,440.752 223.774,440.937 223.774,441.306L223.774,443.11C223.774,443.479 223.115,443.663 221.797,443.663L217.172,443.663C215.854,443.663 215.195,443.479 215.195,443.11L215.195,441.306C215.195,440.937 215.854,440.752 217.172,440.752ZM207.836,418.756L212.504,418.756C213.821,418.756 214.48,418.941 214.48,419.31L214.48,421.099C214.48,421.469 213.821,421.653 212.504,421.653L207.836,421.653C206.518,421.653 205.859,421.469 205.859,421.099L205.859,419.31C205.859,418.941 206.518,418.756 207.836,418.756ZM207.836,428.185L212.504,428.185C213.821,428.185 214.48,428.37 214.48,428.739L214.48,430.543C214.48,430.912 213.821,431.096 212.504,431.096L207.836,431.096C206.518,431.096 205.859,430.912 205.859,430.543L205.859,428.739C205.859,428.37 206.518,428.185 207.836,428.185ZM207.836,440.752L212.504,440.752C213.821,440.752 214.48,440.937 214.48,441.306L214.48,443.11C214.48,443.479 213.821,443.663 212.504,443.663L207.836,443.663C206.518,443.663 205.859,443.479 205.859,443.11L205.859,441.306C205.859,440.937 206.518,440.752 207.836,440.752ZM198.542,421.895L203.168,421.895C204.485,421.895 205.144,422.079 205.144,422.448L205.144,424.252C205.144,424.621 204.485,424.806 203.168,424.806L198.542,424.806C197.224,424.806 196.565,424.621 196.565,424.252L196.565,422.448C196.565,422.079 197.224,421.895 198.542,421.895ZM198.542,425.033L203.168,425.033C204.485,425.033 205.144,425.217 205.144,425.587L205.144,427.39C205.144,427.759 204.485,427.944 203.168,427.944L198.542,427.944C197.224,427.944 196.565,427.759 196.565,427.39L196.565,425.587C196.565,425.217 197.224,425.033 198.542,425.033ZM198.542,437.614L203.168,437.614C204.485,437.614 205.144,437.799 205.144,438.168L205.144,439.971C205.144,440.341 204.485,440.525 203.168,440.525L198.542,440.525C197.224,440.525 196.565,440.341 196.565,439.971L196.565,438.168C196.565,437.799 197.224,437.614 198.542,437.614ZM198.542,434.476L203.168,434.476C204.485,434.476 205.144,434.661 205.144,435.03L205.144,436.819C205.144,437.188 204.485,437.373 203.168,437.373L198.542,437.373C197.224,437.373 196.565,437.188 196.565,436.819L196.565,435.03C196.565,434.661 197.224,434.476 198.542,434.476Z" style="fill:rgb(197,249,70);fill-rule:nonzero;"/>
                    </g>
                    <g transform="matrix(1.10949,0,0,3.82063,687.107,-1436.75)">
                        <path d="M303.045,418.756L307.713,418.756C309.031,418.756 309.689,418.941 309.689,419.31L309.689,421.099C309.689,421.469 309.031,421.653 307.713,421.653L303.045,421.653C301.727,421.653 301.068,421.469 301.068,421.099L301.068,419.31C301.068,418.941 301.727,418.756 303.045,418.756ZM303.045,440.752L307.713,440.752C309.031,440.752 309.689,440.937 309.689,441.306L309.689,443.11C309.689,443.479 309.031,443.663 307.713,443.663L303.045,443.663C301.727,443.663 301.068,443.479 301.068,443.11L301.068,441.306C301.068,440.937 301.727,440.752 303.045,440.752ZM303.045,437.614L307.713,437.614C309.031,437.614 309.689,437.799 309.689,438.168L309.689,439.971C309.689,440.341 309.031,440.525 307.713,440.525L303.045,440.525C301.727,440.525 301.068,440.341 301.068,439.971L301.068,438.168C301.068,437.799 301.727,437.614 303.045,437.614ZM303.045,434.476L307.713,434.476C309.031,434.476 309.689,434.661 309.689,435.03L309.689,436.819C309.689,437.188 309.031,437.373 307.713,437.373L303.045,437.373C301.727,437.373 301.068,437.188 301.068,436.819L301.068,435.03C301.068,434.661 301.727,434.476 303.045,434.476ZM293.751,421.895L298.377,421.895C299.695,421.895 300.353,422.079 300.353,422.448L300.353,424.252C300.353,424.621 299.695,424.806 298.377,424.806L293.751,424.806C292.433,424.806 291.775,424.621 291.775,424.252L291.775,422.448C291.775,422.079 292.433,421.895 293.751,421.895ZM293.751,431.324L298.377,431.324C299.695,431.324 300.353,431.508 300.353,431.877L300.353,433.681C300.353,434.05 299.695,434.235 298.377,434.235L293.751,434.235C292.433,434.235 291.775,434.05 291.775,433.681L291.775,431.877C291.775,431.508 292.433,431.324 293.751,431.324ZM284.457,425.033L289.083,425.033C290.401,425.033 291.06,425.217 291.06,425.587L291.06,427.39C291.06,427.759 290.401,427.944 289.083,427.944L284.457,427.944C283.14,427.944 282.481,427.759 282.481,427.39L282.481,425.587C282.481,425.217 283.14,425.033 284.457,425.033ZM284.457,431.324L289.083,431.324C290.401,431.324 291.06,431.508 291.06,431.877L291.06,433.681C291.06,434.05 290.401,434.235 289.083,434.235L284.457,434.235C283.14,434.235 282.481,434.05 282.481,433.681L282.481,431.877C282.481,431.508 283.14,431.324 284.457,431.324ZM275.121,428.185L279.789,428.185C281.107,428.185 281.766,428.37 281.766,428.739L281.766,430.543C281.766,430.912 281.107,431.096 279.789,431.096L275.121,431.096C273.804,431.096 273.145,430.912 273.145,430.543L273.145,428.739C273.145,428.37 273.804,428.185 275.121,428.185ZM275.121,431.324L279.789,431.324C281.107,431.324 281.766,431.508 281.766,431.877L281.766,433.681C281.766,434.05 281.107,434.235 279.789,434.235L275.121,434.235C273.804,434.235 273.145,434.05 273.145,433.681L273.145,431.877C273.145,431.508 273.804,431.324 275.121,431.324ZM265.828,418.756L270.453,418.756C271.771,418.756 272.43,418.941 272.43,419.31L272.43,421.099C272.43,421.469 271.771,421.653 270.453,421.653L265.828,421.653C264.51,421.653 263.851,421.469 263.851,421.099L263.851,419.31C263.851,418.941 264.51,418.756 265.828,418.756ZM265.828,421.895L270.453,421.895C271.771,421.895 272.43,422.079 272.43,422.448L272.43,424.252C272.43,424.621 271.771,424.806 270.453,424.806L265.828,424.806C264.51,424.806 263.851,424.621 263.851,424.252L263.851,422.448C263.851,422.079 264.51,421.895 265.828,421.895ZM265.828,425.033L270.453,425.033C271.771,425.033 272.43,425.217 272.43,425.587L272.43,427.39C272.43,427.759 271.771,427.944 270.453,427.944L265.828,427.944C264.51,427.944 263.851,427.759 263.851,427.39L263.851,425.587C263.851,425.217 264.51,425.033 265.828,425.033ZM265.828,428.185L270.453,428.185C271.771,428.185 272.43,428.37 272.43,428.739L272.43,430.543C272.43,430.912 271.771,431.096 270.453,431.096L265.828,431.096C264.51,431.096 263.851,430.912 263.851,430.543L263.851,428.739C263.851,428.37 264.51,428.185 265.828,428.185ZM265.828,431.324L270.453,431.324C271.771,431.324 272.43,431.508 272.43,431.877L272.43,433.681C272.43,434.05 271.771,434.235 270.453,434.235L265.828,434.235C264.51,434.235 263.851,434.05 263.851,433.681L263.851,431.877C263.851,431.508 264.51,431.324 265.828,431.324ZM265.828,434.476L270.453,434.476C271.771,434.476 272.43,434.661 272.43,435.03L272.43,436.819C272.43,437.188 271.771,437.373 270.453,437.373L265.828,437.373C264.51,437.373 263.851,437.188 263.851,436.819L263.851,435.03C263.851,434.661 264.51,434.476 265.828,434.476ZM265.828,437.614L270.453,437.614C271.771,437.614 272.43,437.799 272.43,438.168L272.43,439.971C272.43,440.341 271.771,440.525 270.453,440.525L265.828,440.525C264.51,440.525 263.851,440.341 263.851,439.971L263.851,438.168C263.851,437.799 264.51,437.614 265.828,437.614ZM265.828,440.752L270.453,440.752C271.771,440.752 272.43,440.937 272.43,441.306L272.43,443.11C272.43,443.479 271.771,443.663 270.453,443.663L265.828,443.663C264.51,443.663 263.851,443.479 263.851,443.11L263.851,441.306C263.851,440.937 264.51,440.752 265.828,440.752Z" style="fill:rgb(197,249,70);fill-rule:nonzero;"/>
                    </g>
                    <g transform="matrix(1.10949,0,0,3.82063,687.107,-1436.75)">
                        <path d="M333.113,434.476L337.739,434.476C339.057,434.476 339.716,434.661 339.716,435.03L339.716,436.819C339.716,437.188 339.057,437.373 337.739,437.373L333.113,437.373C331.795,437.373 331.137,437.188 331.137,436.819L331.137,435.03C331.137,434.661 331.795,434.476 333.113,434.476ZM333.113,431.324L337.739,431.324C339.057,431.324 339.716,431.508 339.716,431.877L339.716,433.681C339.716,434.05 339.057,434.235 337.739,434.235L333.113,434.235C331.795,434.235 331.137,434.05 331.137,433.681L331.137,431.877C331.137,431.508 331.795,431.324 333.113,431.324ZM333.113,428.185L337.739,428.185C339.057,428.185 339.716,428.37 339.716,428.739L339.716,430.543C339.716,430.912 339.057,431.096 337.739,431.096L333.113,431.096C331.795,431.096 331.137,430.912 331.137,430.543L331.137,428.739C331.137,428.37 331.795,428.185 333.113,428.185ZM333.113,425.033L337.739,425.033C339.057,425.033 339.716,425.217 339.716,425.587L339.716,427.39C339.716,427.759 339.057,427.944 337.739,427.944L333.113,427.944C331.795,427.944 331.137,427.759 331.137,427.39L331.137,425.587C331.137,425.217 331.795,425.033 333.113,425.033ZM333.113,421.895L337.739,421.895C339.057,421.895 339.716,422.079 339.716,422.448L339.716,424.252C339.716,424.621 339.057,424.806 337.739,424.806L333.113,424.806C331.795,424.806 331.137,424.621 331.137,424.252L331.137,422.448C331.137,422.079 331.795,421.895 333.113,421.895ZM333.113,418.756L337.739,418.756C339.057,418.756 339.716,418.941 339.716,419.31L339.716,421.099C339.716,421.469 339.057,421.653 337.739,421.653L333.113,421.653C331.795,421.653 331.137,421.469 331.137,421.099L331.137,419.31C331.137,418.941 331.795,418.756 333.113,418.756ZM333.113,437.614L337.739,437.614C339.057,437.614 339.716,437.799 339.716,438.168L339.716,439.971C339.716,440.341 339.057,440.525 337.739,440.525L333.113,440.525C331.795,440.525 331.137,440.341 331.137,439.971L331.137,438.168C331.137,437.799 331.795,437.614 333.113,437.614ZM342.407,440.752L347.075,440.752C348.393,440.752 349.051,440.937 349.051,441.306L349.051,443.11C349.051,443.479 348.393,443.663 347.075,443.663L342.407,443.663C341.089,443.663 340.43,443.479 340.43,443.11L340.43,441.306C340.43,440.937 341.089,440.752 342.407,440.752ZM351.743,440.752L356.369,440.752C357.686,440.752 358.345,440.937 358.345,441.306L358.345,443.11C358.345,443.479 357.686,443.663 356.369,443.663L351.743,443.663C350.425,443.663 349.766,443.479 349.766,443.11L349.766,441.306C349.766,440.937 350.425,440.752 351.743,440.752ZM361.037,440.752L365.663,440.752C366.98,440.752 367.639,440.937 367.639,441.306L367.639,443.11C367.639,443.479 366.98,443.663 365.663,443.663L361.037,443.663C359.719,443.663 359.06,443.479 359.06,443.11L359.06,441.306C359.06,440.937 359.719,440.752 361.037,440.752ZM370.331,437.614L374.998,437.614C376.316,437.614 376.975,437.799 376.975,438.168L376.975,439.971C376.975,440.341 376.316,440.525 374.998,440.525L370.331,440.525C369.013,440.525 368.354,440.341 368.354,439.971L368.354,438.168C368.354,437.799 369.013,437.614 370.331,437.614ZM370.331,434.476L374.998,434.476C376.316,434.476 376.975,434.661 376.975,435.03L376.975,436.819C376.975,437.188 376.316,437.373 374.998,437.373L370.331,437.373C369.013,437.373 368.354,437.188 368.354,436.819L368.354,435.03C368.354,434.661 369.013,434.476 370.331,434.476ZM370.331,431.324L374.998,431.324C376.316,431.324 376.975,431.508 376.975,431.877L376.975,433.681C376.975,434.05 376.316,434.235 374.998,434.235L370.331,434.235C369.013,434.235 368.354,434.05 368.354,433.681L368.354,431.877C368.354,431.508 369.013,431.324 370.331,431.324ZM370.331,428.185L374.998,428.185C376.316,428.185 376.975,428.37 376.975,428.739L376.975,430.543C376.975,430.912 376.316,431.096 374.998,431.096L370.331,431.096C369.013,431.096 368.354,430.912 368.354,430.543L368.354,428.739C368.354,428.37 369.013,428.185 370.331,428.185ZM370.331,425.033L374.998,425.033C376.316,425.033 376.975,425.217 376.975,425.587L376.975,427.39C376.975,427.759 376.316,427.944 374.998,427.944L370.331,427.944C369.013,427.944 368.354,427.759 368.354,427.39L368.354,425.587C368.354,425.217 369.013,425.033 370.331,425.033ZM370.331,421.895L374.998,421.895C376.316,421.895 376.975,422.079 376.975,422.448L376.975,424.252C376.975,424.621 376.316,424.806 374.998,424.806L370.331,424.806C369.013,424.806 368.354,424.621 368.354,424.252L368.354,422.448C368.354,422.079 369.013,421.895 370.331,421.895ZM370.331,418.756L374.998,418.756C376.316,418.756 376.975,418.941 376.975,419.31L376.975,421.099C376.975,421.469 376.316,421.653 374.998,421.653L370.331,421.653C369.013,421.653 368.354,421.469 368.354,421.099L368.354,419.31C368.354,418.941 369.013,418.756 370.331,418.756Z" style="fill:rgb(197,249,70);fill-rule:nonzero;"/>
                    </g>
                </g>
                <g transform="matrix(1,0,0,1,10.3114,0)">
                    <g transform="matrix(1.10949,0,0,3.82063,687.107,-1436.75)">
                        <path d="M303.045,458.236L307.713,458.236C309.031,458.236 309.689,458.42 309.689,458.789L309.689,460.593C309.689,460.962 309.031,461.147 307.713,461.147L303.045,461.147C301.727,461.147 301.068,460.962 301.068,460.593L301.068,458.789C301.068,458.42 301.727,458.236 303.045,458.236ZM303.045,461.374L307.713,461.374C309.031,461.374 309.689,461.558 309.689,461.928L309.689,463.731C309.689,464.1 309.031,464.285 307.713,464.285L303.045,464.285C301.727,464.285 301.068,464.1 301.068,463.731L301.068,461.928C301.068,461.558 301.727,461.374 303.045,461.374ZM303.045,464.526L307.713,464.526C309.031,464.526 309.689,464.711 309.689,465.08L309.689,466.884C309.689,467.253 309.031,467.437 307.713,467.437L303.045,467.437C301.727,467.437 301.068,467.253 301.068,466.884L301.068,465.08C301.068,464.711 301.727,464.526 303.045,464.526ZM303.045,470.817L307.713,470.817C309.031,470.817 309.689,471.002 309.689,471.371L309.689,473.16C309.689,473.529 309.031,473.714 307.713,473.714L303.045,473.714C301.727,473.714 301.068,473.529 301.068,473.16L301.068,471.371C301.068,471.002 301.727,470.817 303.045,470.817ZM303.045,473.955L307.713,473.955C309.031,473.955 309.689,474.14 309.689,474.509L309.689,476.312C309.689,476.682 309.031,476.866 307.713,476.866L303.045,476.866C301.727,476.866 301.068,476.682 301.068,476.312L301.068,474.509C301.068,474.14 301.727,473.955 303.045,473.955ZM303.045,477.093L307.713,477.093C309.031,477.093 309.689,477.278 309.689,477.647L309.689,479.451C309.689,479.82 309.031,480.004 307.713,480.004L303.045,480.004C301.727,480.004 301.068,479.82 301.068,479.451L301.068,477.647C301.068,477.278 301.727,477.093 303.045,477.093ZM293.751,455.097L298.377,455.097C299.695,455.097 300.353,455.282 300.353,455.651L300.353,457.44C300.353,457.81 299.695,457.994 298.377,457.994L293.751,457.994C292.433,457.994 291.775,457.81 291.775,457.44L291.775,455.651C291.775,455.282 292.433,455.097 293.751,455.097ZM293.751,467.665L298.377,467.665C299.695,467.665 300.353,467.849 300.353,468.218L300.353,470.022C300.353,470.391 299.695,470.576 298.377,470.576L293.751,470.576C292.433,470.576 291.775,470.391 291.775,470.022L291.775,468.218C291.775,467.849 292.433,467.665 293.751,467.665ZM284.457,455.097L289.083,455.097C290.401,455.097 291.06,455.282 291.06,455.651L291.06,457.44C291.06,457.81 290.401,457.994 289.083,457.994L284.457,457.994C283.14,457.994 282.481,457.81 282.481,457.44L282.481,455.651C282.481,455.282 283.14,455.097 284.457,455.097ZM284.457,467.665L289.083,467.665C290.401,467.665 291.06,467.849 291.06,468.218L291.06,470.022C291.06,470.391 290.401,470.576 289.083,470.576L284.457,470.576C283.14,470.576 282.481,470.391 282.481,470.022L282.481,468.218C282.481,467.849 283.14,467.665 284.457,467.665ZM275.121,455.097L279.789,455.097C281.107,455.097 281.766,455.282 281.766,455.651L281.766,457.44C281.766,457.81 281.107,457.994 279.789,457.994L275.121,457.994C273.804,457.994 273.145,457.81 273.145,457.44L273.145,455.651C273.145,455.282 273.804,455.097 275.121,455.097ZM275.121,467.665L279.789,467.665C281.107,467.665 281.766,467.849 281.766,468.218L281.766,470.022C281.766,470.391 281.107,470.576 279.789,470.576L275.121,470.576C273.804,470.576 273.145,470.391 273.145,470.022L273.145,468.218C273.145,467.849 273.804,467.665 275.121,467.665ZM265.828,455.097L270.453,455.097C271.771,455.097 272.43,455.282 272.43,455.651L272.43,457.44C272.43,457.81 271.771,457.994 270.453,457.994L265.828,457.994C264.51,457.994 263.851,457.81 263.851,457.44L263.851,455.651C263.851,455.282 264.51,455.097 265.828,455.097ZM265.828,458.236L270.453,458.236C271.771,458.236 272.43,458.42 272.43,458.789L272.43,460.593C272.43,460.962 271.771,461.147 270.453,461.147L265.828,461.147C264.51,461.147 263.851,460.962 263.851,460.593L263.851,458.789C263.851,458.42 264.51,458.236 265.828,458.236ZM265.828,461.374L270.453,461.374C271.771,461.374 272.43,461.558 272.43,461.928L272.43,463.731C272.43,464.1 271.771,464.285 270.453,464.285L265.828,464.285C264.51,464.285 263.851,464.1 263.851,463.731L263.851,461.928C263.851,461.558 264.51,461.374 265.828,461.374ZM265.828,464.526L270.453,464.526C271.771,464.526 272.43,464.711 272.43,465.08L272.43,466.884C272.43,467.253 271.771,467.437 270.453,467.437L265.828,467.437C264.51,467.437 263.851,467.253 263.851,466.884L263.851,465.08C263.851,464.711 264.51,464.526 265.828,464.526ZM265.828,467.665L270.453,467.665C271.771,467.665 272.43,467.849 272.43,468.218L272.43,470.022C272.43,470.391 271.771,470.576 270.453,470.576L265.828,470.576C264.51,470.576 263.851,470.391 263.851,470.022L263.851,468.218C263.851,467.849 264.51,467.665 265.828,467.665ZM265.828,470.817L270.453,470.817C271.771,470.817 272.43,471.002 272.43,471.371L272.43,473.16C272.43,473.529 271.771,473.714 270.453,473.714L265.828,473.714C264.51,473.714 263.851,473.529 263.851,473.16L263.851,471.371C263.851,471.002 264.51,470.817 265.828,470.817ZM265.828,473.955L270.453,473.955C271.771,473.955 272.43,474.14 272.43,474.509L272.43,476.312C272.43,476.682 271.771,476.866 270.453,476.866L265.828,476.866C264.51,476.866 263.851,476.682 263.851,476.312L263.851,474.509C263.851,474.14 264.51,473.955 265.828,473.955ZM265.828,477.093L270.453,477.093C271.771,477.093 272.43,477.278 272.43,477.647L272.43,479.451C272.43,479.82 271.771,480.004 270.453,480.004L265.828,480.004C264.51,480.004 263.851,479.82 263.851,479.451L263.851,477.647C263.851,477.278 264.51,477.093 265.828,477.093Z" style="fill:rgb(197,249,70);fill-rule:nonzero;"/>
                    </g>
                    <g transform="matrix(1.10949,0,0,3.82063,687.107,-1436.75)">
                        <path d="M370.331,458.236L374.998,458.236C376.316,458.236 376.975,458.42 376.975,458.789L376.975,460.593C376.975,460.962 376.316,461.147 374.998,461.147L370.331,461.147C369.013,461.147 368.354,460.962 368.354,460.593L368.354,458.789C368.354,458.42 369.013,458.236 370.331,458.236ZM370.331,461.374L374.998,461.374C376.316,461.374 376.975,461.558 376.975,461.928L376.975,463.731C376.975,464.1 376.316,464.285 374.998,464.285L370.331,464.285C369.013,464.285 368.354,464.1 368.354,463.731L368.354,461.928C368.354,461.558 369.013,461.374 370.331,461.374ZM370.331,464.526L374.998,464.526C376.316,464.526 376.975,464.711 376.975,465.08L376.975,466.884C376.975,467.253 376.316,467.437 374.998,467.437L370.331,467.437C369.013,467.437 368.354,467.253 368.354,466.884L368.354,465.08C368.354,464.711 369.013,464.526 370.331,464.526ZM370.331,467.665L374.998,467.665C376.316,467.665 376.975,467.849 376.975,468.218L376.975,470.022C376.975,470.391 376.316,470.576 374.998,470.576L370.331,470.576C369.013,470.576 368.354,470.391 368.354,470.022L368.354,468.218C368.354,467.849 369.013,467.665 370.331,467.665ZM370.331,470.817L374.998,470.817C376.316,470.817 376.975,471.002 376.975,471.371L376.975,473.16C376.975,473.529 376.316,473.714 374.998,473.714L370.331,473.714C369.013,473.714 368.354,473.529 368.354,473.16L368.354,471.371C368.354,471.002 369.013,470.817 370.331,470.817ZM370.331,473.955L374.998,473.955C376.316,473.955 376.975,474.14 376.975,474.509L376.975,476.312C376.975,476.682 376.316,476.866 374.998,476.866L370.331,476.866C369.013,476.866 368.354,476.682 368.354,476.312L368.354,474.509C368.354,474.14 369.013,473.955 370.331,473.955ZM370.331,477.093L374.998,477.093C376.316,477.093 376.975,477.278 376.975,477.647L376.975,479.451C376.975,479.82 376.316,480.004 374.998,480.004L370.331,480.004C369.013,480.004 368.354,479.82 368.354,479.451L368.354,477.647C368.354,477.278 369.013,477.093 370.331,477.093ZM361.037,455.097L365.663,455.097C366.98,455.097 367.639,455.282 367.639,455.651L367.639,457.44C367.639,457.81 366.98,457.994 365.663,457.994L361.037,457.994C359.719,457.994 359.06,457.81 359.06,457.44L359.06,455.651C359.06,455.282 359.719,455.097 361.037,455.097ZM361.037,470.817L365.663,470.817C366.98,470.817 367.639,471.002 367.639,471.371L367.639,473.16C367.639,473.529 366.98,473.714 365.663,473.714L361.037,473.714C359.719,473.714 359.06,473.529 359.06,473.16L359.06,471.371C359.06,471.002 359.719,470.817 361.037,470.817ZM351.743,455.097L356.369,455.097C357.686,455.097 358.345,455.282 358.345,455.651L358.345,457.44C358.345,457.81 357.686,457.994 356.369,457.994L351.743,457.994C350.425,457.994 349.766,457.81 349.766,457.44L349.766,455.651C349.766,455.282 350.425,455.097 351.743,455.097ZM351.743,470.817L356.369,470.817C357.686,470.817 358.345,471.002 358.345,471.371L358.345,473.16C358.345,473.529 357.686,473.714 356.369,473.714L351.743,473.714C350.425,473.714 349.766,473.529 349.766,473.16L349.766,471.371C349.766,471.002 350.425,470.817 351.743,470.817ZM342.407,455.097L347.075,455.097C348.393,455.097 349.051,455.282 349.051,455.651L349.051,457.44C349.051,457.81 348.393,457.994 347.075,457.994L342.407,457.994C341.089,457.994 340.43,457.81 340.43,457.44L340.43,455.651C340.43,455.282 341.089,455.097 342.407,455.097ZM342.407,470.817L347.075,470.817C348.393,470.817 349.051,471.002 349.051,471.371L349.051,473.16C349.051,473.529 348.393,473.714 347.075,473.714L342.407,473.714C341.089,473.714 340.43,473.529 340.43,473.16L340.43,471.371C340.43,471.002 341.089,470.817 342.407,470.817ZM333.113,458.236L337.739,458.236C339.057,458.236 339.716,458.42 339.716,458.789L339.716,460.593C339.716,460.962 339.057,461.147 337.739,461.147L333.113,461.147C331.795,461.147 331.137,460.962 331.137,460.593L331.137,458.789C331.137,458.42 331.795,458.236 333.113,458.236ZM333.113,461.374L337.739,461.374C339.057,461.374 339.716,461.558 339.716,461.928L339.716,463.731C339.716,464.1 339.057,464.285 337.739,464.285L333.113,464.285C331.795,464.285 331.137,464.1 331.137,463.731L331.137,461.928C331.137,461.558 331.795,461.374 333.113,461.374ZM333.113,464.526L337.739,464.526C339.057,464.526 339.716,464.711 339.716,465.08L339.716,466.884C339.716,467.253 339.057,467.437 337.739,467.437L333.113,467.437C331.795,467.437 331.137,467.253 331.137,466.884L331.137,465.08C331.137,464.711 331.795,464.526 333.113,464.526ZM333.113,467.665L337.739,467.665C339.057,467.665 339.716,467.849 339.716,468.218L339.716,470.022C339.716,470.391 339.057,470.576 337.739,470.576L333.113,470.576C331.795,470.576 331.137,470.391 331.137,470.022L331.137,468.218C331.137,467.849 331.795,467.665 333.113,467.665ZM333.113,470.817L337.739,470.817C339.057,470.817 339.716,471.002 339.716,471.371L339.716,473.16C339.716,473.529 339.057,473.714 337.739,473.714L333.113,473.714C331.795,473.714 331.137,473.529 331.137,473.16L331.137,471.371C331.137,471.002 331.795,470.817 333.113,470.817ZM333.113,473.955L337.739,473.955C339.057,473.955 339.716,474.14 339.716,474.509L339.716,476.312C339.716,476.682 339.057,476.866 337.739,476.866L333.113,476.866C331.795,476.866 331.137,476.682 331.137,476.312L331.137,474.509C331.137,474.14 331.795,473.955 333.113,473.955ZM333.113,477.093L337.739,477.093C339.057,477.093 339.716,477.278 339.716,477.647L339.716,479.451C339.716,479.82 339.057,480.004 337.739,480.004L333.113,480.004C331.795,480.004 331.137,479.82 331.137,479.451L331.137,477.647C331.137,477.278 331.795,477.093 333.113,477.093Z" style="fill:rgb(197,249,70);fill-rule:nonzero;"/>
                    </g>
                </g>
                <g>
                    <g transform="matrix(1.10949,0,0,3.82063,687.107,-1436.75)">
                        <path d="M198.542,491.438L203.168,491.438C204.485,491.438 205.144,491.623 205.144,491.992L205.144,493.781C205.144,494.151 204.485,494.335 203.168,494.335L198.542,494.335C197.224,494.335 196.565,494.151 196.565,493.781L196.565,491.992C196.565,491.623 197.224,491.438 198.542,491.438ZM207.836,491.438L212.504,491.438C213.821,491.438 214.48,491.623 214.48,491.992L214.48,493.781C214.48,494.151 213.821,494.335 212.504,494.335L207.836,494.335C206.518,494.335 205.859,494.151 205.859,493.781L205.859,491.992C205.859,491.623 206.518,491.438 207.836,491.438ZM217.172,513.434L221.797,513.434C223.115,513.434 223.774,513.619 223.774,513.988L223.774,515.792C223.774,516.161 223.115,516.345 221.797,516.345L217.172,516.345C215.854,516.345 215.195,516.161 215.195,515.792L215.195,513.988C215.195,513.619 215.854,513.434 217.172,513.434ZM217.172,510.296L221.797,510.296C223.115,510.296 223.774,510.481 223.774,510.85L223.774,512.653C223.774,513.023 223.115,513.207 221.797,513.207L217.172,513.207C215.854,513.207 215.195,513.023 215.195,512.653L215.195,510.85C215.195,510.481 215.854,510.296 217.172,510.296ZM217.172,507.158L221.797,507.158C223.115,507.158 223.774,507.343 223.774,507.712L223.774,509.501C223.774,509.87 223.115,510.055 221.797,510.055L217.172,510.055C215.854,510.055 215.195,509.87 215.195,509.501L215.195,507.712C215.195,507.343 215.854,507.158 217.172,507.158ZM217.172,504.006L221.797,504.006C223.115,504.006 223.774,504.19 223.774,504.559L223.774,506.363C223.774,506.732 223.115,506.917 221.797,506.917L217.172,506.917C215.854,506.917 215.195,506.732 215.195,506.363L215.195,504.559C215.195,504.19 215.854,504.006 217.172,504.006ZM217.172,500.867L221.797,500.867C223.115,500.867 223.774,501.052 223.774,501.421L223.774,503.225C223.774,503.594 223.115,503.778 221.797,503.778L217.172,503.778C215.854,503.778 215.195,503.594 215.195,503.225L215.195,501.421C215.195,501.052 215.854,500.867 217.172,500.867ZM217.172,497.715L221.797,497.715C223.115,497.715 223.774,497.899 223.774,498.269L223.774,500.072C223.774,500.441 223.115,500.626 221.797,500.626L217.172,500.626C215.854,500.626 215.195,500.441 215.195,500.072L215.195,498.269C215.195,497.899 215.854,497.715 217.172,497.715ZM217.172,494.577L221.797,494.577C223.115,494.577 223.774,494.761 223.774,495.13L223.774,496.934C223.774,497.303 223.115,497.488 221.797,497.488L217.172,497.488C215.854,497.488 215.195,497.303 215.195,496.934L215.195,495.13C215.195,494.761 215.854,494.577 217.172,494.577ZM217.172,491.438L221.797,491.438C223.115,491.438 223.774,491.623 223.774,491.992L223.774,493.781C223.774,494.151 223.115,494.335 221.797,494.335L217.172,494.335C215.854,494.335 215.195,494.151 215.195,493.781L215.195,491.992C215.195,491.623 215.854,491.438 217.172,491.438ZM226.465,491.438L231.091,491.438C232.409,491.438 233.068,491.623 233.068,491.992L233.068,493.781C233.068,494.151 232.409,494.335 231.091,494.335L226.465,494.335C225.148,494.335 224.489,494.151 224.489,493.781L224.489,491.992C224.489,491.623 225.148,491.438 226.465,491.438ZM235.759,491.438L240.427,491.438C241.745,491.438 242.404,491.623 242.404,491.992L242.404,493.781C242.404,494.151 241.745,494.335 240.427,494.335L235.759,494.335C234.442,494.335 233.783,494.151 233.783,493.781L233.783,491.992C233.783,491.623 234.442,491.438 235.759,491.438Z" style="fill:rgb(197,249,70);fill-rule:nonzero;"/>
                    </g>
                    <g transform="matrix(1.10949,0,0,3.82063,687.107,-1436.75)">
                        <path d="M303.045,494.577L307.713,494.577C309.031,494.577 309.689,494.761 309.689,495.13L309.689,496.934C309.689,497.303 309.031,497.488 307.713,497.488L303.045,497.488C301.727,497.488 301.068,497.303 301.068,496.934L301.068,495.13C301.068,494.761 301.727,494.577 303.045,494.577ZM303.045,497.715L307.713,497.715C309.031,497.715 309.689,497.899 309.689,498.269L309.689,500.072C309.689,500.441 309.031,500.626 307.713,500.626L303.045,500.626C301.727,500.626 301.068,500.441 301.068,500.072L301.068,498.269C301.068,497.899 301.727,497.715 303.045,497.715ZM303.045,500.867L307.713,500.867C309.031,500.867 309.689,501.052 309.689,501.421L309.689,503.225C309.689,503.594 309.031,503.778 307.713,503.778L303.045,503.778C301.727,503.778 301.068,503.594 301.068,503.225L301.068,501.421C301.068,501.052 301.727,500.867 303.045,500.867ZM303.045,504.006L307.713,504.006C309.031,504.006 309.689,504.19 309.689,504.559L309.689,506.363C309.689,506.732 309.031,506.917 307.713,506.917L303.045,506.917C301.727,506.917 301.068,506.732 301.068,506.363L301.068,504.559C301.068,504.19 301.727,504.006 303.045,504.006ZM303.045,507.158L307.713,507.158C309.031,507.158 309.689,507.343 309.689,507.712L309.689,509.501C309.689,509.87 309.031,510.055 307.713,510.055L303.045,510.055C301.727,510.055 301.068,509.87 301.068,509.501L301.068,507.712C301.068,507.343 301.727,507.158 303.045,507.158ZM303.045,510.296L307.713,510.296C309.031,510.296 309.689,510.481 309.689,510.85L309.689,512.653C309.689,513.023 309.031,513.207 307.713,513.207L303.045,513.207C301.727,513.207 301.068,513.023 301.068,512.653L301.068,510.85C301.068,510.481 301.727,510.296 303.045,510.296ZM293.751,491.438L298.377,491.438C299.695,491.438 300.353,491.623 300.353,491.992L300.353,493.781C300.353,494.151 299.695,494.335 298.377,494.335L293.751,494.335C292.433,494.335 291.775,494.151 291.775,493.781L291.775,491.992C291.775,491.623 292.433,491.438 293.751,491.438ZM293.751,513.434L298.377,513.434C299.695,513.434 300.353,513.619 300.353,513.988L300.353,515.792C300.353,516.161 299.695,516.345 298.377,516.345L293.751,516.345C292.433,516.345 291.775,516.161 291.775,515.792L291.775,513.988C291.775,513.619 292.433,513.434 293.751,513.434ZM284.457,491.438L289.083,491.438C290.401,491.438 291.06,491.623 291.06,491.992L291.06,493.781C291.06,494.151 290.401,494.335 289.083,494.335L284.457,494.335C283.14,494.335 282.481,494.151 282.481,493.781L282.481,491.992C282.481,491.623 283.14,491.438 284.457,491.438ZM284.457,513.434L289.083,513.434C290.401,513.434 291.06,513.619 291.06,513.988L291.06,515.792C291.06,516.161 290.401,516.345 289.083,516.345L284.457,516.345C283.14,516.345 282.481,516.161 282.481,515.792L282.481,513.988C282.481,513.619 283.14,513.434 284.457,513.434ZM275.121,491.438L279.789,491.438C281.107,491.438 281.766,491.623 281.766,491.992L281.766,493.781C281.766,494.151 281.107,494.335 279.789,494.335L275.121,494.335C273.804,494.335 273.145,494.151 273.145,493.781L273.145,491.992C273.145,491.623 273.804,491.438 275.121,491.438ZM275.121,513.434L279.789,513.434C281.107,513.434 281.766,513.619 281.766,513.988L281.766,515.792C281.766,516.161 281.107,516.345 279.789,516.345L275.121,516.345C273.804,516.345 273.145,516.161 273.145,515.792L273.145,513.988C273.145,513.619 273.804,513.434 275.121,513.434ZM265.828,494.577L270.453,494.577C271.771,494.577 272.43,494.761 272.43,495.13L272.43,496.934C272.43,497.303 271.771,497.488 270.453,497.488L265.828,497.488C264.51,497.488 263.851,497.303 263.851,496.934L263.851,495.13C263.851,494.761 264.51,494.577 265.828,494.577ZM265.828,497.715L270.453,497.715C271.771,497.715 272.43,497.899 272.43,498.269L272.43,500.072C272.43,500.441 271.771,500.626 270.453,500.626L265.828,500.626C264.51,500.626 263.851,500.441 263.851,500.072L263.851,498.269C263.851,497.899 264.51,497.715 265.828,497.715ZM265.828,500.867L270.453,500.867C271.771,500.867 272.43,501.052 272.43,501.421L272.43,503.225C272.43,503.594 271.771,503.778 270.453,503.778L265.828,503.778C264.51,503.778 263.851,503.594 263.851,503.225L263.851,501.421C263.851,501.052 264.51,500.867 265.828,500.867ZM265.828,504.006L270.453,504.006C271.771,504.006 272.43,504.19 272.43,504.559L272.43,506.363C272.43,506.732 271.771,506.917 270.453,506.917L265.828,506.917C264.51,506.917 263.851,506.732 263.851,506.363L263.851,504.559C263.851,504.19 264.51,504.006 265.828,504.006ZM265.828,507.158L270.453,507.158C271.771,507.158 272.43,507.343 272.43,507.712L272.43,509.501C272.43,509.87 271.771,510.055 270.453,510.055L265.828,510.055C264.51,510.055 263.851,509.87 263.851,509.501L263.851,507.712C263.851,507.343 264.51,507.158 265.828,507.158ZM265.828,510.296L270.453,510.296C271.771,510.296 272.43,510.481 272.43,510.85L272.43,512.653C272.43,513.023 271.771,513.207 270.453,513.207L265.828,513.207C264.51,513.207 263.851,513.023 263.851,512.653L263.851,510.85C263.851,510.481 264.51,510.296 265.828,510.296Z" style="fill:rgb(197,249,70);fill-rule:nonzero;"/>
                    </g>
                    <g transform="matrix(1.10949,0,0,3.82063,687.107,-1436.75)">
                        <path d="M333.113,507.158L337.739,507.158C339.057,507.158 339.716,507.343 339.716,507.712L339.716,509.501C339.716,509.87 339.057,510.055 337.739,510.055L333.113,510.055C331.795,510.055 331.137,509.87 331.137,509.501L331.137,507.712C331.137,507.343 331.795,507.158 333.113,507.158ZM333.113,504.006L337.739,504.006C339.057,504.006 339.716,504.19 339.716,504.559L339.716,506.363C339.716,506.732 339.057,506.917 337.739,506.917L333.113,506.917C331.795,506.917 331.137,506.732 331.137,506.363L331.137,504.559C331.137,504.19 331.795,504.006 333.113,504.006ZM333.113,500.867L337.739,500.867C339.057,500.867 339.716,501.052 339.716,501.421L339.716,503.225C339.716,503.594 339.057,503.778 337.739,503.778L333.113,503.778C331.795,503.778 331.137,503.594 331.137,503.225L331.137,501.421C331.137,501.052 331.795,500.867 333.113,500.867ZM333.113,497.715L337.739,497.715C339.057,497.715 339.716,497.899 339.716,498.269L339.716,500.072C339.716,500.441 339.057,500.626 337.739,500.626L333.113,500.626C331.795,500.626 331.137,500.441 331.137,500.072L331.137,498.269C331.137,497.899 331.795,497.715 333.113,497.715ZM333.113,494.577L337.739,494.577C339.057,494.577 339.716,494.761 339.716,495.13L339.716,496.934C339.716,497.303 339.057,497.488 337.739,497.488L333.113,497.488C331.795,497.488 331.137,497.303 331.137,496.934L331.137,495.13C331.137,494.761 331.795,494.577 333.113,494.577ZM333.113,491.438L337.739,491.438C339.057,491.438 339.716,491.623 339.716,491.992L339.716,493.781C339.716,494.151 339.057,494.335 337.739,494.335L333.113,494.335C331.795,494.335 331.137,494.151 331.137,493.781L331.137,491.992C331.137,491.623 331.795,491.438 333.113,491.438ZM351.743,513.434L356.369,513.434C357.686,513.434 358.345,513.619 358.345,513.988L358.345,515.792C358.345,516.161 357.686,516.345 356.369,516.345L351.743,516.345C350.425,516.345 349.766,516.161 349.766,515.792L349.766,513.988C349.766,513.619 350.425,513.434 351.743,513.434ZM361.037,513.434L365.663,513.434C366.98,513.434 367.639,513.619 367.639,513.988L367.639,515.792C367.639,516.161 366.98,516.345 365.663,516.345L361.037,516.345C359.719,516.345 359.06,516.161 359.06,515.792L359.06,513.988C359.06,513.619 359.719,513.434 361.037,513.434ZM342.407,510.296L347.075,510.296C348.393,510.296 349.051,510.481 349.051,510.85L349.051,512.653C349.051,513.023 348.393,513.207 347.075,513.207L342.407,513.207C341.089,513.207 340.43,513.023 340.43,512.653L340.43,510.85C340.43,510.481 341.089,510.296 342.407,510.296ZM370.331,510.296L374.998,510.296C376.316,510.296 376.975,510.481 376.975,510.85L376.975,512.653C376.975,513.023 376.316,513.207 374.998,513.207L370.331,513.207C369.013,513.207 368.354,513.023 368.354,512.653L368.354,510.85C368.354,510.481 369.013,510.296 370.331,510.296ZM379.666,507.158L384.292,507.158C385.61,507.158 386.269,507.343 386.269,507.712L386.269,509.501C386.269,509.87 385.61,510.055 384.292,510.055L379.666,510.055C378.349,510.055 377.69,509.87 377.69,509.501L377.69,507.712C377.69,507.343 378.349,507.158 379.666,507.158ZM379.666,504.006L384.292,504.006C385.61,504.006 386.269,504.19 386.269,504.559L386.269,506.363C386.269,506.732 385.61,506.917 384.292,506.917L379.666,506.917C378.349,506.917 377.69,506.732 377.69,506.363L377.69,504.559C377.69,504.19 378.349,504.006 379.666,504.006ZM379.666,500.867L384.292,500.867C385.61,500.867 386.269,501.052 386.269,501.421L386.269,503.225C386.269,503.594 385.61,503.778 384.292,503.778L379.666,503.778C378.349,503.778 377.69,503.594 377.69,503.225L377.69,501.421C377.69,501.052 378.349,500.867 379.666,500.867ZM379.666,497.715L384.292,497.715C385.61,497.715 386.269,497.899 386.269,498.269L386.269,500.072C386.269,500.441 385.61,500.626 384.292,500.626L379.666,500.626C378.349,500.626 377.69,500.441 377.69,500.072L377.69,498.269C377.69,497.899 378.349,497.715 379.666,497.715ZM379.666,494.577L384.292,494.577C385.61,494.577 386.269,494.761 386.269,495.13L386.269,496.934C386.269,497.303 385.61,497.488 384.292,497.488L379.666,497.488C378.349,497.488 377.69,497.303 377.69,496.934L377.69,495.13C377.69,494.761 378.349,494.577 379.666,494.577ZM379.666,491.438L384.292,491.438C385.61,491.438 386.269,491.623 386.269,491.992L386.269,493.781C386.269,494.151 385.61,494.335 384.292,494.335L379.666,494.335C378.349,494.335 377.69,494.151 377.69,493.781L377.69,491.992C377.69,491.623 378.349,491.438 379.666,491.438Z" style="fill:rgb(197,249,70);fill-rule:nonzero;"/>
                    </g>
                </g>
            </g>
        </g>
    </g>
</svg>
