<?xml version="1.0" encoding="UTF-8" standalone="no"?>
<!DOCTYPE svg PUBLIC "-//W3C//DTD SVG 1.1//EN" "http://www.w3.org/Graphics/SVG/1.1/DTD/svg11.dtd">
<svg width="100%" height="100%" viewBox="0 0 1200 700" version="1.1" xmlns="http://www.w3.org/2000/svg" xmlns:xlink="http://www.w3.org/1999/xlink" xml:space="preserve" xmlns:serif="http://www.serif.com/" style="fill-rule:evenodd;clip-rule:evenodd;stroke-linejoin:round;stroke-miterlimit:2;">
    <g transform="matrix(1,0,0,1,-1442.39,0)">
        <g id="Монтажная-область1" serif:id="Монтажная область1" transform="matrix(1,0,0,1,1442.39,0)">
            <rect x="0" y="0" width="1200" height="700" style="fill:none;"/>
            <g transform="matrix(1.06916,0,0,1.15305,-82.9937,-107.135)">
                <rect x="77.625" y="92.914" width="1122.38" height="607.086"/>
            </g>
            <g transform="matrix(1.79755,0,0,1.79755,-2053.24,-3267.46)">
                <path d="M1418.64,2065.35C1418.64,2064.12 1417.64,2063.12 1416.41,2063.12L1409.67,2063.12C1408.44,2063.12 1407.45,2064.12 1407.45,2065.35L1407.45,2072.09C1407.45,2073.32 1408.44,2074.31 1409.67,2074.31L1416.41,2074.31C1417.64,2074.31 1418.64,2073.32 1418.64,2072.09L1418.64,2065.35ZM1432.62,2065.35C1432.62,2064.12 1431.63,2063.12 1430.4,2063.12L1423.66,2063.12C1422.43,2063.12 1421.43,2064.12 1421.43,2065.35L1421.43,2072.09C1421.43,2073.32 1422.43,2074.31 1423.66,2074.31L1430.4,2074.31C1431.63,2074.31 1432.62,2073.32 1432.62,2072.09L1432.62,2065.35ZM1586.44,2065.35C1586.44,2064.12 1585.44,2063.12 1584.21,2063.12L1577.47,2063.12C1576.24,2063.12 1575.25,2064.12 1575.25,2065.35L1575.25,2072.09C1575.25,2073.32 1576.24,2074.31 1577.47,2074.31L1584.21,2074.31C1585.44,2074.31 1586.44,2073.32 1586.44,2072.09L1586.44,2065.35ZM1544.49,2065.35C1544.49,2064.12 1543.49,2063.12 1542.26,2063.12L1535.52,2063.12C1534.29,2063.12 1533.3,2064.12 1533.3,2065.35L1533.3,2072.09C1533.3,2073.32 1534.29,2074.31 1535.52,2074.31L1542.26,2074.31C1543.49,2074.31 1544.49,2073.32 1544.49,2072.09L1544.49,2065.35ZM1530.51,2065.35C1530.51,2064.12 1529.51,2063.12 1528.28,2063.12L1521.54,2063.12C1520.31,2063.12 1519.32,2064.12 1519.32,2065.35L1519.32,2072.09C1519.32,2073.32 1520.31,2074.31 1521.54,2074.31L1528.28,2074.31C1529.51,2074.31 1530.51,2073.32 1530.51,2072.09L1530.51,2065.35ZM1376.69,2065.35C1376.69,2064.12 1375.69,2063.12 1374.46,2063.12L1367.72,2063.12C1366.5,2063.12 1365.5,2064.12 1365.5,2065.35L1365.5,2072.09C1365.5,2073.32 1366.5,2074.31 1367.72,2074.31L1374.46,2074.31C1375.69,2074.31 1376.69,2073.32 1376.69,2072.09L1376.69,2065.35ZM1348.75,2051.28C1348.75,2050.05 1347.76,2049.05 1346.53,2049.05L1339.79,2049.05C1338.56,2049.05 1337.56,2050.05 1337.56,2051.28L1337.56,2058.02C1337.56,2059.25 1338.56,2060.24 1339.79,2060.24L1346.53,2060.24C1347.76,2060.24 1348.75,2059.25 1348.75,2058.02L1348.75,2051.28ZM1614.43,2051.28C1614.43,2050.05 1613.44,2049.05 1612.21,2049.05L1605.47,2049.05C1604.24,2049.05 1603.25,2050.05 1603.25,2051.28L1603.25,2058.02C1603.25,2059.25 1604.24,2060.24 1605.47,2060.24L1612.21,2060.24C1613.44,2060.24 1614.43,2059.25 1614.43,2058.02L1614.43,2051.28ZM1614.47,2037.21C1614.47,2035.98 1613.47,2034.98 1612.24,2034.98L1605.5,2034.98C1604.27,2034.98 1603.28,2035.98 1603.28,2037.21L1603.28,2043.95C1603.28,2045.18 1604.27,2046.17 1605.5,2046.17L1612.24,2046.17C1613.47,2046.17 1614.47,2045.18 1614.47,2043.95L1614.47,2037.21ZM1446.67,2037.21C1446.67,2035.98 1445.67,2034.98 1444.44,2034.98L1437.7,2034.98C1436.47,2034.98 1435.48,2035.98 1435.48,2037.21L1435.48,2043.95C1435.48,2045.18 1436.47,2046.17 1437.7,2046.17L1444.44,2046.17C1445.67,2046.17 1446.67,2045.18 1446.67,2043.95L1446.67,2037.21ZM1348.78,2037.21C1348.78,2035.98 1347.79,2034.98 1346.56,2034.98L1339.82,2034.98C1338.59,2034.98 1337.59,2035.98 1337.59,2037.21L1337.59,2043.95C1337.59,2045.18 1338.59,2046.17 1339.82,2046.17L1346.56,2046.17C1347.79,2046.17 1348.78,2045.18 1348.78,2043.95L1348.78,2037.21ZM1516.58,2037.21C1516.58,2035.98 1515.59,2034.98 1514.36,2034.98L1507.62,2034.98C1506.39,2034.98 1505.39,2035.98 1505.39,2037.21L1505.39,2043.95C1505.39,2045.18 1506.39,2046.17 1507.62,2046.17L1514.36,2046.17C1515.59,2046.17 1516.58,2045.18 1516.58,2043.95L1516.58,2037.21ZM1460.68,2023.14C1460.68,2021.91 1459.68,2020.91 1458.45,2020.91L1451.72,2020.91C1450.49,2020.91 1449.49,2021.91 1449.49,2023.14L1449.49,2029.88C1449.49,2031.11 1450.49,2032.1 1451.72,2032.1L1458.45,2032.1C1459.68,2032.1 1460.68,2031.11 1460.68,2029.88L1460.68,2023.14ZM1572.55,2023.14C1572.55,2021.91 1571.55,2020.91 1570.32,2020.91L1563.58,2020.91C1562.35,2020.91 1561.36,2021.91 1561.36,2023.14L1561.36,2029.88C1561.36,2031.11 1562.35,2032.1 1563.58,2032.1L1570.32,2032.1C1571.55,2032.1 1572.55,2031.11 1572.55,2029.88L1572.55,2023.14ZM1404.75,2023.14C1404.75,2021.91 1403.75,2020.91 1402.52,2020.91L1395.78,2020.91C1394.55,2020.91 1393.56,2021.91 1393.56,2023.14L1393.56,2029.88C1393.56,2031.11 1394.55,2032.1 1395.78,2032.1L1402.52,2032.1C1403.75,2032.1 1404.75,2031.11 1404.75,2029.88L1404.75,2023.14ZM1488.65,2023.14C1488.65,2021.91 1487.65,2020.91 1486.42,2020.91L1479.68,2020.91C1478.45,2020.91 1477.46,2021.91 1477.46,2023.14L1477.46,2029.88C1477.46,2031.11 1478.45,2032.1 1479.68,2032.1L1486.42,2032.1C1487.65,2032.1 1488.65,2031.11 1488.65,2029.88L1488.65,2023.14ZM1614.5,2023.14C1614.5,2021.91 1613.5,2020.91 1612.27,2020.91L1605.53,2020.91C1604.3,2020.91 1603.31,2021.91 1603.31,2023.14L1603.31,2029.88C1603.31,2031.11 1604.3,2032.1 1605.53,2032.1L1612.27,2032.1C1613.5,2032.1 1614.5,2031.11 1614.5,2029.88L1614.5,2023.14ZM1516.61,2023.14C1516.61,2021.91 1515.62,2020.91 1514.39,2020.91L1507.65,2020.91C1506.42,2020.91 1505.42,2021.91 1505.42,2023.14L1505.42,2029.88C1505.42,2031.11 1506.42,2032.1 1507.65,2032.1L1514.39,2032.1C1515.62,2032.1 1516.61,2031.11 1516.61,2029.88L1516.61,2023.14ZM1446.7,2023.14C1446.7,2021.91 1445.7,2020.91 1444.47,2020.91L1437.73,2020.91C1436.5,2020.91 1435.51,2021.91 1435.51,2023.14L1435.51,2029.88C1435.51,2031.11 1436.5,2032.1 1437.73,2032.1L1444.47,2032.1C1445.7,2032.1 1446.7,2031.11 1446.7,2029.88L1446.7,2023.14ZM1474.66,2023.14C1474.66,2021.91 1473.67,2020.91 1472.44,2020.91L1465.7,2020.91C1464.47,2020.91 1463.47,2021.91 1463.47,2023.14L1463.47,2029.88C1463.47,2031.11 1464.47,2032.1 1465.7,2032.1L1472.44,2032.1C1473.67,2032.1 1474.66,2031.11 1474.66,2029.88L1474.66,2023.14ZM1502.63,2023.14C1502.63,2021.91 1501.63,2020.91 1500.4,2020.91L1493.66,2020.91C1492.44,2020.91 1491.44,2021.91 1491.44,2023.14L1491.44,2029.88C1491.44,2031.11 1492.44,2032.1 1493.66,2032.1L1500.4,2032.1C1501.63,2032.1 1502.63,2031.11 1502.63,2029.88L1502.63,2023.14ZM1348.81,2023.14C1348.81,2021.91 1347.82,2020.91 1346.59,2020.91L1339.85,2020.91C1338.62,2020.91 1337.62,2021.91 1337.62,2023.14L1337.62,2029.88C1337.62,2031.11 1338.62,2032.1 1339.85,2032.1L1346.59,2032.1C1347.82,2032.1 1348.81,2031.11 1348.81,2029.88L1348.81,2023.14ZM1628.48,2023.14C1628.48,2021.91 1627.48,2020.91 1626.25,2020.91L1619.52,2020.91C1618.29,2020.91 1617.29,2021.91 1617.29,2023.14L1617.29,2029.88C1617.29,2031.11 1618.29,2032.1 1619.52,2032.1L1626.25,2032.1C1627.48,2032.1 1628.48,2031.11 1628.48,2029.88L1628.48,2023.14ZM1334.77,2023.14C1334.77,2021.91 1333.77,2020.91 1332.54,2020.91L1325.8,2020.91C1324.58,2020.91 1323.58,2021.91 1323.58,2023.14L1323.58,2029.88C1323.58,2031.11 1324.58,2032.1 1325.8,2032.1L1332.54,2032.1C1333.77,2032.1 1334.77,2031.11 1334.77,2029.88L1334.77,2023.14ZM1614.53,2009.07C1614.53,2007.84 1613.53,2006.84 1612.3,2006.84L1605.56,2006.84C1604.33,2006.84 1603.34,2007.84 1603.34,2009.07L1603.34,2015.81C1603.34,2017.04 1604.33,2018.03 1605.56,2018.03L1612.3,2018.03C1613.53,2018.03 1614.53,2017.04 1614.53,2015.81L1614.53,2009.07ZM1418.76,2009.07C1418.76,2007.84 1417.77,2006.84 1416.54,2006.84L1409.8,2006.84C1408.57,2006.84 1407.57,2007.84 1407.57,2009.07L1407.57,2015.81C1407.57,2017.04 1408.57,2018.03 1409.8,2018.03L1416.54,2018.03C1417.77,2018.03 1418.76,2017.04 1418.76,2015.81L1418.76,2009.07ZM1516.64,2009.07C1516.64,2007.84 1515.65,2006.84 1514.42,2006.84L1507.68,2006.84C1506.45,2006.84 1505.45,2007.84 1505.45,2009.07L1505.45,2015.81C1505.45,2017.04 1506.45,2018.03 1507.68,2018.03L1514.42,2018.03C1515.65,2018.03 1516.64,2017.04 1516.64,2015.81L1516.64,2009.07ZM1446.73,2009.07C1446.73,2007.84 1445.73,2006.84 1444.5,2006.84L1437.76,2006.84C1436.53,2006.84 1435.54,2007.84 1435.54,2009.07L1435.54,2015.81C1435.54,2017.04 1436.53,2018.03 1437.76,2018.03L1444.5,2018.03C1445.73,2018.03 1446.73,2017.04 1446.73,2015.81L1446.73,2009.07ZM1348.85,2009.07C1348.85,2007.84 1347.85,2006.84 1346.62,2006.84L1339.88,2006.84C1338.65,2006.84 1337.65,2007.84 1337.65,2009.07L1337.65,2015.81C1337.65,2017.04 1338.65,2018.03 1339.88,2018.03L1346.62,2018.03C1347.85,2018.03 1348.85,2017.04 1348.85,2015.81L1348.85,2009.07ZM1404.78,2009.07C1404.78,2007.84 1403.78,2006.84 1402.55,2006.84L1395.81,2006.84C1394.58,2006.84 1393.59,2007.84 1393.59,2009.07L1393.59,2015.81C1393.59,2017.04 1394.58,2018.03 1395.81,2018.03L1402.55,2018.03C1403.78,2018.03 1404.78,2017.04 1404.78,2015.81L1404.78,2009.07ZM1586.56,2009.07C1586.56,2007.84 1585.56,2006.84 1584.34,2006.84L1577.6,2006.84C1576.37,2006.84 1575.37,2007.84 1575.37,2009.07L1575.37,2015.81C1575.37,2017.04 1576.37,2018.03 1577.6,2018.03L1584.34,2018.03C1585.56,2018.03 1586.56,2017.04 1586.56,2015.81L1586.56,2009.07ZM1572.58,2009.07C1572.58,2007.84 1571.58,2006.84 1570.35,2006.84L1563.61,2006.84C1562.38,2006.84 1561.39,2007.84 1561.39,2009.07L1561.39,2015.81C1561.39,2017.04 1562.38,2018.03 1563.61,2018.03L1570.35,2018.03C1571.58,2018.03 1572.58,2017.04 1572.58,2015.81L1572.58,2009.07ZM1432.81,1980.93C1432.81,1979.7 1431.81,1978.7 1430.58,1978.7L1423.84,1978.7C1422.61,1978.7 1421.62,1979.7 1421.62,1980.93L1421.62,1987.67C1421.62,1988.89 1422.61,1989.89 1423.84,1989.89L1430.58,1989.89C1431.81,1989.89 1432.81,1988.89 1432.81,1987.67L1432.81,1980.93ZM1600.61,1980.93C1600.61,1979.7 1599.61,1978.7 1598.38,1978.7L1591.64,1978.7C1590.41,1978.7 1589.41,1979.7 1589.41,1980.93L1589.41,1987.67C1589.41,1988.89 1590.41,1989.89 1591.64,1989.89L1598.38,1989.89C1599.61,1989.89 1600.61,1988.89 1600.61,1987.67L1600.61,1980.93ZM1530.69,1980.93C1530.69,1979.7 1529.69,1978.7 1528.46,1978.7L1521.72,1978.7C1520.5,1978.7 1519.5,1979.7 1519.5,1980.93L1519.5,1987.67C1519.5,1988.89 1520.5,1989.89 1521.72,1989.89L1528.46,1989.89C1529.69,1989.89 1530.69,1988.89 1530.69,1987.67L1530.69,1980.93ZM1362.89,1980.93C1362.89,1979.7 1361.89,1978.7 1360.66,1978.7L1353.92,1978.7C1352.7,1978.7 1351.7,1979.7 1351.7,1980.93L1351.7,1987.67C1351.7,1988.89 1352.7,1989.89 1353.92,1989.89L1360.66,1989.89C1361.89,1989.89 1362.89,1988.89 1362.89,1987.67L1362.89,1980.93ZM1418.85,1966.86C1418.85,1965.63 1417.86,1964.63 1416.63,1964.63L1409.89,1964.63C1408.66,1964.63 1407.66,1965.63 1407.66,1966.86L1407.66,1973.6C1407.66,1974.83 1408.66,1975.82 1409.89,1975.82L1416.63,1975.82C1417.86,1975.82 1418.85,1974.83 1418.85,1973.6L1418.85,1966.86ZM1544.7,1966.86C1544.7,1965.63 1543.71,1964.63 1542.48,1964.63L1535.74,1964.63C1534.51,1964.63 1533.51,1965.63 1533.51,1966.86L1533.51,1973.6C1533.51,1974.83 1534.51,1975.82 1535.74,1975.82L1542.48,1975.82C1543.71,1975.82 1544.7,1974.83 1544.7,1973.6L1544.7,1966.86ZM1404.87,1966.86C1404.87,1965.63 1403.87,1964.63 1402.64,1964.63L1395.9,1964.63C1394.68,1964.63 1393.68,1965.63 1393.68,1966.86L1393.68,1973.6C1393.68,1974.83 1394.68,1975.82 1395.9,1975.82L1402.64,1975.82C1403.87,1975.82 1404.87,1974.83 1404.87,1973.6L1404.87,1966.86ZM1558.69,1966.86C1558.69,1965.63 1557.69,1964.63 1556.46,1964.63L1549.72,1964.63C1548.49,1964.63 1547.5,1965.63 1547.5,1966.86L1547.5,1973.6C1547.5,1974.83 1548.49,1975.82 1549.72,1975.82L1556.46,1975.82C1557.69,1975.82 1558.69,1974.83 1558.69,1973.6L1558.69,1966.86ZM1572.67,1966.86C1572.67,1965.63 1571.67,1964.63 1570.44,1964.63L1563.7,1964.63C1562.48,1964.63 1561.48,1965.63 1561.48,1966.86L1561.48,1973.6C1561.48,1974.83 1562.48,1975.82 1563.7,1975.82L1570.44,1975.82C1571.67,1975.82 1572.67,1974.83 1572.67,1973.6L1572.67,1966.86ZM1586.65,1966.86C1586.65,1965.63 1585.66,1964.63 1584.43,1964.63L1577.69,1964.63C1576.46,1964.63 1575.46,1965.63 1575.46,1966.86L1575.46,1973.6C1575.46,1974.83 1576.46,1975.82 1577.69,1975.82L1584.43,1975.82C1585.66,1975.82 1586.65,1974.83 1586.65,1973.6L1586.65,1966.86ZM1376.9,1966.86C1376.9,1965.63 1375.91,1964.63 1374.68,1964.63L1367.94,1964.63C1366.71,1964.63 1365.71,1965.63 1365.71,1966.86L1365.71,1973.6C1365.71,1974.83 1366.71,1975.82 1367.94,1975.82L1374.68,1975.82C1375.91,1975.82 1376.9,1974.83 1376.9,1973.6L1376.9,1966.86ZM1390.89,1966.86C1390.89,1965.63 1389.89,1964.63 1388.66,1964.63L1381.92,1964.63C1380.69,1964.63 1379.7,1965.63 1379.7,1966.86L1379.7,1973.6C1379.7,1974.83 1380.69,1975.82 1381.92,1975.82L1388.66,1975.82C1389.89,1975.82 1390.89,1974.83 1390.89,1973.6L1390.89,1966.86ZM1390.92,1952.79C1390.92,1951.56 1389.92,1950.56 1388.69,1950.56L1381.95,1950.56C1380.72,1950.56 1379.73,1951.56 1379.73,1952.79L1379.73,1959.53C1379.73,1960.75 1380.72,1961.75 1381.95,1961.75L1388.69,1961.75C1389.92,1961.75 1390.92,1960.75 1390.92,1959.53L1390.92,1952.79ZM1572.7,1952.79C1572.7,1951.56 1571.7,1950.56 1570.47,1950.56L1563.74,1950.56C1562.51,1950.56 1561.51,1951.56 1561.51,1952.79L1561.51,1959.53C1561.51,1960.75 1562.51,1961.75 1563.74,1961.75L1570.47,1961.75C1571.7,1961.75 1572.7,1960.75 1572.7,1959.53L1572.7,1952.79Z" style="fill:rgb(197,249,70);"/>
            </g>
        </g>
    </g>
</svg>
