<?xml version="1.0" encoding="UTF-8" standalone="no"?>
<!DOCTYPE svg PUBLIC "-//W3C//DTD SVG 1.1//EN" "http://www.w3.org/Graphics/SVG/1.1/DTD/svg11.dtd">
<svg width="100%" height="100%" viewBox="0 0 512 512" version="1.1" xmlns="http://www.w3.org/2000/svg" xmlns:xlink="http://www.w3.org/1999/xlink" xml:space="preserve" xmlns:serif="http://www.serif.com/" style="fill-rule:evenodd;clip-rule:evenodd;stroke-linejoin:round;stroke-miterlimit:2;">
    <rect id="widget-fitness-icon" x="0" y="0" width="512" height="512" style="fill:none;"/>
    <g id="widget-fitness-icon1" serif:id="widget-fitness-icon">
        <g>
            <g transform="matrix(7.99213,0,0,7.99213,-162.344,-124.875)">
                <path d="M29.688,15.625L29.688,17.187L26.563,17.187L26.563,18.75L25.001,18.75L25.001,20.312L23.438,20.312L23.438,21.875L21.876,21.875L21.876,25L20.313,25L20.313,67.188L21.876,67.188L21.876,70.313L23.438,70.313L23.438,71.875L25.001,71.875L25.001,73.438L26.563,73.438L26.563,75L28.126,75L28.126,76.563L29.688,76.563L29.688,78.125L32.813,78.125L32.813,79.688L75.001,79.688L75.001,78.125L78.126,78.125L78.126,76.563L79.689,76.563L79.689,75L81.251,75L81.251,73.438L82.814,73.438L82.814,70.313L84.376,70.313L84.376,28.125L82.814,28.125L82.814,25L81.251,25L81.251,23.437L79.689,23.437L79.689,21.875L78.126,21.875L78.126,20.312L76.564,20.312L76.564,18.75L75.001,18.75L75.001,17.187L71.876,17.187L71.876,15.625L29.688,15.625ZM29.688,17.187L29.688,18.75L26.563,18.75L26.563,20.312L25.001,20.312L25.001,21.875L23.438,21.875L23.438,25L21.876,25L21.876,67.188L23.438,67.188L23.438,70.313L25.001,70.313L25.001,71.875L26.563,71.875L26.563,73.438L29.688,73.438L29.688,75L71.876,75L71.876,73.438L75.001,73.438L75.001,71.875L76.564,71.875L76.564,70.313L78.126,70.313L78.126,67.188L79.689,67.188L79.689,25L78.126,25L78.126,21.875L76.564,21.875L76.564,20.312L75.001,20.312L75.001,18.75L71.876,18.75L71.876,17.187L29.688,17.187Z" style="fill:rgb(197,249,70);"/>
            </g>
            <g transform="matrix(-5.3343,0,0,5.3343,510.715,-21.7149)">
                <path d="M83.969,57.277L79.118,57.277L79.118,54.851L76.693,54.851L76.693,57.277L74.267,57.277L74.267,59.702L69.404,59.702L69.404,54.851L71.842,54.851L71.842,50L74.267,50L74.267,47.575L76.693,47.575L76.693,42.723L74.267,42.723L74.267,40.298L71.842,40.298L71.842,45.149L69.404,45.149L69.404,47.575L64.553,47.575L64.553,45.149L66.978,45.149L66.978,37.872L64.553,37.872L64.553,35.447L62.127,35.447L62.127,33.021L59.702,33.021L59.702,37.872L62.127,37.872L62.127,40.298L59.702,40.298L59.702,37.872L57.276,37.872L57.276,33.021L59.702,33.021L59.702,28.158L57.276,28.158L57.276,25.733L54.851,25.733L54.851,23.307L52.425,23.307L52.425,20.882L50,20.882L50,28.158L52.425,28.158L52.425,35.447L50,35.447L50,40.298L47.575,40.298L47.575,42.723L45.149,42.723L45.149,45.149L42.724,45.149L42.724,42.723L40.286,42.723L40.286,37.872L42.724,37.872L42.724,33.021L45.149,33.021L45.149,30.584L40.286,30.584L40.286,33.021L37.86,33.021L37.86,35.447L35.435,35.447L35.435,37.872L33.009,37.872L33.009,45.149L35.435,45.149L35.435,47.575L37.86,47.575L37.86,52.426L35.435,52.426L35.435,57.277L33.009,57.277L33.009,54.851L28.158,54.851L28.158,52.426L30.584,52.426L30.584,50L28.158,50L28.158,47.575L25.733,47.575L25.733,45.149L28.158,45.149L28.158,40.298L25.733,40.298L25.733,42.723L23.307,42.723L23.307,50L20.882,50L20.882,57.277L23.307,57.277L23.307,59.702L28.158,59.702L28.158,62.14L30.584,62.14L30.584,64.565L28.158,64.565L28.158,62.14L20.882,62.14L20.882,59.702L18.456,59.702L18.456,64.565L20.882,64.565L20.882,66.991L23.307,66.991L23.307,71.842L25.733,71.842L25.733,74.267L28.158,74.267L28.158,76.693L30.584,76.693L30.584,79.118L35.435,79.118L35.435,81.544L37.86,81.544L37.86,83.969L64.553,83.969L64.553,81.544L66.978,81.544L66.978,79.118L71.842,79.118L71.842,76.693L74.267,76.693L74.267,71.842L76.693,71.842L76.693,69.416L79.118,69.416L79.118,64.565L81.544,64.565L81.544,59.702L83.969,59.702L83.969,57.277ZM33.009,59.702L35.435,59.702L35.435,62.14L40.286,62.14L40.286,64.565L42.724,64.565L42.724,66.991L45.149,66.991L45.149,62.14L42.724,62.14L42.724,59.702L40.286,59.702L40.286,57.277L42.724,57.277L42.724,54.851L45.149,54.851L45.149,57.277L42.724,57.277L42.724,59.702L47.575,59.702L47.575,57.277L50,57.277L50,54.851L52.425,54.851L52.425,45.149L50,45.149L50,42.723L52.425,42.723L52.425,45.149L54.851,45.149L54.851,47.575L57.276,47.575L57.276,50L59.702,50L59.702,54.851L57.276,54.851L57.276,59.702L54.851,59.702L54.851,62.14L57.276,62.14L57.276,64.565L59.702,64.565L59.702,59.702L62.127,59.702L62.127,57.277L64.553,57.277L64.553,59.702L62.127,59.702L62.127,64.565L59.702,64.565L59.702,66.991L64.553,66.991L64.553,64.565L66.978,64.565L66.978,66.991L64.553,66.991L64.553,71.842L62.127,71.842L62.127,74.267L59.702,74.267L59.702,76.693L42.724,76.693L42.724,74.267L40.286,74.267L40.286,71.842L37.86,71.842L37.86,66.991L35.435,66.991L35.435,62.14L33.009,62.14L33.009,59.702Z" style="fill:rgb(197,249,70);fill-rule:nonzero;"/>
                <rect x="79.118" y="52.426" width="2.425" height="2.425" style="fill:rgb(197,249,70);"/>
                <path d="M71.842,35.447L69.404,35.447L69.404,40.298L71.842,40.298L71.842,35.447Z" style="fill:rgb(197,249,70);fill-rule:nonzero;"/>
                <path d="M50,16.031L47.575,16.031L47.575,20.882L50,20.882L50,16.031Z" style="fill:rgb(197,249,70);fill-rule:nonzero;"/>
                <rect x="37.86" y="25.733" width="2.425" height="2.425" style="fill:rgb(197,249,70);"/>
                <rect x="23.307" y="37.872" width="2.425" height="2.426" style="fill:rgb(197,249,70);"/>
                <rect x="16.031" y="57.277" width="2.426" height="2.425" style="fill:rgb(197,249,70);"/>
            </g>
        </g>
    </g>
</svg>
